<?xml version="1.0" encoding="utf-8"?>
<!-- Generator: Adobe Illustrator 26.5.0, SVG Export Plug-In . SVG Version: 6.00 Build 0)  -->
<svg version="1.1" id="Layer_1" xmlns="http://www.w3.org/2000/svg" xmlns:xlink="http://www.w3.org/1999/xlink" x="0px" y="0px"
	 viewBox="0 0 369.3 111.5" style="enable-background:new 0 0 369.3 111.5;" xml:space="preserve">
<style type="text/css">
	.st0{fill:#FFFFFF;}
</style>
<g>
	<path class="st0" d="M74.1,48.7H43.8c-0.8,0-1.4,0.6-1.4,1.4v14.8c0,0.8,0.6,1.4,1.4,1.4h11.8v18.3c0,0-2.7,0.9-10,0.9
		c-8.6,0-20.7-3.2-20.7-29.7c0-26.5,12.6-30,24.4-30c10.2,0,14.6,1.8,17.4,2.7c0.9,0.3,1.7-0.6,1.7-1.4l3.4-14.3
		c0-0.4-0.1-0.8-0.5-1.1c-1.1-0.8-8.1-4.7-25.6-4.7c-20.2,0-40.9,8.6-40.9,49.8c0,41.2,23.7,47.4,43.7,47.4
		c16.5,0,26.6-7.1,26.6-7.1c0.4-0.2,0.5-0.8,0.5-1.1V50.1C75.5,49.3,74.9,48.7,74.1,48.7z"/>
	<path class="st0" d="M230,12c0-0.8-0.6-1.4-1.4-1.4h-17c-0.8,0-1.4,0.6-1.4,1.4c0,0,0,32.9,0,32.9h-26.6V12c0-0.8-0.6-1.4-1.4-1.4
		h-17c-0.8,0-1.4,0.6-1.4,1.4v89c0,0.8,0.6,1.4,1.4,1.4h17c0.8,0,1.4-0.6,1.4-1.4V63h26.6c0,0,0,38.1,0,38.1c0,0.8,0.6,1.4,1.4,1.4
		h17.1c0.8,0,1.4-0.6,1.4-1.4V12z"/>
	<g>
		<g>
			<path class="st0" d="M106.2,23.7c0-6.1-4.9-11.1-11-11.1c-6.1,0-11,4.9-11,11.1c0,6.1,4.9,11.1,11,11.1
				C101.3,34.8,106.2,29.8,106.2,23.7z"/>
			<path class="st0" d="M105,82.2c0-2.3,0-41.1,0-41.1c0-0.8-0.6-1.4-1.4-1.4h-17c-0.8,0-1.5,0.8-1.5,1.6c0,0,0,49.4,0,58.9
				c0,1.7,1.1,2.2,2.5,2.2c0,0,7.2,0,15.3,0c1.7,0,2.1-0.8,2.1-2.3C105,97,105,84.6,105,82.2z"/>
		</g>
	</g>
	<path class="st0" d="M294.7,39.9h-16.9c-0.8,0-1.4,0.6-1.4,1.4v43.6c0,0-4.3,3.1-10.4,3.1c-6.1,0-7.7-2.8-7.7-8.7
		c0-6,0-38.1,0-38.1c0-0.8-0.6-1.4-1.4-1.4h-17.2c-0.8,0-1.4,0.6-1.4,1.4c0,0,0,23.2,0,40.9c0,17.7,9.9,22,23.5,22
		c11.1,0,20.1-6.1,20.1-6.1s0.4,3.2,0.6,3.6c0.2,0.4,0.7,0.8,1.2,0.8l10.9,0c0.8,0,1.4-0.6,1.4-1.4l0-59.7
		C296.1,40.5,295.5,39.9,294.7,39.9z"/>
	<path class="st0" d="M340.9,37.9c-9.6,0-16.1,4.3-16.1,4.3V12c0-0.8-0.6-1.4-1.4-1.4h-17.1c-0.8,0-1.4,0.6-1.4,1.4v89
		c0,0.8,0.6,1.4,1.4,1.4c0,0,11.8,0,11.9,0c0.5,0,0.9-0.3,1.2-0.8c0.3-0.5,0.7-4.1,0.7-4.1s7,6.6,20.2,6.6
		c15.5,0,24.4-7.9,24.4-35.3C364.7,41.5,350.5,37.9,340.9,37.9z M334.2,88c-5.9-0.2-9.8-2.8-9.8-2.8V57c0,0,3.9-2.4,8.7-2.8
		c6.1-0.5,12,1.3,12,15.8C345.1,85.3,342.4,88.3,334.2,88z"/>
	<path class="st0" d="M154,39.7h-12.8c0,0,0-16.8,0-16.9c0-0.6-0.3-1-1.1-1h-17.4c-0.7,0-1,0.3-1,0.9v17.4c0,0-8.7,2.1-9.3,2.3
		c-0.6,0.2-1,0.7-1,1.4v10.9c0,0.8,0.6,1.4,1.4,1.4h8.9c0,0,0,11.4,0,26.3c0,19.6,13.7,21.5,23,21.5c4.2,0,9.3-1.4,10.1-1.7
		c0.5-0.2,0.8-0.7,0.8-1.3l0-12c0-0.8-0.7-1.4-1.4-1.4c-0.7,0-2.6,0.3-4.6,0.3c-6.3,0-8.4-2.9-8.4-6.7c0-3.8,0-25,0-25H154
		c0.8,0,1.4-0.6,1.4-1.4V41.2C155.4,40.4,154.7,39.7,154,39.7z"/>
</g>
</svg>
