<?xml version="1.0" encoding="utf-8"?>
<!-- Generator: Adobe Illustrator 26.5.0, SVG Export Plug-In . SVG Version: 6.00 Build 0)  -->
<svg version="1.1" id="Layer_1" xmlns="http://www.w3.org/2000/svg" xmlns:xlink="http://www.w3.org/1999/xlink" x="0px" y="0px"
	 viewBox="0 0 147 40" style="enable-background:new 0 0 147 40;" xml:space="preserve">
<style type="text/css">
	.st0{fill:#FFFFFF;}
</style>
<g>
	<path class="st0" d="M53.4,13l0.1,2.2c1.4-1.7,3.2-2.6,5.5-2.6c4,0,6,2.3,6,6.8V32h-4.3V19.7c0-1.2-0.3-2.1-0.8-2.7
		c-0.5-0.6-1.4-0.9-2.6-0.9c-1.7,0-3,0.8-3.8,2.3V32h-4.3V13L53.4,13L53.4,13z M77.7,32.3c-2.7,0-4.9-0.9-6.6-2.6
		c-1.7-1.7-2.5-4-2.5-6.8v-0.5c0-1.9,0.4-3.6,1.1-5.1c0.7-1.5,1.8-2.7,3.1-3.5c1.3-0.8,2.8-1.2,4.4-1.2c2.6,0,4.6,0.8,6,2.5
		c1.4,1.7,2.1,4,2.1,7v1.7H73c0.1,1.6,0.7,2.8,1.6,3.7s2.1,1.4,3.5,1.4c2,0,3.5-0.8,4.8-2.4l2.3,2.2c-0.8,1.1-1.8,2-3,2.6
		C80.7,32,79.3,32.3,77.7,32.3L77.7,32.3z M77.2,16.1c-1.2,0-2.1,0.4-2.8,1.2c-0.7,0.8-1.2,2-1.4,3.4h8.1v-0.3
		c-0.1-1.4-0.5-2.5-1.1-3.2C79.3,16.4,78.4,16.1,77.2,16.1z M94,8.4V13h3.3v3.2H94v10.6c0,0.7,0.1,1.2,0.4,1.6
		c0.3,0.3,0.8,0.5,1.5,0.5c0.5,0,1-0.1,1.5-0.2v3.3c-1,0.3-1.9,0.4-2.8,0.4c-3.3,0-4.9-1.8-4.9-5.4V16.1h-3.1V13h3.1V8.4L94,8.4
		L94,8.4z M105.1,32h-4.3V5h4.3V32z M114.3,32h-4.3V13h4.3V32z M109.8,8c0-0.7,0.2-1.2,0.6-1.6c0.4-0.4,1-0.7,1.8-0.7
		c0.8,0,1.4,0.2,1.8,0.7c0.4,0.4,0.6,1,0.6,1.6c0,0.6-0.2,1.2-0.6,1.6c-0.4,0.4-1,0.6-1.8,0.6c-0.8,0-1.4-0.2-1.8-0.6
		C110,9.2,109.8,8.7,109.8,8L109.8,8z M120.5,32V16.1h-2.9V13h2.9v-1.7c0-2.1,0.6-3.7,1.8-4.9c1.2-1.1,2.8-1.7,4.9-1.7
		c0.7,0,1.5,0.1,2.4,0.3l-0.1,3.3c-0.5-0.1-1.1-0.1-1.6-0.1c-2,0-3.1,1-3.1,3.1V13h3.9v3.2h-3.9V32L120.5,32L120.5,32z M138.3,25.9
		l3.9-12.9h4.5l-7.5,21.9c-1.2,3.2-3.1,4.8-5.9,4.8c-0.6,0-1.3-0.1-2.1-0.3v-3.3l0.8,0.1c1.1,0,1.9-0.2,2.4-0.6c0.5-0.4,1-1.1,1.3-2
		l0.6-1.6L129.7,13h4.6L138.3,25.9z"/>
	<path class="st0" d="M27.9,14.1L27.9,14.1C27.9,14.1,27.9,14.1,27.9,14.1c-0.1,0-0.1-0.1-0.1-0.1l0.8-4.7l3.6,3.6l-3.8,1.6
		c0,0,0,0,0,0h0c0,0,0,0,0,0C28.2,14.4,28.1,14.2,27.9,14.1z M33.1,13.8l3.9,3.9c0.8,0.8,1.2,1.2,1.4,1.7c0,0.1,0,0.1,0.1,0.2
		l-9.3-3.9c0,0,0,0,0,0c0,0-0.1,0-0.1-0.1s0-0.1,0.1-0.1l0,0L33.1,13.8z M38.3,20.9c-0.2,0.4-0.6,0.8-1.2,1.4l-4.4,4.4L27,25.5l0,0
		c0,0-0.1,0-0.1-0.1c0-0.5-0.3-0.9-0.7-1.2c0,0,0-0.1,0-0.1c0,0,0,0,0,0l1.1-6.5l0,0c0,0,0-0.1,0.1-0.1c0.5-0.1,0.9-0.3,1.2-0.7
		c0,0,0,0,0,0c0,0,0.1,0,0.1,0L38.3,20.9L38.3,20.9z M31.6,27.7l-7.2,7.2l1.2-7.6l0,0c0,0,0,0,0,0c0,0,0,0,0.1,0l0,0
		c0.3-0.1,0.5-0.3,0.7-0.5c0,0,0.1-0.1,0.1-0.1c0,0,0,0,0,0L31.6,27.7L31.6,27.7z M22.9,36.4l-0.8,0.8l-9-12.9c0,0,0,0,0,0
		c0,0,0,0,0-0.1c0,0,0,0,0,0l0,0c0,0,0.1-0.1,0.1-0.1l0,0l0,0c0,0,0,0,0.1-0.1c0,0,0.1,0,0.1,0l9.9,2c0,0,0.1,0,0.1,0c0,0,0,0,0,0
		c0.1,0.5,0.5,1,1,1.2c0,0,0,0,0,0.1c0,0,0,0,0,0C24.3,28.1,23.2,34.6,22.9,36.4z M21.2,38c-0.6,0.6-0.9,0.9-1.3,1
		c-0.4,0.1-0.8,0.1-1.2,0c-0.5-0.1-0.9-0.5-1.7-1.4l-9-9l2.3-3.6c0,0,0,0,0,0c0,0,0.1,0,0.1,0c0.5,0.2,1.1,0.1,1.6-0.1
		c0,0,0.1,0,0.1,0c0,0,0,0,0,0L21.2,38L21.2,38z M7.2,27.9l-2.1-2.1l4.1-1.7c0,0,0,0,0,0c0,0,0.1,0,0.1,0.1c0,0.1,0.1,0.1,0.1,0.2
		l0,0c0,0,0,0,0,0L7.2,27.9L7.2,27.9z M4.2,24.9l-2.6-2.6c-0.4-0.4-0.8-0.8-1-1l7.9,1.6c0,0,0,0,0,0c0,0,0.1,0,0.1,0.1
		c0,0-0.1,0.1-0.1,0.1l0,0L4.2,24.9z M0.1,19.9c0-0.2,0-0.3,0.1-0.5c0.1-0.5,0.6-0.9,1.4-1.7l3.3-3.3c1.5,2.2,3.1,4.5,4.6,6.7
		c0,0,0.1,0.1,0,0.1c-0.1,0.2-0.3,0.3-0.4,0.5c0,0,0,0-0.1,0.1c0,0,0,0,0,0h0L0.1,19.9L0.1,19.9z M5.8,13.5L10.3,9
		c0.4,0.2,2,0.8,3.3,1.4c1,0.4,2,0.8,2.3,1c0,0,0.1,0,0.1,0.1c0,0,0,0,0,0.1c-0.1,0.7,0.1,1.3,0.5,1.8c0,0,0,0.1,0,0.1l0,0l-4.6,7.1
		c0,0,0,0,0,0c0,0-0.1,0-0.1,0c-0.2,0-0.4-0.1-0.5-0.1c-0.2,0-0.3,0-0.5,0.1h0c0,0,0,0-0.1,0c0,0,0,0,0-0.1L5.8,13.5L5.8,13.5z
		 M11.2,8.1L17,2.3c0.8-0.8,1.2-1.2,1.7-1.4c0.4-0.1,0.8-0.1,1.2,0c0.5,0.1,0.9,0.5,1.7,1.4l1.3,1.3l-4.1,6.4c0,0,0,0,0,0
		c0,0-0.1,0-0.1,0c-0.7-0.2-1.4-0.1-1.9,0.4c0,0-0.1,0-0.1,0C16,10.1,11.8,8.3,11.2,8.1z M23.7,4.4l3.8,3.8l-0.9,5.7v0c0,0,0,0,0,0
		c0,0,0,0,0,0c-0.2,0.1-0.4,0.2-0.5,0.3c0,0,0,0,0,0c0,0,0,0,0,0c0,0,0,0,0,0l-5.8-2.5l0,0c0,0-0.1,0-0.1-0.1c0-0.3-0.1-0.6-0.3-0.9
		c0,0-0.1-0.1,0-0.1L23.7,4.4z M19.8,13l5.5,2.3c0,0,0.1,0,0.1,0.1c0,0,0,0,0,0.1c0,0.1,0,0.2,0,0.3v0.2c0,0,0,0.1-0.1,0.1l0,0
		c-0.9,0.4-12.1,5.2-12.1,5.2s0,0-0.1,0c0,0,0-0.1,0-0.1c0,0,0,0,0,0l4.5-6.9l0,0c0,0,0.1-0.1,0.1-0.1l0,0c0.1,0,0.2,0,0.3,0
		c0.7,0,1.3-0.3,1.7-0.9C19.7,13,19.7,13,19.8,13C19.7,13,19.7,13,19.8,13z M13.5,22.2L25.8,17c0,0,0,0,0,0c0.1,0.1,0.1,0.1,0.2,0.2
		l0,0c0,0,0,0,0.1,0.1c0,0,0,0,0,0l-1.1,6.5l0,0c0,0,0,0.1-0.1,0.1c-0.6,0-1.1,0.4-1.4,0.8l0,0c0,0,0,0,0,0.1c0,0,0,0-0.1,0l-9.8-2
		C13.7,22.7,13.5,22.2,13.5,22.2z"/>
</g>
</svg>
