<?xml version="1.0" encoding="utf-8"?>
<!-- Generator: Adobe Illustrator 26.5.0, SVG Export Plug-In . SVG Version: 6.00 Build 0)  -->
<svg version="1.1" id="Layer_1" xmlns="http://www.w3.org/2000/svg" xmlns:xlink="http://www.w3.org/1999/xlink" x="0px" y="0px"
	 viewBox="0 0 498 127" style="enable-background:new 0 0 498 127;" xml:space="preserve">
<style type="text/css">
	.st0{fill:#FFFFFF;}
</style>
<g>
	<path class="st0" d="M159.5,99.5l6.2-14.4c6.7,5,15.6,7.6,24.4,7.6c6.5,0,10.6-2.5,10.6-6.3c-0.1-10.6-38.9-2.3-39.2-28.9
		c-0.1-13.5,11.9-23.9,28.9-23.9c10.1,0,20.2,2.5,27.4,8.2L212,56.5c-6.6-4.2-14.8-7.2-22.6-7.2c-5.3,0-8.8,2.5-8.8,5.7
		c0.1,10.4,39.2,4.7,39.6,30.1c0,13.8-11.7,23.5-28.5,23.5C179.4,108.6,168.1,105.7,159.5,99.5 M397.4,79.9
		c-3.1,5.4-8.9,9.1-15.6,9.1c-9.9,0-17.9-8-17.9-17.9s8-17.9,17.9-17.9c6.7,0,12.5,3.7,15.6,9.1l17.1-9.5
		c-6.4-11.4-18.7-19.2-32.7-19.2c-20.7,0-37.5,16.8-37.5,37.5s16.8,37.5,37.5,37.5c14.1,0,26.3-7.7,32.7-19.2
		C414.5,89.4,397.4,79.9,397.4,79.9z M228.8,2.5h21.4v104.7h-21.4V2.5z M422.9,2.5v104.7h21.4V75.8l25.4,31.4h27.4l-32.3-37.3
		l29.9-34.8h-26.2L444.3,64V2.5H422.9z M313.8,80.1c-3.1,5.1-9.5,8.9-16.7,8.9c-9.9,0-17.9-8-17.9-17.9s8-17.9,17.9-17.9
		c7.2,0,13.6,4,16.7,9.2V80.1z M313.8,35.1v8.5c-3.5-5.9-12.2-10-21.3-10c-18.8,0-33.6,16.6-33.6,37.4s14.8,37.6,33.6,37.6
		c9.1,0,17.8-4.1,21.3-10v8.5h21.4v-72H313.8z"/>
	<path class="st0" d="M27.2,80c0,7.3-5.9,13.2-13.2,13.2S0.8,87.3,0.8,80S6.7,66.8,14,66.8h13.2V80z M33.8,80
		c0-7.3,5.9-13.2,13.2-13.2S60.2,72.7,60.2,80v33c0,7.3-5.9,13.2-13.2,13.2s-13.2-5.9-13.2-13.2V80z"/>
	<path class="st0" d="M47,27c-7.3,0-13.2-5.9-13.2-13.2S39.7,0.6,47,0.6s13.2,5.9,13.2,13.2V27H47z M47,33.7
		c7.3,0,13.2,5.9,13.2,13.2S54.3,60.1,47,60.1H13.9c-7.3,0-13.2-5.9-13.2-13.2s5.9-13.2,13.2-13.2H47z"/>
	<path class="st0" d="M99.9,46.9c0-7.3,5.9-13.2,13.2-13.2c7.3,0,13.2,5.9,13.2,13.2s-5.9,13.2-13.2,13.2H99.9V46.9z M93.3,46.9
		c0,7.3-5.9,13.2-13.2,13.2c-7.3,0-13.2-5.9-13.2-13.2V13.8c0-7.3,5.9-13.2,13.2-13.2c7.3,0,13.2,5.9,13.2,13.2
		C93.3,13.8,93.3,46.9,93.3,46.9z"/>
	<path class="st0" d="M80.1,99.8c7.3,0,13.2,5.9,13.2,13.2c0,7.3-5.9,13.2-13.2,13.2c-7.3,0-13.2-5.9-13.2-13.2V99.8H80.1z
		 M80.1,93.2c-7.3,0-13.2-5.9-13.2-13.2c0-7.3,5.9-13.2,13.2-13.2h33.1c7.3,0,13.2,5.9,13.2,13.2c0,7.3-5.9,13.2-13.2,13.2H80.1z"/>
</g>
</svg>
