<?xml version="1.0" encoding="UTF-8"?>
<svg id="Layer_2" data-name="Layer 2" xmlns="http://www.w3.org/2000/svg" viewBox="0 0 621.81 123.81">
  <defs>
    <style>
      .cls-1, .cls-2 {
        fill: #fff;
      }

      .cls-2 {
        opacity: .5;
      }
    </style>
  </defs>
  <g id="Layer_1-2" data-name="Layer 1">
    <g>
      <path class="cls-1" d="M142.7,76.55l-7.17-.63c-5.63-.45-7.81-2.72-7.81-6.54,0-4.54,3.45-7.36,9.99-7.36,4.63,0,8.72,1.09,11.9,3.54l4.27-4.27c-4-3.27-9.72-4.81-16.07-4.81-9.54,0-16.44,4.9-16.44,13.08,0,7.36,4.63,11.26,13.35,11.99l7.36,.64c5.18,.46,7.45,2.63,7.45,6.54,0,5.27-4.54,7.9-11.9,7.9-5.54,0-10.35-1.45-13.9-5.18l-4.36,4.36c4.9,4.72,10.81,6.45,18.35,6.45,10.81,0,18.16-5,18.16-13.62s-5.36-11.35-13.17-12.08h0Zm55.91-20.07c-7.17,0-11.69,1.41-15.64,6.42-.05,.07,4.29,4.29,4.29,4.29,2.63-3.72,5.54-5.08,11.26-5.08,8.17,0,11.44,3.27,11.44,9.81v4.27h-13.44c-9.99,0-15.44,5.09-15.44,12.9-.1,3.35,1.1,6.61,3.36,9.08,2.82,2.91,6.45,4.09,12.62,4.09s9.26-1.18,12.9-4.81v4.27h6.54v-30.33c0-9.72-5.9-14.89-17.89-14.89h0Zm11.36,29.43c0,3.72-.73,6.27-2.27,7.72-2.82,2.72-6.18,3-9.99,3-7.08,0-10.26-2.45-10.26-7.63s3.27-7.9,9.99-7.9h12.53v4.81Zm32.15-23.61c4.27,0,6.9,1.27,10.26,4.99,0,0,4.38-4.26,4.34-4.29-4.58-4.9-8.48-6.51-14.6-6.51-11.26,0-19.8,7.63-19.8,22.88s8.54,22.89,19.8,22.89c6.18,0,10.08-1.64,14.71-6.63l-4.45-4.27c-3.36,3.72-5.99,5.09-10.26,5.09-4.09,.16-7.98-1.75-10.35-5.09-2.09-2.91-2.91-6.36-2.91-11.99s.82-9.08,2.91-11.99c2.37-3.34,6.26-5.25,10.35-5.08h0Zm56-5.33h-8.15l-20.26,19.72,.03-39.64h-6.54V101.71h6.54l-.03-16.31,7.93-7.96,14.99,24.27h8.08l-18.54-28.8,15.95-15.94Zm30.21-1.1c-6.7,0-11.23,2.61-14.01,5.57-4.09,4.26-5.13,9.4-5.13,17.58s1.04,13.4,5.13,17.67c2.79,2.96,7.31,5.57,14.01,5.57s11.32-2.61,14.1-5.57c4.09-4.26,5.14-9.4,5.14-17.67s-1.05-13.32-5.14-17.58c-2.78-2.96-7.4-5.57-14.1-5.57Zm5.31,34.21c-1.42,1.37-3.34,2.09-5.31,2-1.94,.09-3.84-.63-5.22-2-2.35-2.35-2.61-6.35-2.61-11.05s.26-8.62,2.61-10.97c1.38-1.37,3.28-2.09,5.22-2,1.97-.09,3.89,.63,5.31,2,2.35,2.35,2.61,6.27,2.61,10.97s-.26,8.7-2.61,11.05Zm44.06-33.69l-9.14,28.02-9.23-28.03h-11.93l16.71,45.35h8.88l16.62-45.35h-11.92Zm31.17-.52c-11.75,0-19.76,8.35-19.76,23.15,0,18.37,10.27,23.24,20.98,23.24,8.18,0,12.62-2.53,17.23-7.14l-6.88-6.7c-2.87,2.87-5.31,4.26-10.27,4.26-6.35,0-9.92-4.26-9.92-10.1h28.37v-5.05c0-12.45-7.14-21.67-19.76-21.67Zm-8.62,18.97c.02-1.68,.37-3.34,1.05-4.87,1.43-2.88,4.36-4.7,7.57-4.7s6.15,1.82,7.57,4.7c.67,1.54,1.03,3.2,1.04,4.87h-17.23Zm45.07-14.1v-4.35h-11.05v45.35h11.32v-27.33c0-5.75,3.83-8.36,7.31-8.36,2.29-.08,4.5,.9,5.97,2.67l8.57-8.58c-3.13-3.13-6.27-4.26-10.71-4.26-4.32-.05-8.45,1.72-11.4,4.87h0Zm25.62-9.08v50.03h11.31v-35.75h8.36v-8.62h-8.36v-4.96c0-2.61,1.31-4.09,4-4.09h4.35v-9.57h-6.44c-9.23,0-13.23,6.53-13.23,12.97h0Zm66.25,4.2c-6.7,0-11.23,2.61-14.01,5.57-4.09,4.27-5.13,9.4-5.13,17.58s1.04,13.4,5.13,17.67c2.79,2.96,7.31,5.57,14.01,5.57s11.32-2.61,14.1-5.57c4.09-4.27,5.14-9.4,5.14-17.67s-1.05-13.32-5.14-17.58c-2.79-2.96-7.4-5.57-14.1-5.57Zm5.31,34.21c-1.42,1.37-3.34,2.09-5.31,2-1.94,.09-3.84-.63-5.22-2-2.35-2.35-2.61-6.35-2.61-11.05s.26-8.62,2.61-10.97c1.38-1.37,3.28-2.09,5.22-2,1.97-.09,3.89,.63,5.31,2,2.35,2.35,2.61,6.27,2.61,10.97s-.26,8.7-2.61,11.05Zm67.38-33.68l-7.31,28.03-9.31-28.02h-8.27l-9.23,28.02-7.31-28.03h-12.01l13.93,45.35h9.31l9.49-28.46,9.49,28.46h9.31l13.84-45.35h-11.93Zm-102.58,31.68V38.69h-11.31v50.07c0,6.44,3.92,12.97,13.23,12.97h6.44v-9.57h-4.35c-2.87,0-4-1.39-4-4.09h0Zm-333.3-24.01l6.05-6.05h-12.38v-14.7h-6.54v46.41c0,6.63,3.81,11.99,11.44,11.99h4.63v-5.63h-3.45c-4.18,0-6.08-2.45-6.08-6.54v-25.48h6.33Z"/>
      <polygon class="cls-1" points="88 79.81 99 79.81 99 123.81 0 123.81 0 79.81 11 79.81 11 112.81 88 112.81 88 79.81"/>
      <path class="cls-2" d="M22.99,76.54l54.03,11.35,2.27-10.8-54.02-11.36-2.27,10.81Zm7.15-25.87l50.05,23.31,4.66-10.01-50.05-23.31-4.66,10.01Zm13.85-24.55l42.43,35.33,7.07-8.49L51.05,17.63l-7.07,8.48ZM71.37,0l-8.86,6.59,32.95,44.3,8.86-6.59L71.37,0ZM22,101.81h55v-11H22v11Z"/>
    </g>
  </g>
</svg>