<?xml version="1.0" encoding="utf-8"?>
<!-- Generator: Adobe Illustrator 26.5.0, SVG Export Plug-In . SVG Version: 6.00 Build 0)  -->
<svg version="1.1" id="Layer_1" xmlns="http://www.w3.org/2000/svg" xmlns:xlink="http://www.w3.org/1999/xlink" x="0px" y="0px"
	 viewBox="0 0 581 113" style="enable-background:new 0 0 581 113;" xml:space="preserve">
<style type="text/css">
	.st0{fill:#FFFFFF;}
	.st1{fill:url(#SVGID_1_);fill-opacity:0.2;}
	.st2{fill:url(#SVGID_00000015336414679132502660000001938789526912981133_);fill-opacity:0.2;}
</style>
<path class="st0" d="M151.4,66.8c0.6,5.6,5.7,15.2,20.5,15.2c12.9,0,19.1-8.2,19.1-16.2c0-7.2-4.9-13.1-14.6-15.1l-7-1.5
	c-2.7-0.5-4.5-2-4.5-4.4c0-2.8,2.8-4.9,6.3-4.9c5.6,0,7.7,3.7,8.1,6.6l11.1-2.5c-0.6-5.3-5.3-14.2-19.3-14.2
	c-10.6,0-18.4,7.3-18.4,16.1c0,6.9,4.3,12.6,13.8,14.7l6.5,1.5c3.8,0.8,5.3,2.6,5.3,4.8c0,2.6-2.1,4.9-6.5,4.9c-5.8,0-8.7-3.6-9-7.5
	L151.4,66.8z"/>
<path class="st0" d="M233.4,80.5h12.7c-0.2-1.7-0.5-5.1-0.5-8.9V31.3h-13.3v28.6c0,5.7-3.4,9.7-9.3,9.7c-6.2,0-9-4.4-9-9.9V31.3
	h-13.3v31.1c0,10.7,6.8,19.4,18.7,19.4c5.2,0,10.9-2,13.6-6.6C233,77.2,233.2,79.5,233.4,80.5z"/>
<path class="st0" d="M273.1,99.5V75.7c2.4,3.3,7.4,6,14.2,6c13.9,0,23.2-11,23.2-25.9c0-14.6-8.3-25.6-22.7-25.6
	c-7.4,0-12.9,3.3-15.1,7.1v-6h-12.9v68.2H273.1z M297.4,55.9c0,8.8-5.4,13.9-12.2,13.9c-6.8,0-12.3-5.2-12.3-13.9
	c0-8.7,5.5-13.8,12.3-13.8C292,42.1,297.4,47.2,297.4,55.9z"/>
<path class="st0" d="M318,67.1c0,7.7,6.4,14.8,16.9,14.8c7.3,0,12-3.4,14.5-7.3c0,1.9,0.2,4.6,0.5,5.9H362c-0.3-1.7-0.6-5.2-0.6-7.8
	V48.5c0-9.9-5.8-18.7-21.4-18.7c-13.2,0-20.3,8.5-21.1,16.2l11.8,2.5c0.4-4.3,3.6-8,9.4-8c5.6,0,8.3,2.9,8.3,6.4
	c0,1.7-0.9,3.1-3.7,3.5l-12.1,1.8C324.5,53.4,318,58.3,318,67.1z M337.6,72c-4.3,0-6.4-2.8-6.4-5.7c0-3.8,2.7-5.7,6.1-6.2l11.1-1.7
	v2.2C348.4,69.3,343.2,72,337.6,72z"/>
<path class="st0" d="M387.7,80.5v-6c2.6,4.2,7.8,7.2,14.6,7.2c14,0,23.2-11.1,23.2-26c0-14.6-8.3-25.7-22.7-25.7
	c-7.3,0-12.7,3.2-14.9,6.7V8h-13.1v72.4H387.7z M412.2,55.8c0,9-5.4,14-12.2,14c-6.7,0-12.3-5.1-12.3-14c0-9,5.6-13.9,12.3-13.9
	C406.8,41.9,412.2,46.8,412.2,55.8z"/>
<path class="st0" d="M433,67.1c0,7.7,6.4,14.8,16.9,14.8c7.3,0,12-3.4,14.5-7.3c0,1.9,0.2,4.6,0.5,5.9H477c-0.3-1.7-0.6-5.2-0.6-7.8
	V48.5c0-9.9-5.8-18.7-21.4-18.7c-13.2,0-20.3,8.5-21.1,16.2l11.8,2.5c0.4-4.3,3.6-8,9.4-8c5.6,0,8.3,2.9,8.3,6.4
	c0,1.7-0.9,3.1-3.7,3.5l-12.1,1.8C439.5,53.4,433,58.3,433,67.1z M452.7,72c-4.3,0-6.4-2.8-6.4-5.7c0-3.8,2.7-5.7,6.1-6.2l11.1-1.7
	v2.2C463.5,69.3,458.3,72,452.7,72z"/>
<path class="st0" d="M485.6,66.8c0.6,5.6,5.7,15.2,20.5,15.2c12.9,0,19.1-8.2,19.1-16.2c0-7.2-4.9-13.1-14.6-15.1l-7-1.5
	c-2.7-0.5-4.5-2-4.5-4.4c0-2.8,2.8-4.9,6.3-4.9c5.6,0,7.7,3.7,8.1,6.6l11.1-2.5c-0.6-5.3-5.3-14.2-19.3-14.2
	c-10.6,0-18.4,7.3-18.4,16.1c0,6.9,4.3,12.6,13.8,14.7l6.5,1.5c3.8,0.8,5.3,2.6,5.3,4.8c0,2.6-2.1,4.9-6.5,4.9c-5.8,0-8.7-3.6-9-7.5
	L485.6,66.8z"/>
<path class="st0" d="M545.4,50.3c0.3-4.5,4.1-9.7,11-9.7c7.6,0,10.8,4.8,11,9.7H545.4z M568.7,63.1c-1.6,4.4-5,7.5-11.2,7.5
	c-6.6,0-12.1-4.7-12.4-11.2h35.2c0-0.2,0.2-2.2,0.2-4.1c0-15.8-9.1-25.5-24.3-25.5C543.6,29.8,532,40,532,55.7
	c0,16.6,11.9,26.3,25.4,26.3c12.1,0,19.9-7.1,22.4-15.6L568.7,63.1z"/>
<path class="st0" d="M63.7,110.3c-2.9,3.6-8.7,1.6-8.7-3l-1-67.3h45.2c8.2,0,12.8,9.5,7.7,15.9L63.7,110.3z"/>
<linearGradient id="SVGID_1_" gradientUnits="userSpaceOnUse" x1="52.2662" y1="91.9802" x2="70.5948" y2="57.4776" gradientTransform="matrix(1 0 0 -1 0 114)">
	<stop  offset="0" style="stop-color:#000000"/>
	<stop  offset="1" style="stop-color:#000000;stop-opacity:0"/>
</linearGradient>
<path class="st1" d="M63.7,110.3c-2.9,3.6-8.7,1.6-8.7-3l-1-67.3h45.2c8.2,0,12.8,9.5,7.7,15.9L63.7,110.3z"/>
<path class="st0" d="M45.3,2.1C48.2-1.5,54,0.4,54,5l0.4,67.3H9.8c-8.2,0-12.8-9.5-7.7-15.9L45.3,2.1z"/>
<linearGradient id="SVGID_00000129166632485531440260000003573059117659833757_" gradientUnits="userSpaceOnUse" x1="52.2662" y1="91.9802" x2="70.5948" y2="57.4776" gradientTransform="matrix(1 0 0 -1 0 114)">
	<stop  offset="0" style="stop-color:#000000"/>
	<stop  offset="1" style="stop-color:#000000;stop-opacity:0"/>
</linearGradient>
<path style="fill:url(#SVGID_00000129166632485531440260000003573059117659833757_);fill-opacity:0.2;" d="M63.7,110.3
	c-2.9,3.6-8.7,1.6-8.7-3l-1-67.3h45.2c8.2,0,12.8,9.5,7.7,15.9L63.7,110.3z"/>
</svg>
