<?xml version="1.0" encoding="UTF-8" standalone="no"?>
<svg
   height="813.184"
   width="813.15"
   version="1.1"
   id="svg8"
   sodipodi:docname="deno_for_web_socketst.svg"
   inkscape:version="1.1 (c68e22c387, 2021-05-23)"
   xmlns:inkscape="http://www.inkscape.org/namespaces/inkscape"
   xmlns:sodipodi="http://sodipodi.sourceforge.net/DTD/sodipodi-0.dtd"
   xmlns="http://www.w3.org/2000/svg"
   xmlns:svg="http://www.w3.org/2000/svg">
  <defs
     id="defs12" />
  <sodipodi:namedview
     id="namedview10"
     pagecolor="#ffffff"
     bordercolor="#666666"
     borderopacity="1.0"
     inkscape:pageshadow="2"
     inkscape:pageopacity="0.0"
     inkscape:pagecheckerboard="0"
     showgrid="false"
     inkscape:snap-center="true"
     inkscape:snap-global="true"
     inkscape:zoom="0.74607666"
     inkscape:cx="477.83293"
     inkscape:cy="500.6188"
     inkscape:window-width="1920"
     inkscape:window-height="1017"
     inkscape:window-x="-8"
     inkscape:window-y="-8"
     inkscape:window-maximized="1"
     inkscape:current-layer="g6" />
  <g
     fill="#222"
     id="g6">
    <path
       id="path17332"
       d="M 406.57422 0 C 182.23434 -5.8741865e-06 -0.17576949 182.32798 -0.17578125 406.5918 C -0.17579538 514.41974 42.688369 617.85664 118.96289 694.09961 C 195.23742 770.34258 298.70986 813.1836 406.57422 813.18359 C 514.43858 813.1836 617.91298 770.34258 694.1875 694.09961 C 770.46202 617.85664 813.32423 514.41974 813.32422 406.5918 C 813.32422 386.72145 811.84412 367.0056 808.99219 347.57617 L 809.00195 347.57422 A 406.75001 406.592 0 0 0 808.98047 347.47461 C 806.1609 328.29922 801.94789 309.42037 796.46484 290.95117 A 406.75001 406.592 0 0 0 796.32812 290.45508 C 790.81112 271.9573 783.96234 253.90129 775.88672 236.39062 A 406.75001 406.592 0 0 0 775.66406 235.89258 C 767.5692 218.40195 758.2073 201.49196 747.67188 185.26562 A 406.75001 406.592 0 0 0 747.43555 184.89062 C 736.94161 168.76676 725.25642 153.35983 712.46289 138.75977 A 406.75001 406.592 0 0 0 712.16406 138.41406 C 706.37083 131.81777 700.43412 125.32802 694.1875 119.08398 C 686.70574 111.60532 678.88989 104.54574 670.90625 97.71875 A 406.75001 406.592 0 0 0 670.64648 97.496094 C 655.81565 84.835502 640.16925 73.322424 623.82227 62.996094 C 623.81876 62.993881 623.816 62.990494 623.8125 62.988281 C 605.78357 51.600246 586.93671 41.653008 567.41602 33.25 A 406.75001 406.592 0 0 0 565.38477 32.349609 C 549.41262 25.577225 533.0016 19.878537 516.26758 15.191406 A 406.75001 406.592 0 0 0 513.02734 14.291016 C 496.3961 9.7805821 479.46352 6.2923737 462.29297 3.9179688 A 406.75001 406.592 0 0 0 459.41406 3.5605469 C 441.98276 1.2766113 424.35175 0.00025571305 406.58008 0 L 406.57422 0 z M 360.92773 52.992188 C 396.59875 63.321903 441.64974 70.824392 520.53906 68.787109 C 529.00827 71.6419 537.37499 74.769809 545.60156 78.25 C 433.35926 83.391691 381.32172 71.068493 337.75586 56.667969 C 345.39053 55.181698 353.12581 53.984867 360.92773 52.992188 z M 293.50977 68.324219 L 308.61328 111.46289 C 391.09348 134.75709 474.22079 151.62422 562.55469 139.82422 L 588.08398 99.648438 C 591.09345 101.42643 594.0448 103.30605 597.00391 105.17383 L 570.17578 147.39648 C 597.09278 221.86928 640.58183 292.80351 703.89453 359.6582 L 759.30273 353.28711 C 759.82501 356.74108 760.20773 360.22287 760.62891 363.69727 L 705.80664 370 C 654.17964 445.0063 633.92694 526.36692 621.82812 609.98242 L 664.58398 652.70312 C 662.66604 654.712 660.8088 656.76819 658.83984 658.73633 C 658.32822 659.24774 657.78589 659.72053 657.27148 660.22852 L 614.25977 617.25 C 609.76565 617.50099 605.3176 618.06225 600.86328 618.57812 C 600.59923 615.07548 600.30762 611.67046 600.0332 608.16211 C 601.56281 607.9937 603.07593 607.74876 604.61133 607.60742 L 599.58984 602.58984 C 599.15885 597.18632 598.75084 591.71281 598.30859 586.48047 L 612.66211 600.82422 C 624.59571 521.86762 644.59035 443.99209 692.24805 371.55859 L 611.83984 380.80273 C 597.26819 399.66761 586.0603 418.46902 577.5 437.24609 C 576.15912 432.2261 574.70628 427.43606 573.1875 422.79297 C 580.00372 409.31134 588.15031 395.84407 597.90625 382.4043 L 558.41211 386.94531 C 556.70718 383.53904 554.9529 380.2222 553.1543 376.99023 L 596.26758 372.0332 C 559.95558 338.72291 531.64603 294.51222 512.51953 238.13672 L 476.29102 295.15625 C 474.38309 294.06557 472.54434 292.95123 470.49219 291.89258 C 470.47419 291.88258 470.45745 291.87298 470.43945 291.86328 C 468.95794 291.10353 467.45929 290.40715 465.96875 289.68359 C 466.50412 289.53576 467.03007 289.47295 467.56641 289.31641 L 504.49414 231.19922 C 447.94264 238.56772 394.9593 230.10798 344.2168 213.14648 L 363.15625 267.23242 C 363.07166 267.23348 362.98692 267.22932 362.90234 267.23047 L 362.90039 267.23047 C 359.30261 267.27929 355.72509 267.42233 352.17188 267.625 L 335.47266 219.92969 C 325.7164 243.39932 312.30618 261.95695 296.8418 277.60742 C 288.6592 279.94188 280.59821 282.59036 272.69141 285.53516 C 297.24632 265.78959 317.79247 240.98029 330.16211 204.75391 L 303.22852 127.82617 C 259.27882 200.76077 203.06446 258.49712 133.16016 298.76172 L 202.39648 323.04883 C 199.04021 325.54398 195.79909 328.11901 192.63867 330.74609 L 127.59375 307.92578 C 135.06193 336.16442 141.26688 364.11381 146.11328 391.75 C 144.71119 395.52456 143.49099 399.36327 142.50586 403.25977 C 141.18467 408.43609 140.36515 413.45209 139.80273 418.45703 C 134.42754 380.94045 126.22784 342.66236 115.70117 303.75391 L 70.121094 287.76172 C 71.286241 284.45684 72.518469 281.18688 73.777344 277.92773 L 120.09375 294.17383 C 194.41515 253.39143 253.36452 193.125 298.79102 115.1582 L 283.57422 71.691406 C 286.84995 70.492235 290.18954 69.429444 293.50977 68.324219 z M 234.4043 94.121094 C 191.68685 148.21783 144.85019 195.57071 93.447266 235.4043 C 98.337683 226.47028 103.6177 217.78459 109.23047 209.33789 C 144.26952 179.92823 177.11171 146.80724 207.91211 110.22656 C 216.48192 104.4826 225.32808 99.119691 234.4043 94.121094 z M 312.82227 123.4707 L 339.85547 200.69141 C 394.50687 219.95781 450.93548 229.47998 511.73828 219.80078 L 555.3457 151.16992 C 470.636 160.79612 390.91147 145.15421 312.82227 123.4707 z M 639.56055 136.68945 C 646.15993 142.38148 652.63433 148.24432 658.83984 154.44727 C 660.52244 156.12917 662.10268 157.89183 663.74805 159.60352 C 686.51023 200.80258 711.69836 241.5739 740.64258 281.70898 C 744.39008 291.72481 747.66953 301.91246 750.50586 312.24219 C 706.6797 254.83776 670.68721 196.14165 639.56055 136.68945 z M 563.20508 158.36719 L 519.68555 226.85742 C 539.47435 289.32422 570.07476 336.32378 609.97266 370.45508 L 691.09375 361.12891 C 631.82385 297.20981 590.00608 229.40529 563.20508 158.36719 z M 362.92969 292.28906 C 374.70469 292.12656 386.65508 292.80156 396.95508 294.35156 C 411.83412 296.59 425.40387 300.23379 438.53906 305.21484 C 442.57368 306.7468 446.57001 308.42153 450.53516 310.24023 C 453.27503 311.49528 456.02917 312.65543 458.75391 314.05273 C 460.29022 314.84528 461.50456 315.57728 462.87109 316.33008 C 466.8709 318.53347 470.47307 320.7184 473.9082 323.24609 C 478.9253 326.93753 484.05722 331.46758 491.35352 338.45117 C 492.38919 339.44204 493.3195 340.4051 494.31641 341.38477 C 494.31641 341.38477 494.31836 341.38672 494.31836 341.38672 C 499.77945 346.75348 504.67407 351.98125 509.1582 357.25586 C 509.22523 357.33478 509.29449 357.41325 509.36133 357.49219 C 513.83963 362.77605 517.9038 368.1075 521.67188 373.67773 C 521.67359 373.67926 521.67601 373.68011 521.67773 373.68164 C 525.17979 378.85883 528.45825 384.2655 531.60352 390.0293 C 533.41472 393.34846 535.19862 396.7549 536.95312 400.35156 C 539.22662 405.00247 541.31657 409.59537 543.25391 414.25 C 543.25635 414.25587 543.25928 414.26171 543.26172 414.26758 C 543.28675 414.32746 543.3051 414.39127 543.33008 414.45117 C 549.11154 428.37819 553.5262 442.87129 557.31445 461.16211 C 557.31489 461.16075 557.31597 461.15956 557.31641 461.1582 C 558.76222 468.13924 560.11597 475.88586 561.41797 484.1875 C 561.41769 484.18872 561.41825 484.19019 561.41797 484.19141 C 562.78732 492.92231 564.10169 502.58219 565.41016 513.11133 C 565.55368 514.28011 565.69845 515.37573 565.8418 516.57031 C 567.1696 527.50219 568.49078 539.38256 569.85352 552.85156 C 570.02122 554.49013 570.20906 556.82669 570.38086 558.57422 C 570.87111 563.5622 571.37858 569.21183 571.88867 574.9082 C 571.89111 574.93541 571.8921 574.95911 571.89453 574.98633 C 572.94658 586.74043 573.96765 598.96015 574.97852 611.99609 C 575.25388 615.54635 575.55209 618.9884 575.81641 622.52344 C 575.81641 622.52344 575.81445 622.52344 575.81445 622.52344 C 577.77415 648.73823 579.39055 673.87674 579.95312 688.35156 C 579.96912 688.79572 580.02006 689.50298 580.03906 689.97656 C 580.03906 689.97656 580.04102 689.97656 580.04102 689.97656 C 580.16157 693.06008 580.41414 696.75678 580.60547 700.55664 C 580.60547 700.55664 580.60352 700.55664 580.60352 700.55664 C 580.90567 706.55559 581.16933 712.46502 581.49414 717.25977 C 528.54315 747.0456 468.41643 763.1836 406.57422 763.18359 C 400.10578 763.18359 393.66194 762.97147 387.23633 762.62305 C 387.31025 755.73286 387.79466 743.06301 388.35352 732.35156 C 388.9865 720.59911 389.42301 708.13883 389.73828 695.51758 C 389.83474 691.65605 389.89192 687.84913 389.95898 683.95898 C 389.97057 683.9541 389.98256 683.9502 389.99414 683.94531 C 390.1144 676.97247 390.05105 670.1201 390.07812 663.17578 C 390.1756 637.70466 389.76949 612.97022 388.63867 592.19727 C 388.58609 591.23143 388.53204 590.28201 388.48242 589.29688 C 388.37815 587.50598 388.29909 585.53919 388.18555 583.81641 C 387.79479 577.88737 387.35328 572.34922 386.85352 567.35156 C 385.85883 557.22384 384.4207 546.27687 382.9375 536.58984 C 381.14023 524.85159 379.26996 515.03917 377.95508 511.75195 C 377.55203 510.70403 380.12325 509.47855 385.87305 507.38086 C 386.00675 507.33206 386.09988 507.29226 386.23828 507.24219 C 387.53179 506.77429 387.92017 506.54673 389.6543 505.95117 C 392.315 505.02507 394.74916 504.02431 397.27148 503.04688 C 400.85433 501.65846 404.14472 500.29773 407.2793 498.89258 C 407.56668 498.76496 407.82454 498.64292 408.10742 498.51562 C 410.83081 497.27808 413.33442 496.09245 415.54883 494.92383 C 416.61002 494.37235 417.39895 493.88424 418.32422 493.35938 C 419.76184 492.53104 421.34611 491.67758 422.40039 490.93945 C 422.53025 490.84997 422.62046 490.77348 422.74414 490.68555 C 424.2207 489.61954 425.36947 488.63813 425.85352 487.85156 C 426.39102 486.92656 426.74197 485.95117 426.92383 484.95312 C 427.28754 482.95703 426.97725 480.86914 426.15039 478.9043 C 424.9101 475.95703 422.50418 473.28711 419.45508 471.62305 C 417.42234 470.51367 415.1043 469.85156 412.6543 469.85156 C 410.9543 469.85156 405.8543 471.65195 401.1543 473.75195 C 400.97 473.83665 400.72441 473.92479 400.53711 474.00977 C 397.28057 475.48715 393.51245 476.99333 389.4707 478.50781 C 381.57213 481.46756 372.4728 484.40112 362.94531 487.13281 C 362.94384 487.13324 362.94288 487.13434 362.94141 487.13477 C 358.24871 488.48017 353.53105 489.75165 348.77148 490.95312 C 348.76949 490.95363 348.76763 490.95458 348.76562 490.95508 C 341.49929 492.78931 334.30245 494.41265 327.51562 495.75195 C 327.04783 495.84333 326.60807 495.91548 326.14453 496.00391 C 319.53892 497.27694 313.30335 498.29396 307.95508 498.85156 C 307.95508 498.85156 307.95312 498.85156 307.95312 498.85156 C 307.94835 498.85207 307.94228 498.85301 307.9375 498.85352 C 303.92464 499.27893 299.29576 499.50192 294.49609 499.63281 C 292.41816 499.68514 290.23073 499.66814 288.0625 499.66602 C 285.49089 499.66945 282.90258 499.64406 280.25391 499.57422 C 277.1718 499.48445 274.07428 499.3598 270.96875 499.17383 C 269.47986 499.08793 268.02176 498.9709 266.54297 498.86328 C 262.81646 498.58465 259.08933 498.28581 255.52734 497.87695 C 255.52228 497.87637 255.51679 497.87558 255.51172 497.875 C 251.14475 497.37349 246.79421 496.84856 242.95508 496.15234 C 242.04454 495.98758 240.77402 495.58202 239.74609 495.3418 C 239.74609 495.3418 239.74414 495.3418 239.74414 495.3418 C 238.66811 495.09036 237.57272 494.82216 236.38477 494.49414 C 233.28746 493.63888 229.9324 492.56218 226.2832 491.26367 C 226.2832 491.26367 226.2832 491.26172 226.2832 491.26172 C 222.0018 489.73824 217.46479 487.95103 212.91406 486.01953 C 212.58254 485.8773 212.26144 485.75732 211.92969 485.61328 C 207.2106 483.58542 202.47245 481.38328 197.95508 479.05273 C 197.95508 479.05273 197.95312 479.05078 197.95312 479.05078 C 195.69114 477.87605 193.53982 476.65279 191.49805 475.38281 C 191.49805 475.38281 191.49609 475.38281 191.49609 475.38281 C 190.10392 474.51685 188.83544 473.59848 187.54688 472.68945 C 186.94511 472.26488 186.28214 471.86545 185.70312 471.43164 C 183.88479 470.06949 182.17977 468.6621 180.58789 467.21094 C 172.62695 459.95278 167.51758 451.60156 165.45508 442.35156 C 163.65508 434.35156 164.15508 418.35156 166.45508 409.35156 C 167.70508 404.40156 170.07931 398.32676 172.94141 392.43945 C 172.94141 392.43945 172.94141 392.4375 172.94141 392.4375 C 174.37271 389.4936 175.92613 386.59816 177.52148 383.91211 C 179.11665 381.22625 180.75352 378.75234 182.35352 376.65234 C 182.35352 376.65234 182.35352 376.65039 182.35352 376.65039 C 182.42152 376.56092 182.50391 376.47418 182.57227 376.38477 C 184.39117 374.00547 186.33069 371.64694 188.39062 369.31445 C 188.77289 368.88019 189.20166 368.45598 189.5918 368.02344 C 191.43862 365.98326 193.33222 363.95313 195.34961 361.95508 C 195.59353 361.71248 195.85914 361.47631 196.10547 361.23438 C 198.37501 359.01458 200.72186 356.81689 203.18555 354.65625 C 203.19278 354.64991 203.1998 354.64306 203.20703 354.63672 C 205.87587 352.29688 208.65301 349.99295 211.5293 347.73047 C 211.53189 347.72843 211.53452 347.72665 211.53711 347.72461 C 214.26054 345.58257 217.07191 343.48198 219.9707 341.41992 C 220.2056 341.25283 220.44383 341.0873 220.68164 340.92188 C 220.78842 340.84652 220.8969 340.77251 221.00391 340.69727 C 224.5443 338.20786 228.19321 335.77857 231.96484 333.42188 C 231.97636 333.41467 231.98848 333.40759 232 333.40039 C 242.61157 326.77215 254.07945 320.69646 266.11133 315.33789 C 266.24764 315.27728 266.38698 315.22058 266.52344 315.16016 C 270.13692 313.55744 273.80897 312.03091 277.51562 310.5625 C 278.39605 310.21438 279.2848 309.88125 280.16992 309.54102 C 283.1802 308.38169 286.21601 307.26999 289.27539 306.20508 C 290.4476 305.79783 291.62224 305.39684 292.80078 305.00391 C 295.62691 304.05993 298.47384 303.1694 301.33203 302.31055 C 302.6388 301.91854 303.94148 301.51628 305.25391 301.14258 C 308.12848 300.3228 311.02064 299.57274 313.91797 298.84375 C 315.16115 298.53133 316.3981 298.18981 317.64453 297.89453 C 321.6968 296.93365 325.76372 296.04782 329.83984 295.27539 C 329.87765 295.26823 329.91533 295.2591 329.95312 295.25195 C 329.96106 295.25047 329.97058 295.24953 329.97852 295.24805 C 333.1451 294.65496 336.58501 294.17915 340.12305 293.76367 C 340.91243 293.6704 341.71184 293.58446 342.51562 293.5 C 344.50233 293.29282 346.58194 293.15937 348.64062 293.00586 C 353.31446 292.65574 358.06762 292.35616 362.92969 292.28906 z M 365.63867 297.34766 C 374.8344 334.54691 390.71235 351.27731 414.98438 359.8125 C 438.59467 368.11499 471.26853 368.09819 511.82617 368.55664 C 505.09079 359.66349 497.39966 351.15644 487.89648 342.06445 A 5.0005 5.0005 0 0 0 487.89648 342.0625 C 474.01305 328.77407 468.80271 324.86355 456.47266 318.50195 C 437.43042 308.73669 418.33489 302.6233 396.21094 299.29492 C 387.02601 297.91272 376.30662 297.31806 365.63867 297.34766 z M 56.523438 337.6582 C 70.508347 407.91422 74.970414 475.69368 76.824219 542.6582 C 72.497324 532.18159 68.670114 521.49938 65.357422 510.64648 C 63.388215 464.14935 59.558478 417.26399 51.744141 369.42969 C 52.852839 358.6834 54.484887 348.09721 56.523438 337.6582 z M 226.56836 340.80273 C 224.76831 340.80498 222.88086 341.18164 220.97461 342.00977 C 210.57461 346.50977 209.77422 360.60937 219.57422 365.60938 C 226.67422 369.20938 233.87422 367.50859 237.57422 361.30859 C 243.48047 351.68984 236.28862 340.79062 226.56836 340.80273 z M 296.0625 349.69922 C 293.5875 349.62109 291.07539 350.20937 288.77539 351.60938 C 279.17539 357.50937 279.17539 371.70937 288.77539 377.60938 C 298.27539 383.30937 310.57422 375.8082 310.57422 364.4082 C 310.57422 356.1582 303.4875 349.93359 296.0625 349.69922 z M 182.85352 385.14062 C 177.95482 393.00869 173.1051 403.43882 171.30273 410.57617 A 5.0005 5.0005 0 0 1 171.29883 410.58984 C 169.30777 418.38096 168.89092 434.84027 170.33398 441.25391 A 5.0005 5.0005 0 0 1 170.33594 441.26367 C 173.24711 454.31984 183.02266 465.66068 200.24805 474.60938 C 200.25105 474.61038 200.25286 474.61228 200.25586 474.61328 L 200.25977 474.61523 C 215.57033 482.51297 234.46653 489.53524 243.8457 491.23242 A 5.0005 5.0005 0 0 0 243.84766 491.23242 C 251.69931 492.6563 261.22887 493.58331 270.8418 494.15039 C 272.66527 460.14598 267.43023 439.00528 253.99414 423.39062 C 240.40922 407.60303 217.20491 396.69652 182.85352 385.14062 z M 763.12695 398.58008 C 763.18702 401.25154 763.32422 403.91363 763.32422 406.5918 C 763.32422 412.22759 763.17133 417.84728 762.90625 423.45117 C 735.56631 483.36548 716.35013 545.24139 700.81641 608.08789 C 695.76554 615.45692 690.43763 622.6521 684.82031 629.65234 C 703.09729 550.99553 726.39812 473.29921 763.12695 398.58008 z M 144.35547 457.50586 C 147.13961 464.60906 151.13511 471.1211 156.0293 477.04688 C 157.28802 501.01985 157.27519 524.6993 155.39844 547.94531 L 211.83594 512.74805 C 216.12847 514.43288 220.3637 515.91232 224.5332 517.19727 L 159.4668 557.77539 C 231.32735 587.46887 302.16488 622.84591 365.20117 685.61719 C 364.92183 701.27343 364.43646 716.72352 363.66406 731.06445 L 363.66406 731.10742 C 363.1418 741.11707 362.68914 752.2082 362.54492 760.35156 C 360.97322 760.1533 359.39634 759.98185 357.82812 759.76562 L 364.57617 699.7793 C 299.29077 632.0233 225.00751 595.77392 148.57031 564.57422 L 102.66211 593.20117 C 100.82877 590.21802 99.059308 587.20264 97.316406 584.16992 L 144.44141 554.7793 C 147.52441 523.19009 147.20901 490.68938 144.35547 457.50586 z M 418.11133 494.66211 C 418.13433 494.56391 417.01279 494.51657 416.42969 494.7168 C 416.41169 494.7228 416.37542 494.74009 416.35742 494.74609 C 416.69352 494.70899 418.09833 494.69531 418.11133 494.66211 z M 257.57617 523.39648 C 267.39521 524.39768 277.47817 524.8021 287.2832 524.79102 C 313.90157 537.60886 339.26081 554.90925 362.9043 577.95898 C 363.29252 582.83183 363.63778 588.07677 363.93945 593.75 C 331.47667 559.54137 295.78241 537.27009 257.57617 523.39648 z M 127.72266 628.87305 C 203.35639 666.94715 277.94607 705.90969 334.64258 755.81836 C 327.05086 754.25606 319.54138 752.38945 312.08594 750.3418 C 264.76763 712.55398 206.33558 680.67336 145.78516 649.78125 C 139.47722 643.0231 133.45186 636.05338 127.72266 628.87305 z M 639.00586 676.97266 C 633.37944 681.80538 627.63984 686.47819 621.75 690.93164 C 616.34978 692.06604 610.98298 693.48353 605.59375 694.71094 C 605.48009 692.2471 605.27954 689.42475 605.20898 687.49609 L 605.20898 687.43945 C 605.17416 686.54368 605.06718 684.97007 605.02539 684.00586 C 616.32805 681.4528 627.6497 679.06536 639.00586 676.97266 z " />
  </g>
</svg>
