<svg height="813.184" width="813.15" xmlns="http://www.w3.org/2000/svg"><path d="M406.574 0C182.234 0-.176 182.328-.176 406.592c0 107.828 42.864 211.265 119.139 287.508 76.274 76.243 179.747 119.084 287.611 119.084 107.865 0 211.339-42.841 287.613-119.084 76.275-76.243 119.137-179.68 119.137-287.508a406.3 406.3 0 0 0-4.332-59.016l.01-.002a406.75 406.592 0 0 0-.022-.1c-2.82-19.175-7.032-38.054-12.515-56.523a406.75 406.592 0 0 0-.137-.496c-5.517-18.498-12.366-36.554-20.441-54.064a406.75 406.592 0 0 0-.223-.498 406.526 406.526 0 0 0-27.992-50.627 406.75 406.592 0 0 0-.236-.375 406.258 406.258 0 0 0-34.973-46.131 406.75 406.592 0 0 0-.299-.346c-5.793-6.596-11.73-13.086-17.976-19.33-7.482-7.479-15.298-14.538-23.282-21.365a406.75 406.592 0 0 0-.26-.223 406.33 406.33 0 0 0-46.824-34.5l-.01-.008a406.765 406.765 0 0 0-56.396-29.738 406.75 406.592 0 0 0-2.031-.9c-15.972-6.773-32.383-12.471-49.117-17.159a406.75 406.592 0 0 0-3.24-.9c-16.632-4.51-33.564-7.999-50.735-10.373a406.75 406.592 0 0 0-2.879-.357C441.983 1.277 424.352 0 406.58 0h-.006zm-45.646 52.992c35.67 10.33 80.722 17.832 159.611 15.795 8.47 2.855 16.836 5.983 25.063 9.463-112.243 5.142-164.28-7.182-207.846-21.582 7.635-1.486 15.37-2.683 23.172-3.676zM293.51 68.324l15.103 43.139c82.48 23.294 165.608 40.161 253.942 28.361l25.529-40.176c3.01 1.778 5.96 3.658 8.92 5.526l-26.828 42.222c26.917 74.473 70.406 145.408 133.719 212.262l55.408-6.37c.522 3.453.905 6.935 1.326 10.41L705.807 370c-51.627 75.006-71.88 156.367-83.979 239.982l42.756 42.721c-1.918 2.009-3.775 4.065-5.744 6.033-.512.512-1.054.985-1.569 1.493L614.26 617.25c-4.494.251-8.942.812-13.397 1.328-.264-3.503-.555-6.908-.83-10.416 1.53-.168 3.043-.413 4.578-.555l-5.021-5.017c-.431-5.404-.84-10.877-1.281-16.11l14.353 14.344c11.934-78.956 31.928-156.832 79.586-229.265l-80.408 9.244c-14.572 18.865-25.78 37.666-34.34 56.443-1.34-5.02-2.794-9.81-4.313-14.453 6.817-13.482 14.963-26.949 24.72-40.389l-39.495 4.541a257.276 257.276 0 0 0-5.258-9.955l43.114-4.957c-36.312-33.31-64.622-77.52-83.748-133.896l-36.229 57.02c-1.908-1.091-3.747-2.206-5.799-3.264l-.053-.03c-1.481-.76-2.98-1.456-4.47-2.18.535-.147 1.061-.21 1.597-.367l36.928-58.117c-56.551 7.369-109.535-1.091-160.277-18.053l18.94 54.086c-.085.001-.17-.003-.255-.002h-.002c-3.597.05-7.175.192-10.728.395l-16.7-47.695c-9.756 23.47-23.166 42.027-38.63 57.677a323.534 323.534 0 0 0-24.15 7.928c24.554-19.745 45.1-44.555 57.47-80.781l-26.933-76.928c-43.95 72.935-100.165 130.671-170.069 170.936l69.236 24.287a228.995 228.995 0 0 0-9.757 7.697l-65.045-22.82c7.468 28.238 13.673 56.188 18.52 83.824a111.735 111.735 0 0 0-3.608 11.51c-1.321 5.176-2.14 10.192-2.703 15.197-5.375-37.517-13.575-75.795-24.102-114.703l-45.58-15.992a353.543 353.543 0 0 1 3.656-9.834l46.317 16.246c74.321-40.783 133.27-101.049 178.697-179.016l-15.217-43.467c3.276-1.199 6.616-2.262 9.936-3.367zm-59.106 25.797c-42.717 54.097-89.554 101.45-140.957 141.283a355.806 355.806 0 0 1 15.783-26.066c35.04-29.41 67.882-62.53 98.682-99.111a356.189 356.189 0 0 1 26.492-16.106zm78.418 29.35 27.033 77.22c54.652 19.267 111.08 28.789 171.883 19.11l43.608-68.631c-84.71 9.626-164.435-6.016-242.524-27.7zm326.739 13.218c6.599 5.692 13.073 11.555 19.279 17.758 1.682 1.682 3.263 3.445 4.908 5.157 22.762 41.199 47.95 81.97 76.895 122.105a356.352 356.352 0 0 1 9.863 30.533c-43.826-57.404-79.819-116.1-110.945-175.553zm-76.356 21.678-43.52 68.49c19.79 62.467 50.39 109.467 90.288 143.598l81.12-9.326c-59.27-63.92-101.087-131.724-127.888-202.762zM362.93 292.29c11.775-.162 23.725.513 34.025 2.063 14.88 2.238 28.449 5.882 41.584 10.863a193.615 193.615 0 0 1 11.996 5.025c2.74 1.255 5.494 2.415 8.219 3.813 1.536.792 2.75 1.524 4.117 2.277 4 2.203 7.602 4.388 11.037 6.916 5.017 3.692 10.15 8.222 17.446 15.205 1.035.991 1.966 1.954 2.962 2.934l.002.002c5.461 5.366 10.356 10.594 14.84 15.869l.203.236c4.479 5.284 8.543 10.615 12.31 16.186l.007.004c3.502 5.177 6.78 10.583 9.926 16.347a253.064 253.064 0 0 1 5.35 10.323 252.31 252.31 0 0 1 6.3 13.898l.008.018c.025.06.043.123.068.183 5.782 13.927 10.196 28.42 13.984 46.711l.002-.004c1.446 6.981 2.8 14.728 4.102 23.03v.003c1.37 8.731 2.684 18.391 3.992 28.92.144 1.17.288 2.265.432 3.46 1.328 10.931 2.649 22.812 4.012 36.28.167 1.64.355 3.976.527 5.723.49 4.988.998 10.638 1.508 16.334l.006.078a3115.226 3115.226 0 0 1 3.084 37.01c.275 3.55.573 6.992.837 10.527h-.002c1.96 26.215 3.577 51.354 4.14 65.829.015.444.066 1.151.085 1.625h.002c.12 3.083.373 6.78.564 10.58h-.001c.302 5.999.565 11.908.89 16.703-52.95 29.786-113.078 45.924-174.92 45.924-6.468 0-12.912-.213-19.338-.56.074-6.891.559-19.561 1.118-30.272.632-11.753 1.069-24.213 1.384-36.834.097-3.862.154-7.669.221-11.559l.035-.014c.12-6.973.057-13.825.084-20.77.098-25.47-.309-50.205-1.44-70.978-.052-.966-.106-1.915-.156-2.9-.104-1.791-.183-3.758-.296-5.48-.391-5.93-.833-11.468-1.332-16.465-.995-10.128-2.433-21.075-3.916-30.762-1.798-11.738-3.668-21.55-4.983-24.838-.403-1.048 2.168-2.273 7.918-4.371.134-.049.227-.089.365-.139 1.294-.468 1.682-.695 3.416-1.29 2.661-.927 5.095-1.928 7.617-2.905a208.815 208.815 0 0 0 10.008-4.154c.288-.128.546-.25.828-.377 2.724-1.238 5.227-2.424 7.442-3.592 1.061-.552 1.85-1.04 2.775-1.565 1.438-.828 3.022-1.681 4.076-2.42.13-.089.22-.166.344-.253 1.477-1.066 2.625-2.048 3.11-2.834.537-.925.888-1.9 1.07-2.899.364-1.996.053-4.084-.774-6.049-1.24-2.947-3.646-5.617-6.695-7.281-2.033-1.11-4.35-1.771-6.8-1.771-1.7 0-6.8 1.8-11.5 3.9-.185.085-.43.173-.618.258-3.256 1.477-7.025 2.983-11.066 4.498-7.899 2.96-16.998 5.893-26.526 8.625l-.004.002a459.12 459.12 0 0 1-14.17 3.818l-.005.002a419.288 419.288 0 0 1-21.25 4.797c-.468.091-.908.163-1.371.252-6.606 1.273-12.842 2.29-18.19 2.848h-.002l-.015.002c-4.013.425-8.642.648-13.442.779-2.078.052-4.265.035-6.433.033-2.572.003-5.16-.022-7.81-.092a302.76 302.76 0 0 1-9.284-.4c-1.49-.086-2.947-.203-4.426-.31-3.727-.28-7.454-.578-11.016-.987l-.015-.002c-4.367-.502-8.718-1.026-12.557-1.723-.91-.164-2.181-.57-3.209-.81h-.002a85.313 85.313 0 0 1-3.36-.848c-3.097-.855-6.452-1.932-10.1-3.23v-.002c-4.282-1.524-8.82-3.311-13.37-5.242-.331-.143-.653-.263-.984-.407-4.72-2.028-9.458-4.23-13.975-6.56l-.002-.002a95.91 95.91 0 0 1-6.455-3.668h-.002c-1.392-.866-2.66-1.785-3.95-2.694-.6-.424-1.264-.824-1.843-1.257a68.926 68.926 0 0 1-5.115-4.221c-7.961-7.258-13.07-15.61-15.133-24.86-1.8-8-1.3-24 1-33 1.25-4.95 3.624-11.024 6.486-16.912v-.002a117.162 117.162 0 0 1 4.58-8.525c1.596-2.686 3.233-5.16 4.833-7.26v-.002c.068-.09.15-.176.218-.265a129.5 129.5 0 0 1 5.819-7.07c.382-.435.81-.859 1.2-1.292 1.848-2.04 3.741-4.07 5.759-6.068.244-.243.51-.479.755-.72 2.27-2.22 4.617-4.418 7.08-6.579l.022-.02a203.064 203.064 0 0 1 8.322-6.906l.008-.005a218.637 218.637 0 0 1 8.434-6.305c.235-.167.473-.333.71-.498l.323-.225c3.54-2.49 7.19-4.918 10.96-7.275l.036-.022c10.612-6.628 22.08-12.704 34.111-18.062.137-.06.276-.117.412-.178a296.052 296.052 0 0 1 10.993-4.598c.88-.348 1.769-.68 2.654-1.021a297.003 297.003 0 0 1 12.63-4.537 293.732 293.732 0 0 1 8.532-2.693c1.307-.392 2.61-.795 3.922-1.168 2.874-.82 5.767-1.57 8.664-2.3 1.243-.312 2.48-.653 3.727-.948 4.052-.961 8.119-1.847 12.195-2.62l.113-.023.026-.004c3.166-.593 6.606-1.069 10.144-1.484.79-.094 1.589-.18 2.393-.264 1.986-.207 4.066-.34 6.125-.494 4.673-.35 9.427-.65 14.289-.717zm2.709 5.059c9.195 37.199 25.073 53.93 49.345 62.464 23.61 8.303 56.285 8.286 96.842 8.745-6.735-8.894-14.426-17.4-23.93-26.493a5 5 0 0 0 0-.002c-13.883-13.288-19.093-17.198-31.423-23.56-19.043-9.765-38.138-15.879-60.262-19.207-9.185-1.382-19.904-1.977-30.572-1.947zm-309.116 40.31c13.985 70.256 18.447 138.036 20.301 205a356.509 356.509 0 0 1-11.467-32.012c-1.969-46.497-5.799-93.382-13.613-141.216 1.109-10.747 2.74-21.333 4.78-31.772zm170.045 3.145c-1.8.002-3.687.379-5.593 1.207-10.4 4.5-11.2 18.6-1.4 23.6 7.1 3.6 14.3 1.899 18-4.301 5.905-9.62-1.286-20.518-11.007-20.506zm69.494 8.896a13.103 13.103 0 0 0-7.287 1.91c-9.6 5.9-9.6 20.1 0 26 9.5 5.7 21.8-1.8 21.8-13.2 0-8.25-7.087-14.475-14.512-14.71zm-113.208 35.442c-4.9 7.868-9.749 18.298-11.551 25.435a5 5 0 0 1-.004.014c-1.991 7.791-2.408 24.25-.965 30.664a5 5 0 0 1 .002.01c2.911 13.056 12.687 24.397 29.912 33.345l.008.004.004.002c15.31 7.898 34.207 14.92 43.586 16.617a5 5 0 0 0 .002 0c7.851 1.424 17.38 2.351 26.994 2.918 1.823-34.004-3.412-55.145-16.848-70.76-13.585-15.787-36.79-26.693-71.14-38.25zm580.273 13.44c.06 2.67.197 5.333.197 8.01 0 5.637-.153 11.256-.418 16.86-27.34 59.914-46.556 121.79-62.09 184.637a356.305 356.305 0 0 1-15.996 21.564c18.277-78.656 41.578-156.353 78.307-231.072zm-618.772 58.925c2.785 7.103 6.78 13.615 11.674 19.54 1.259 23.974 1.246 47.653-.63 70.9l56.437-35.198a179.236 179.236 0 0 0 12.697 4.45l-65.066 40.577c71.86 29.694 142.698 65.07 205.734 127.842-.28 15.656-.765 31.107-1.537 45.447v.043c-.522 10.01-.975 21.101-1.12 29.245-1.57-.199-3.148-.37-4.716-.586l6.748-59.987c-65.285-67.756-139.568-104.005-216.006-135.205l-45.908 28.627a356.198 356.198 0 0 1-5.346-9.031l47.125-29.39c3.083-31.59 2.768-64.09-.086-97.274zm273.756 37.156c.023-.098-1.098-.145-1.681.055-.018.006-.055.023-.073.03.337-.038 1.741-.052 1.754-.085zm-160.535 28.734c9.82 1.002 19.902 1.406 29.707 1.395 26.619 12.818 51.978 30.118 75.621 53.168.389 4.873.734 10.118 1.035 15.791-32.462-34.209-68.157-56.48-106.363-70.354zM127.723 628.873c75.633 38.074 150.223 77.037 206.92 126.945-7.592-1.562-15.102-3.429-22.557-5.476-47.318-37.788-105.75-69.669-166.3-100.56a356.562 356.562 0 0 1-18.063-20.909zm511.283 48.1c-5.627 4.832-11.366 9.505-17.256 13.959-5.4 1.134-10.767 2.552-16.156 3.779-.114-2.464-.314-5.286-.385-7.215v-.057c-.035-.895-.142-2.469-.184-3.433 11.303-2.553 22.625-4.94 33.98-7.033z" fill="#222"/></svg>
