<svg width="401" height="352" viewBox="0 0 401 352" fill="none" xmlns="http://www.w3.org/2000/svg">
<rect x="0.866044" width="175.665" height="175.665" transform="matrix(0.866044 -0.499967 0.866044 0.499967 59.116 220.888)" stroke="black" stroke-linejoin="round" stroke-dasharray="6 6"/>
<rect x="3.46418" width="172.665" height="172.665" transform="matrix(0.866044 -0.499967 0.866044 0.499967 59.464 202.059)" stroke="black" stroke-width="0.5" stroke-linejoin="round"/>
<rect x="0.866044" width="175.665" height="175.665" transform="matrix(0.866044 -0.499967 0.866044 0.499967 59.116 241.016)" stroke="black" stroke-linejoin="round"/>
<rect x="0.866044" width="117.354" height="117.354" transform="matrix(0.866044 -0.499967 0.866044 0.499967 0.116012 99.6063)" fill="#FFDA55" stroke="black" stroke-linejoin="round"/>
<rect x="0.866044" width="117.354" height="117.354" transform="matrix(0.866044 -0.499967 0.866044 0.499967 0.116012 79.6063)" stroke="black" stroke-width="0.75" stroke-linejoin="round"/>
<rect x="0.866044" width="117.354" height="117.354" transform="matrix(0.866044 -0.499967 0.866044 0.499967 0.116012 86.9755)" stroke="black" stroke-width="0.75" stroke-linejoin="round"/>
<rect x="0.866044" width="117.354" height="117.354" transform="matrix(0.866044 -0.499967 0.866044 0.499967 0.116012 59.6063)" stroke="black" stroke-width="0.75" stroke-linejoin="round"/>
<rect x="0.866044" width="117.354" height="117.354" transform="matrix(0.866044 -0.499967 0.866044 0.499967 0.116012 66.9755)" stroke="black" stroke-width="0.75" stroke-linejoin="round"/>
<rect x="0.866044" width="69.4352" height="69.4352" transform="matrix(0.866044 -0.499967 0.866044 0.499967 279.116 317.117)" stroke="black" stroke-linejoin="round"/>
<rect x="0.866044" width="69.4352" height="69.4352" transform="matrix(0.866044 -0.499967 0.866044 0.499967 279.116 297.102)" stroke="#F9C200" stroke-linejoin="round"/>
<rect x="0.866044" width="69.4352" height="69.4352" transform="matrix(0.866044 -0.499967 0.866044 0.499967 279.116 276.648)" fill="white" stroke="black" stroke-linejoin="round"/>
</svg>
