<svg height="813" width="813" viewBox="0 0 8130 8130" xmlns="http://www.w3.org/2000/svg" fill="#222"><path d="M3746 2l-135 14a4094 4094 0 00-2180 939c-116 96-380 360-476 476A4087 4087 0 0019 3574c-25 183-25 801 0 984a4087 4087 0 00936 2143c96 116 360 380 476 476a4087 4087 0 002143 936c183 25 801 25 984 0a4087 4087 0 002143-936c116-96 380-360 476-476a4087 4087 0 00936-2143c25-183 25-801 0-984a4087 4087 0 00-936-2143c-96-116-360-380-476-476A4090 4090 0 004564 20c-88-12-216-17-453-19-181-2-346-1-365 1zm50 432c0 117 8 371 19 612l16 375c11 312 44 1131 49 1204l5 73-45-5c-25-2-48-8-52-11-3-4-10-73-14-154-18-356-77-1737-83-1939l-6-222 28-4 56-6 27-1zm957-24l7 671c4 369 9 700 12 736 3 37 2 69-3 71-4 3-29 3-54 0l-46-4-7-291-11-397c-8-177-15-778-9-793 4-11 15-12 57-5l54 12zM2440 745c6 9 53 560 111 1281 19 245 38 469 41 497 5 51 4 53-28 73-18 11-36 20-40 20-3 0-9-26-12-58-14-130-68-758-106-1212l-45-532c-5-44-4-48 22-62 32-17 50-20 57-7zm2753 201c28 10 31 15 37 72 10 100 7 578-4 578-29 0-89-34-94-53-3-12-6-154-6-315 0-325-4-306 67-282zm-1847 47c0 27 7 176 15 333l21 442c7 174 9 168-58 172-33 1-33 1-35-49l-13-195-25-385c-8-132-18-263-21-291-6-50-5-52 22-62 16-6 44-11 62-11 32-1 32-1 32 46zm2774 137l34 14 7 134c3 73 5 231 3 350l-3 218-42-21-42-20-3-332c-2-183-1-338 1-345 4-15 4-15 45 2zm-1826 131c6 6 20 491 21 737l1 148-47-7-50-7c-3-2-33-743-33-815v-74l51 6c29 4 54 9 57 12zm2303 71c12 14 14 233 17 1441 3 1387 3 1423-15 1423-11 0-26-6-35-13-15-11-17-132-22-1317-4-718-9-1370-12-1449l-6-144 29 21c17 12 36 29 44 38zm-897 205c5 4 10 61 11 126 5 221 6 1576 1 1580-2 2-20-3-40-11l-36-15V1516l28 6c15 4 31 10 36 15zm-2760 56l11 138 16 248c12 176 10 187-47 187-30 0-34-3-38-33-10-59-45-551-40-559 5-7 57-25 81-27 6-1 14 20 17 46zm-1654 255a94387 94387 0 0180 804c0 12-77 50-85 42-5-5-105-890-105-930 0-24 77-125 87-114 3 2 13 91 23 198zm3921 105l29 17 1 216 3 293c2 90-9 105-63 86l-31-11v-86c0-48-3-187-7-310l-6-222h23c12 0 35 8 51 17zm-3482 388l66 720 34 370-39 39-38 39-7-79-45-454-66-664-28-288 39-36c35-33 39-34 46-16 4 10 21 176 38 369zm-749 121l130 1164 106 950 30 270c14 117 14 125-2 137-24 18-34 16-34-5a392153 392153 0 01-195-1522l-65-500-60-473c-18-136-29-257-26-270 7-27 66-121 72-115 2 3 22 166 44 364zm-306 431l62 488 54 410 19 140-21 18c-12 10-24 14-28 10s-12-44-18-88l-83-570-71-490 23-68c12-37 25-67 28-67 4 0 19 98 35 217zm5490-131c14 14 16 76 16 535v519h-28c-61 0-60 15-64-553l-3-517h32c17 0 39 7 47 16zm-2189 179c226 34 423 97 618 197 126 65 186 110 326 244 208 199 336 373 456 619 175 358 243 675 329 1525a29733 29733 0 01117 1655c11 176 24 152-131 227a3346 3346 0 01-695 243c-334 82-550 108-880 109l-240 1 2-115c0-63 6-210 12-325 30-557 24-1260-15-1650-22-224-65-496-89-556-5-13 18-24 117-58 181-63 338-142 362-181 43-74-34-180-132-180-17 0-68 18-115 39a3780 3780 0 01-932 251c-179 19-457 8-650-27-105-19-293-90-450-171-181-94-292-219-325-367-18-80-13-240 10-330 25-99 95-243 159-327 285-375 873-700 1476-814 192-36 464-40 670-9zm3085 31c36 15 40 19 40 53 2 273-4 897-9 923-1 9-53 10-75 2-14-5-16-59-16-500 0-316 4-494 10-494 5 0 28 7 50 16zm437 549l36 15-7 828c-8 1055-9 1086-47 1177-62 149-59 179-53-475 2-327 7-658 9-735s4-294 5-483c0-228 3-342 10-342 6 0 27 7 47 15zm-6014 249c6 81 4 89-25 153l-32 68-12-100c-19-160-19-167 19-191 17-12 35-20 38-18s9 42 12 88zm-618 603c9 82 79 626 115 893 54 413 58 472 34 447-3-3-26-142-50-309-156-1078-155-1071-142-1079 27-18 36-8 43 48zm720 458c6 25 35 296 35 329 0 28-36 54-52 38-5-5-18-90-28-188l-25-229-6-50 35 40c20 22 38 49 41 60zm807 377c11 10 18 50 27 158 15 195 17 180-24 180-42 0-41 3-55-173-14-179-14-177 13-177 13 0 30 6 39 12zm792 15c2 10 7 70 11 133 3 63 12 205 20 315 28 404 29 455 12 455-19 0-21-15-43-300-8-118-23-304-33-413-9-109-15-200-12-202 11-12 40-3 45 12zm-1880 192c6 9 44 329 91 766l31 283 5 43-25-16c-19-13-26-26-26-49 0-63-43-478-76-732-19-144-34-271-34-283 0-21 24-29 34-12zm5771 418l-7 418-25 37c-57 84-54 100-51-368l2-429 37-38c20-20 40-37 44-37 3 0 3 188 0 417zm-925 663c5 581 4 626-12 644-10 11-19 18-22 15-7-8-17-1275-9-1282 4-4 14-6 23-5 13 3 16 74 20 628zm-3266-398c7 62 32 359 42 499 6 94 6 97-16 104-12 4-26 3-30-2-7-7-29-229-56-571l-7-82h31c29 0 31 2 36 52zm-786 350c7 7 12 32 12 57 0 26 12 161 25 301 38 383 41 435 24 425-26-15-49-38-44-44 2-4-2-54-10-111-7-58-16-152-20-210s-13-164-21-235c-19-175-18-195 4-195 10 0 23 5 30 12zm473 673c3 22 9 104 13 182 7 150 4 161-37 130-12-9-20-47-32-161-21-206-22-198 17-194 29 3 33 7 39 43z"/><path d="M2210 3420c-104 45-112 186-14 236 71 36 143 19 180-43 70-114-44-246-166-193zm678 96c-96 59-96 201 0 260 95 57 218-18 218-132 0-110-126-184-218-128z"/></svg>