<svg xmlns="http://www.w3.org/2000/svg" width="1048" height="617" fill="none"><g clip-path="url(#a)"><path fill="#000059" d="M192.7 32.4a15 15 0 0 1-3.8-.5c-1.3-.3-2.4-.8-3.4-1.5a7.4 7.4 0 0 1-3.7-5.9h5.4c.2.9.5 1.5 1 2a5 5 0 0 0 2 1.3 8.4 8.4 0 0 0 5.1 0c.8-.2 1.4-.5 1.9-1 .4-.5.7-1.1.7-1.9 0-.9-.4-1.5-1-2-.7-.4-1.5-.8-2.7-1l-4.8-1.1a12 12 0 0 1-3.7-1.3c-1-.7-1.8-1.4-2.3-2.4-.6-1-.8-2.2-.8-3.6 0-1.6.4-3 1.3-4.2.9-1.2 2.1-2 3.6-2.7 1.6-.6 3.3-1 5.2-1 2.2 0 4 .4 5.5 1.1a8 8 0 0 1 3.5 2.9 7.1 7.1 0 0 1 1.2 4h-5.3a4 4 0 0 0-.8-2.2c-.5-.6-1-1-1.8-1.2-.7-.3-1.5-.4-2.4-.4-1.6 0-2.7.3-3.4 1-.8.6-1.1 1.3-1.1 2.2 0 .8.3 1.4.8 1.9s1.4.8 2.6 1.1l4.6 1c1.6.3 3 .8 4 1.5s1.8 1.6 2.3 2.6a7.6 7.6 0 0 1-.6 7.5 8.8 8.8 0 0 1-3.7 2.8c-1.6.6-3.4 1-5.4 1Zm19.8 0c-1.2 0-2.3-.3-3.2-.7-1-.4-1.7-1-2.3-2-.6-.8-.8-1.8-.8-3 0-2 .7-3.6 2.3-4.7 1.5-1 3.9-1.6 7.2-1.6h2.3v-1.2c0-.8-.2-1.5-.7-2-.5-.4-1.3-.6-2.4-.6a5 5 0 0 0-2.1.5c-.7.4-1.2 1-1.5 1.8H207c0-1.3.4-2.4 1.1-3.3.8-.9 1.7-1.5 3-2 1.1-.4 2.5-.6 4-.6 2 0 3.5.3 4.7.7 1.1.5 2 1.2 2.5 2 .5 1 .8 2 .8 3.2V32h-4.4l-.5-3.2a5.8 5.8 0 0 1-2.4 2.8 7 7 0 0 1-3.3.8Zm1.7-3.5c.5 0 1 0 1.4-.2.5-.2.9-.5 1.2-.8.4-.3.7-.6.9-1 .2-.3.3-.7.3-1.1V23h-1.9c-.8 0-1.7.2-2.4.4a4 4 0 0 0-1.9 1c-.4.4-.6 1-.6 1.8s.3 1.5.8 2c.6.5 1.4.7 2.2.7Zm15 3.1V17h-3.5v-3.6h3.4v-2.7c0-1.5.5-2.7 1.4-3.5.8-.8 2-1.2 3.7-1.2h4.3v3.5H236c-.6 0-1 .1-1.3.5-.3.3-.4.8-.4 1.6v1.8h4V17h-3.9v15h-5.3Zm18.1.4c-1.2 0-2.2-.3-3.2-.7-1-.4-1.7-1-2.3-2-.5-.8-.8-1.8-.8-3 0-2 .8-3.6 2.3-4.7 1.5-1 4-1.6 7.2-1.6h2.4v-1.2c0-.8-.3-1.5-.8-2-.5-.4-1.3-.6-2.3-.6a5 5 0 0 0-2.2.5c-.7.4-1.2 1-1.4 1.8h-4.4c0-1.3.5-2.4 1.2-3.3.7-.9 1.7-1.5 2.9-2 1.2-.4 2.6-.6 4.1-.6 2 0 3.5.3 4.6.7 1.2.5 2 1.2 2.5 2 .5 1 .8 2 .8 3.2V32h-4.4l-.4-3.2a5.8 5.8 0 0 1-2.4 2.8 7 7 0 0 1-3.4.8Zm1.8-3.5c.4 0 .9 0 1.3-.2l1.3-.8.8-1 .4-1.1V23h-2c-.8 0-1.6.2-2.4.4a4 4 0 0 0-1.8 1c-.5.4-.7 1-.7 1.8s.3 1.5.9 2c.6.5 1.3.7 2.2.7Zm13 3.1V13.4h5.1v4.4a8 8 0 0 1 1.3-2.5A5.8 5.8 0 0 1 273 13a2.9 2.9 0 0 1 .8.1v5h-.8c-1-.2-1.9-.1-2.6 0-.7.1-1.3.4-1.8.7a3 3 0 0 0-1 1.3c-.2.5-.3 1-.3 1.7V32h-5.2Zm15 0V13.4h5V32h-5Zm-.1-21.3V6h5.1v4.7H277ZM434.5 32.4c-2.4 0-4.5-.6-6.3-1.7a11 11 0 0 1-4-4.8c-1-2-1.5-4.4-1.5-7.1 0-2.8.5-5.1 1.4-7 1-2 2.4-3.5 4.1-4.6a12 12 0 0 1 6.3-1.6c2 0 3.7.4 5.2 1.2a9.8 9.8 0 0 1 5.4 7.8h-5.5c-.2-1-.5-1.7-1-2.4-.4-.7-1-1.3-1.7-1.7-.7-.4-1.5-.6-2.5-.6-1.3 0-2.3.3-3.2 1-.9.5-1.5 1.4-2 2.8-.5 1.3-.7 3-.7 5.1 0 3.3.5 5.6 1.6 7a5 5 0 0 0 4.3 2.2 4.7 4.7 0 0 0 4.3-2.5c.4-.7.7-1.6 1-2.5h5.4c-.1 1.2-.4 2.4-.9 3.5-.4 1.2-1 2.2-1.9 3-.8 1-1.8 1.6-3.1 2.1s-2.9.8-4.7.8Zm14.6-.4V5.3h5.2V16l1.1-1.3c.5-.4 1-.8 1.8-1 .6-.4 1.5-.5 2.5-.5 1.1 0 2.2.2 3.2.7 1 .4 1.8 1.1 2.4 2 .6.9.9 2 .9 3.2V32h-5.3V20c0-.9-.3-1.5-1-2-.5-.4-1.3-.7-2.1-.7-.6 0-1.1.1-1.7.4a3 3 0 0 0-1.3.9c-.3.4-.5 1-.5 1.5V32h-5.2Zm21.3 0V13.4h5v4.4a8 8 0 0 1 1.3-2.5 5.8 5.8 0 0 1 4.7-2.3 2.9 2.9 0 0 1 .8.1v5h-.8c-1-.2-1.9-.1-2.6 0-.8.1-1.4.4-1.8.7a3 3 0 0 0-1 1.3c-.2.5-.3 1-.3 1.7V32h-5.3Zm23 .4c-1.9 0-3.5-.4-4.8-1.2a8 8 0 0 1-3.2-3.3 11 11 0 0 1-1-5.1c0-2 .3-3.7 1-5.1a8.3 8.3 0 0 1 8-4.7c1.8 0 3.4.4 4.7 1.2a8 8 0 0 1 3.1 3.4c.8 1.5 1.1 3.2 1.1 5.2a11 11 0 0 1-1 5 8 8 0 0 1-3.1 3.3c-1.3.9-3 1.3-4.9 1.3Zm0-4a3 3 0 0 0 2.2-.8c.6-.5 1-1.2 1.2-2a11 11 0 0 0 0-5.7c-.2-1-.6-1.7-1.1-2.2-.6-.5-1.4-.8-2.3-.8-1 0-1.7.3-2.3.8-.5.5-1 1.2-1.2 2a10.9 10.9 0 0 0 0 5.7c.2 1 .6 1.6 1.1 2.2.6.6 1.4.9 2.4.9Zm12.5 3.6V13.4h5.2V16c.5-.8 1.3-1.5 2.3-2a6.8 6.8 0 0 1 7.4.4c.6.4 1 1 1.4 1.6.6-.8 1.4-1.5 2.3-2.1 1-.6 2.1-.9 3.3-.9.7 0 1.4.1 2.1.4.8.2 1.4.6 2 1 .6.6 1 1.3 1.5 2.2.3.8.5 1.9.5 3.1V32h-5.2V20.4c0-.8-.2-1.4-.5-1.8-.3-.5-.7-.8-1.1-1l-1.4-.3-1.5.3-1.2.9c-.3.4-.5 1-.5 1.6V32h-5.2V19.9c0-.6-.2-1-.5-1.4-.3-.4-.6-.7-1.1-.9l-1.4-.3c-.5 0-1 .1-1.4.3-.5.2-.9.5-1.2 1-.3.3-.5.9-.5 1.5V32h-5.3Zm40.8.4a10 10 0 0 1-4.9-1.2 8.3 8.3 0 0 1-3.2-3.3c-.8-1.4-1.2-3-1.2-5 0-1.8.4-3.5 1-5a8.5 8.5 0 0 1 3.2-3.6c1.3-.8 3-1.3 4.9-1.3 1.9 0 3.4.4 4.7 1.2 1.3.8 2.3 2 3 3.4.6 1.4 1 3 1 4.9v1.4h-12.6c0 1 .2 1.8.5 2.5s.8 1.2 1.3 1.6a4 4 0 0 0 2.2.6c.9 0 1.7-.2 2.4-.6.6-.4 1.1-1 1.4-1.9h4.7a6.5 6.5 0 0 1-1.6 3.4c-.8 1-1.8 1.6-3 2.1s-2.5.8-3.8.8Zm-4-11.6h7.5c0-.8-.1-1.5-.4-2-.3-.7-.7-1.2-1.3-1.6-.5-.3-1.2-.5-2-.5-.9 0-1.6.2-2.1.6a4 4 0 0 0-1.3 1.5c-.3.6-.5 1.3-.5 2ZM704 32V6h3.2a167.7 167.7 0 0 1 4.5 0c3.1 0 5.7.6 7.7 1.7 2 1 3.5 2.5 4.4 4.4a15 15 0 0 1 1.4 6.8c0 2.7-.5 5-1.5 7s-2.5 3.4-4.5 4.5c-2 1-4.6 1.6-7.7 1.6H704Zm5.2-4.2h2.4c1.5 0 2.9-.3 4-1a6.5 6.5 0 0 0 3-2.7c.7-1.3 1.1-3 1.1-5.3 0-2-.3-3.6-1-5a6 6 0 0 0-2.7-2.7 9.6 9.6 0 0 0-4.3-.9h-2.5v17.6Zm28.5 4.6a10 10 0 0 1-4.9-1.2 8.3 8.3 0 0 1-3.2-3.3c-.8-1.4-1.2-3-1.2-5 0-1.8.4-3.5 1-5a8.5 8.5 0 0 1 3.2-3.6c1.3-.8 3-1.3 4.8-1.3 2 0 3.5.4 4.8 1.2 1.3.8 2.3 2 3 3.4.6 1.4 1 3 1 4.9v1.4h-12.6c0 1 .2 1.8.5 2.5s.7 1.2 1.3 1.6a4 4 0 0 0 2.2.6c.9 0 1.7-.2 2.3-.6.7-.4 1.2-1 1.5-1.9h4.7a6.5 6.5 0 0 1-1.6 3.4c-.8 1-1.8 1.6-3 2.1s-2.5.8-3.8.8Zm-4-11.6h7.5c0-.8-.1-1.5-.4-2-.3-.7-.7-1.2-1.3-1.6-.5-.3-1.2-.5-2-.5-.9 0-1.6.2-2.1.6a4 4 0 0 0-1.4 1.5c-.3.6-.4 1.3-.4 2ZM749.8 32V13.4h5.2V16l1-1.3c.6-.4 1.1-.8 1.8-1a7 7 0 0 1 2.6-.5c1.1 0 2.2.2 3.2.7 1 .4 1.8 1.1 2.4 2.1.6 1 .9 2.2.9 3.7V32h-5.3V20.4c0-1-.3-1.8-.9-2.3-.6-.5-1.3-.8-2.2-.8-.5 0-1.1.1-1.6.4a3 3 0 0 0-1.3.9c-.4.4-.5.9-.5 1.5V32h-5.3Zm29.5.4c-1.9 0-3.5-.4-4.8-1.2a8 8 0 0 1-3.1-3.3 11 11 0 0 1-1.1-5.1c0-2 .3-3.7 1-5.1a8.3 8.3 0 0 1 8-4.7c1.8 0 3.4.4 4.7 1.2a8 8 0 0 1 3.2 3.4c.7 1.5 1 3.2 1 5.2a11 11 0 0 1-1 5 8 8 0 0 1-3.1 3.3c-1.3.9-3 1.3-4.8 1.3Zm0-4a3 3 0 0 0 2.2-.8c.6-.5 1-1.2 1.2-2a11 11 0 0 0 0-5.7c-.2-1-.6-1.7-1.1-2.2-.6-.5-1.4-.8-2.3-.8-1 0-1.7.3-2.3.8-.5.5-1 1.2-1.2 2a10.9 10.9 0 0 0 0 5.7c.2 1 .6 1.6 1.2 2.2.5.6 1.3.9 2.3.9ZM959 32V6h5.1L976 23.2V6h5.3v26h-4.8l-12.3-18v18h-5.3Zm35 .4c-1.8 0-3.4-.4-4.7-1.2a8 8 0 0 1-3.2-3.3 11 11 0 0 1-1-5.1c0-2 .3-3.7 1-5.1a8.3 8.3 0 0 1 8-4.7c1.8 0 3.4.4 4.7 1.2a8 8 0 0 1 3.1 3.4c.8 1.5 1.1 3.2 1.1 5.2a11 11 0 0 1-1 5 8 8 0 0 1-3.1 3.3c-1.4.9-3 1.3-4.9 1.3Zm0-4a3 3 0 0 0 2.3-.8c.6-.5 1-1.2 1.2-2a11 11 0 0 0 0-5.7c-.2-1-.6-1.7-1.1-2.2-.6-.5-1.4-.8-2.3-.8-1 0-1.7.3-2.3.8-.6.5-1 1.2-1.2 2a10.9 10.9 0 0 0 0 5.7c.2 1 .6 1.6 1.1 2.2.6.6 1.4.9 2.4.9Zm19.7 4a7 7 0 0 1-5.9-2.6c-1.4-1.7-2-4.1-2-7.2 0-2 .2-3.6.8-5a7.1 7.1 0 0 1 2.5-3.4 6.8 6.8 0 0 1 4-1.2 7.1 7.1 0 0 1 4.8 1.8l.9 1.1V5.3h5.2V32h-3.8l-.6-3.8-.7 1.5c-.3.5-.7 1-1.1 1.3-.5.4-1 .8-1.8 1a7 7 0 0 1-2.3.4Zm1.1-3.8c1.3 0 2.3-.5 3-1.4.6-1 1-2.5 1-4.7a10 10 0 0 0-.5-3.2c-.3-.8-.7-1.4-1.3-1.8-.5-.4-1.3-.7-2.1-.7-1.2 0-2.1.5-2.9 1.4-.8.8-1.1 2.3-1.1 4.3s.3 3.6 1 4.6c.7 1 1.7 1.5 3 1.5Zm22.3 3.8a10 10 0 0 1-4.9-1.2 8.3 8.3 0 0 1-3.3-3.3c-.7-1.4-1.1-3-1.1-5 0-1.8.3-3.5 1-5a8.5 8.5 0 0 1 3.1-3.6c1.4-.8 3-1.3 5-1.3 1.8 0 3.4.4 4.7 1.2 1.3.8 2.2 2 2.9 3.4.7 1.4 1 3 1 4.9v1.4H1033c0 1 .1 1.8.4 2.5.3.7.8 1.2 1.4 1.6a4 4 0 0 0 2.2.6c.8 0 1.6-.2 2.3-.6.7-.4 1.2-1 1.4-1.9h4.8a6.6 6.6 0 0 1-1.6 3.4c-.9 1-1.9 1.6-3 2.1-1.3.5-2.5.8-3.8.8Zm-4.1-11.6h7.6c0-.8-.2-1.5-.5-2-.2-.7-.7-1.2-1.2-1.6-.6-.3-1.3-.5-2.1-.5s-1.5.2-2 .6a4 4 0 0 0-1.4 1.5c-.3.6-.4 1.3-.4 2Z"/><rect width="782" height="14" x="227" y="88" fill="url(#b)" rx="7"/><g filter="url(#c)"><circle cx="229.5" cy="94.5" r="14.5" fill="#fff"/></g><g filter="url(#d)"><circle cx="486.5" cy="94.5" r="14.5" fill="#fff"/></g><g filter="url(#e)"><circle cx="743.5" cy="94.5" r="14.5" fill="#fff"/></g><g filter="url(#f)"><circle cx="1000.5" cy="94.5" r="14.5" fill="#fff"/></g><rect width="782" height="14" x="227" y="151" fill="url(#g)" rx="7"/><g filter="url(#h)"><circle cx="229.5" cy="157.5" r="14.5" fill="#fff"/></g><g filter="url(#i)"><circle cx="486.5" cy="157.5" r="14.5" fill="#fff"/></g><g filter="url(#j)"><circle cx="743.5" cy="157.5" r="14.5" fill="#fff"/></g><g filter="url(#k)"><circle cx="1000.5" cy="157.5" r="14.5" fill="#fff"/></g><rect width="782" height="14" x="227" y="214" fill="url(#l)" rx="7"/><rect width="258" height="14" x="751" y="214" fill="#CCE6FF" rx="7"/><g filter="url(#m)"><circle cx="229.5" cy="220.5" r="14.5" fill="#fff"/></g><g filter="url(#n)"><circle cx="486.5" cy="220.5" r="14.5" fill="#fff"/></g><g filter="url(#o)"><circle cx="743.5" cy="220.5" r="14.5" fill="#fff"/></g><rect width="782" height="14" x="227" y="277" fill="url(#p)" rx="7"/><rect width="258" height="14" x="227" y="277" fill="#CCE6FF" rx="7"/><rect width="258" height="14" x="751" y="277" fill="#CCE6FF" rx="7"/><g filter="url(#q)"><circle cx="486.5" cy="283.5" r="14.5" fill="#fff"/></g><g filter="url(#r)"><circle cx="743.5" cy="283.5" r="14.5" fill="#fff"/></g><rect width="782" height="14" x="227" y="340" fill="url(#s)" rx="7"/><g filter="url(#t)"><circle cx="229.5" cy="346.5" r="14.5" fill="#fff"/></g><g filter="url(#u)"><circle cx="486.5" cy="346.5" r="14.5" fill="#fff"/></g><g filter="url(#v)"><circle cx="743.5" cy="346.5" r="14.5" fill="#fff"/></g><g filter="url(#w)"><circle cx="1000.5" cy="346.5" r="14.5" fill="#fff"/></g><rect width="782" height="14" x="227" y="403" fill="url(#x)" rx="7"/><rect width="258" height="14" x="751" y="403" fill="#CCE6FF" rx="7"/><g filter="url(#y)"><circle cx="229.5" cy="409.5" r="14.5" fill="#fff"/></g><g filter="url(#z)"><circle cx="486.5" cy="409.5" r="14.5" fill="#fff"/></g><g filter="url(#A)"><circle cx="743.5" cy="409.5" r="14.5" fill="#fff"/></g><rect width="782" height="14" x="227" y="466" fill="url(#B)" rx="7"/><rect width="258" height="14" x="751" y="466" fill="#CCE6FF" rx="7"/><g filter="url(#C)"><circle cx="229.5" cy="472.5" r="14.5" fill="#fff"/></g><g filter="url(#D)"><circle cx="486.5" cy="472.5" r="14.5" fill="#fff"/></g><g filter="url(#E)"><circle cx="743.5" cy="472.5" r="14.5" fill="#fff"/></g><rect width="782" height="14" x="227" y="529" fill="url(#F)" rx="7"/><rect width="258" height="14" x="751" y="529" fill="#CCE6FF" rx="7"/><g filter="url(#G)"><circle cx="229.5" cy="535.5" r="14.5" fill="#fff"/></g><g filter="url(#H)"><circle cx="486.5" cy="535.5" r="14.5" fill="#fff"/></g><g filter="url(#I)"><circle cx="743.5" cy="535.5" r="14.5" fill="#fff"/></g><rect width="782" height="14" x="227" y="592" fill="url(#J)" rx="7"/><rect width="258" height="14" x="751" y="592" fill="#CCE6FF" rx="7"/><g filter="url(#K)"><circle cx="229.5" cy="598.5" r="14.5" fill="#fff"/></g><g filter="url(#L)"><circle cx="486.5" cy="598.5" r="14.5" fill="#fff"/></g><g filter="url(#M)"><circle cx="743.5" cy="598.5" r="14.5" fill="#fff"/></g><path fill="#0E0E62" d="m25.5 103-5.4-18.8h2.8l4 14.3 4-14.3H33l4 14.3 4-14.3h2.8L38.3 103H36l-4-14-4 14h-2.4Zm25.4.3c-1.3 0-2.4-.3-3.4-.9-1-.5-1.7-1.3-2.3-2.3-.5-1-.8-2.3-.8-3.7 0-1.4.3-2.6.7-3.7.5-1 1.3-1.9 2.2-2.5 1-.6 2-.9 3.4-.9a6 6 0 0 1 3.2.8c1 .6 1.6 1.4 2 2.4.5 1 .8 2.1.8 3.5v1h-9.5c0 .7.1 1.5.4 2.1.3.6.7 1.1 1.2 1.5.5.4 1.2.6 2 .6s1.5-.2 2-.6c.7-.4 1-.9 1.2-1.6h2.6c-.2.9-.5 1.7-1.1 2.3-.6.7-1.3 1.2-2.1 1.5-.8.3-1.7.5-2.5.5ZM47.2 95H54c0-.7-.1-1.3-.4-1.9a3 3 0 0 0-1-1.4c-.6-.3-1.2-.5-2-.5a3.2 3.2 0 0 0-3 2c-.3.6-.4 1.2-.4 1.8Zm19.5 8.2c-.7 0-1.4-.1-2-.3a4 4 0 0 1-2-1.8l-.5-1-.3 2.8h-2V83.7h2.7v7.9a4 4 0 0 1 1.5-1.5 5.1 5.1 0 0 1 2.8-.8c1.7 0 3 .6 4 1.8 1 1.1 1.5 2.9 1.5 5.1a10 10 0 0 1-.6 3.7c-.5 1-1.1 1.9-2 2.5-.8.6-1.8.9-3 .9Zm-.5-2.1a3 3 0 0 0 2.5-1.2c.6-.8 1-2.1 1-3.9 0-1.5-.4-2.7-1-3.5a3 3 0 0 0-2.6-1.2 3 3 0 0 0-3.1 2.1c-.2.8-.4 1.6-.4 2.6 0 1.8.3 3.1.9 3.9.5.8 1.4 1.2 2.7 1.2Zm8.3 1.8 6.8-18.8h3l6.8 18.8h-2.8l-1.7-5H79l-1.8 5h-2.8Zm5.3-7.4h6l-3-8.7-3 8.7Zm18.8 7.7c-.9 0-1.8-.2-2.6-.5s-1.5-.7-2-1.4c-.6-.6-1-1.4-1-2.4h2.4c.1.5.3 1 .6 1.3l1.2.7c.4.2 1 .2 1.4.2.9 0 1.6-.1 2-.4.6-.3.9-.8.9-1.4 0-.5-.2-.9-.5-1.1-.2-.3-.7-.5-1.3-.7L97 97c-1-.3-2-.7-2.6-1.2a3 3 0 0 1-1-2.4c0-.8.1-1.5.5-2.1a4 4 0 0 1 1.8-1.5 7 7 0 0 1 3-.5 6 6 0 0 1 3.6 1c.9.7 1.4 1.7 1.4 3h-2.4a2 2 0 0 0-.8-1.5 3 3 0 0 0-2-.5c-.7 0-1.4.1-1.9.5-.5.3-.7.7-.7 1.4 0 .4.1.8.5 1 .4.3 1 .5 1.7.7l2.5.6 1.7.7 1 1 .5 1 .1 1a3.7 3.7 0 0 1-2.4 3.6c-.8.3-1.8.5-2.9.5Zm13.3 0c-1 0-1.8-.2-2.7-.5-.8-.3-1.5-.7-2-1.4-.6-.6-.9-1.4-1-2.4h2.4c.2.5.4 1 .7 1.3l1.1.7c.5.2 1 .2 1.5.2.8 0 1.5-.1 2-.4.6-.3.8-.8.8-1.4 0-.5-.1-.9-.4-1.1-.3-.3-.7-.5-1.3-.7l-2.7-.6c-1.1-.3-2-.7-2.7-1.2a3 3 0 0 1-1-2.4c0-.8.2-1.5.6-2.1a4 4 0 0 1 1.8-1.5 7 7 0 0 1 2.9-.5 6 6 0 0 1 3.6 1c1 .7 1.4 1.7 1.5 3h-2.4a2 2 0 0 0-.9-1.5 3 3 0 0 0-1.9-.5c-.8 0-1.4.1-2 .5-.4.3-.7.7-.7 1.4 0 .4.2.8.6 1 .4.3 1 .5 1.7.7l2.5.6c.7.2 1.2.4 1.6.7.5.3.8.6 1 1 .3.3.4.6.5 1l.2 1a3.7 3.7 0 0 1-2.5 3.6c-.8.3-1.7.5-2.8.5Zm14.1 0c-1.3 0-2.4-.3-3.4-.9-1-.5-1.7-1.3-2.2-2.3-.6-1-.8-2.3-.8-3.7 0-1.4.2-2.6.7-3.7.5-1 1.2-1.9 2.1-2.5 1-.6 2.1-.9 3.4-.9a6 6 0 0 1 3.3.8c.9.6 1.6 1.4 2 2.4.5 1 .7 2.1.7 3.5v1h-9.4c0 .7 0 1.5.3 2.1.3.6.7 1.1 1.2 1.5.6.4 1.2.6 2 .6.9 0 1.5-.2 2.1-.6.6-.4 1-.9 1.2-1.6h2.6c-.2.9-.6 1.7-1.1 2.3-.6.7-1.3 1.2-2.1 1.5-.9.3-1.7.5-2.6.5Zm-3.6-8.2h6.8c0-.7-.2-1.3-.4-1.9a3 3 0 0 0-1.1-1.4c-.5-.3-1.1-.5-1.9-.5a3.2 3.2 0 0 0-3 2c-.3.6-.4 1.2-.4 1.8ZM135 103V89.6h2.7v1.9c.4-.6.9-1.1 1.6-1.5.6-.5 1.5-.7 2.5-.7a4.6 4.6 0 0 1 2.8 1c.5.3.8.7 1 1.2a5 5 0 0 1 4.1-2.2c.5 0 1 0 1.5.2a3.9 3.9 0 0 1 2.5 2.3c.3.6.4 1.4.4 2.4v8.8h-2.8v-8.5c0-.8-.1-1.3-.3-1.7a2 2 0 0 0-1-1 3 3 0 0 0-1.3-.2l-1.2.3c-.4.1-.8.4-1.1.7-.3.4-.5.9-.5 1.5v8.9h-2.7v-9.1c0-.5-.2-1-.4-1.3-.3-.3-.6-.6-1-.7l-1.2-.3c-.4 0-.9.1-1.3.3-.4.2-.8.4-1.1.8-.3.4-.4.8-.4 1.4v8.9H135Zm29.6.3c-.8 0-1.4-.1-2-.3a4 4 0 0 1-2-1.8c-.3-.3-.4-.7-.5-1l-.3 2.8h-2.1V83.7h2.8v7.9a4 4 0 0 1 1.4-1.5 5.1 5.1 0 0 1 2.9-.8c1.7 0 3 .6 4 1.8 1 1.1 1.5 2.9 1.5 5.1a10 10 0 0 1-.7 3.7c-.4 1-1 1.9-1.9 2.5-.8.6-1.9.9-3.1.9Zm-.6-2.1a3 3 0 0 0 2.5-1.2c.7-.8 1-2.1 1-3.9 0-1.5-.3-2.7-1-3.5a3 3 0 0 0-2.5-1.2c-.8 0-1.5.2-2 .6a3 3 0 0 0-1.1 1.5c-.3.8-.4 1.6-.4 2.6 0 1.8.3 3.1.8 3.9.6.8 1.5 1.2 2.7 1.2Zm13 2a5 5 0 0 1-2-.3 2.6 2.6 0 0 1-1.6-2l-.1-1.4V83.7h2.7v15.5c0 .6.1 1 .4 1.4.2.3.6.5 1.1.6h.7v1.7a5.5 5.5 0 0 1-1.3.3Zm5.3 4h-1.7l-.5-.3v-1.8h2.7l.8-.4.4-.5.3-.5.4-1-5.3-13.1h2.8l3.8 9.9 3.7-10h2.8l-5.6 14.3c-.4.9-.8 1.6-1.3 2.1s-1 .9-1.5 1c-.5.3-1.1.4-1.8.4ZM39.6 166.3c-1.3 0-2.3-.3-3.3-.8-1-.6-1.7-1.4-2.2-2.4-.5-1-.8-2.3-.8-3.8 0-1.4.2-2.6.7-3.6a5.8 5.8 0 0 1 5.6-3.4c1 0 1.9.2 2.7.6A5.2 5.2 0 0 1 45 157h-2.5a3 3 0 0 0-1.5-2.2c-.4-.2-1-.3-1.5-.3-1.1 0-2 .4-2.7 1.2-.6.8-1 2-1 3.6a6 6 0 0 0 1 3.6c.6.9 1.5 1.3 2.7 1.3a3 3 0 0 0 2.5-1.3l.6-1.2H45a5 5 0 0 1-2.8 4 6 6 0 0 1-2.6.6Zm8.5-.3v-13.4h2.6v2.7c.2-.6.6-1.2 1-1.6a4.2 4.2 0 0 1 3.6-1.3h.4v2.7h-.5l-.4-.1h-1.6c-.5.2-1 .3-1.3.6-.3.2-.6.5-.8 1-.2.3-.3.8-.3 1.3v8.1h-2.7Zm12.1 4.3c-.8 0-1.4 0-1.7-.2l-.4-.2v-1.8h2.6l.8-.4.4-.5.3-.5.4-1-5.2-13.1H60l3.8 9.9 3.8-10h2.7l-5.6 14.3c-.4.9-.8 1.6-1.3 2.1-.4.5-1 .9-1.5 1-.5.3-1.1.4-1.8.4Zm12.6-.1v-17.6h2.8v2.2l.7-.9a5 5 0 0 1 3.7-1.6c1 0 2 .2 2.8.7.8.5 1.4 1.3 1.8 2.3.5 1 .7 2.3.7 3.8 0 1.6-.2 2.9-.7 4-.4 1-1 1.8-1.9 2.4a5.4 5.4 0 0 1-4.5.5 4.4 4.4 0 0 1-2-1.4l-.6-1v6.6h-2.8Zm6.3-6c1 0 2-.5 2.6-1.3.6-.8 1-2 1-3.7 0-1.5-.3-2.6-1-3.5a3 3 0 0 0-2.6-1.3 3 3 0 0 0-2.6 1.4 6 6 0 0 0-1 3.4c0 .9.2 1.7.5 2.5.2.7.6 1.3 1.2 1.8a3 3 0 0 0 2 .6ZM93 166c-1 0-1.8-.1-2.3-.4-.6-.3-1-.7-1.2-1.2-.2-.5-.3-1.1-.3-1.8v-8.1H87v-2h2.3l.7-4h2v4h3v2h-3v8l.1 1c.1.2.3.3.5.3l1 .1H95v1.8l-.8.2a9 9 0 0 1-1.3 0Zm10.3.2c-1.3 0-2.4-.3-3.3-.8-1-.6-1.7-1.4-2.2-2.4-.5-1-.8-2.3-.8-3.8 0-1.4.3-2.6.8-3.7a5.6 5.6 0 0 1 5.5-3.3c1.3 0 2.4.3 3.3.8 1 .6 1.6 1.4 2.1 2.4s.8 2.4.8 3.8-.2 2.6-.7 3.6a5.6 5.6 0 0 1-5.5 3.4Zm0-2.2a3 3 0 0 0 2-.6c.4-.4.8-1 1-1.7.3-.7.5-1.6.5-2.5a8 8 0 0 0-.4-2.5c-.2-.7-.6-1.3-1-1.7a3 3 0 0 0-2.1-.7c-.8 0-1.4.2-2 .6-.5.4-.9 1-1.1 1.7-.3.7-.4 1.6-.4 2.6l.3 2.4c.3.7.6 1.3 1.2 1.8a3 3 0 0 0 2 .6Zm8.7 1.9v-3.4h3.3v3.4H112Zm11.7.3c-1 0-1.8-.2-2.6-.5s-1.5-.7-2-1.4c-.6-.6-1-1.4-1.1-2.4h2.5c0 .5.3 1 .6 1.3.3.3.7.5 1.2.7.4.2.9.2 1.4.2.9 0 1.5-.1 2-.4.6-.3.9-.8.9-1.4 0-.5-.2-.9-.5-1.1-.3-.3-.7-.5-1.3-.7l-2.7-.6c-1-.3-2-.7-2.6-1.2a3 3 0 0 1-1-2.4c0-.8.1-1.5.5-2.1a4 4 0 0 1 1.8-1.5 7 7 0 0 1 3-.5 6 6 0 0 1 3.6 1c.9.7 1.4 1.7 1.4 3h-2.4a2 2 0 0 0-.9-1.5 3 3 0 0 0-1.8-.5c-.8 0-1.5.1-2 .5-.5.3-.8.7-.8 1.4 0 .4.2.8.6 1 .4.3 1 .5 1.7.7l2.5.6 1.7.7 1 1 .5 1 .1 1a3.7 3.7 0 0 1-2.4 3.6c-.8.3-1.8.5-2.9.5Zm13.3 0c-.7 0-1.4-.1-2-.3a5 5 0 0 1-1.6-.9c-.5-.4-.9-.9-1.2-1.4-.3-.6-.4-1.2-.4-2v-9.1h2.8v8.8c0 .8.3 1.5.8 2s1.2.7 2.2.7c1 0 1.7-.2 2.2-.7.6-.5.9-1.2.9-2v-8.8h2.7V166h-2.1l-.3-2.6c-.2.7-.5 1.3-.9 1.7-.4.4-.8.7-1.4.9-.5.2-1.1.3-1.7.3Zm17.3 0c-.8 0-1.4-.1-2-.3a4.1 4.1 0 0 1-2-1.8c-.3-.3-.4-.7-.5-1l-.3 2.8h-2.1v-19.3h2.8v7.9a4 4 0 0 1 1.4-1.5 5 5 0 0 1 2.9-.8c1.7 0 3 .6 4 1.8 1 1.1 1.4 2.9 1.4 5.1a10 10 0 0 1-.6 3.7c-.4 1-1 1.9-1.9 2.5-.8.6-1.9.9-3.1.9Zm-.6-2.1a3 3 0 0 0 2.5-1.2c.7-.8 1-2.1 1-3.9 0-1.5-.3-2.7-1-3.5a3 3 0 0 0-2.5-1.2 3 3 0 0 0-3.1 2.1c-.3.8-.4 1.6-.4 2.6 0 1.8.3 3.1.8 3.9.6.8 1.5 1.2 2.7 1.2Zm13.9 1.9c-1 0-1.8-.1-2.3-.4-.6-.3-1-.7-1.2-1.2-.2-.5-.3-1.1-.3-1.8v-8.1h-2.2v-2h2.3l.7-4h2v4h3v2h-3v8l.1 1c.1.2.3.3.5.3l.9.1h1.6v1.8l-.8.2a9 9 0 0 1-1.3 0Zm8.8 0a5 5 0 0 1-2-.2 2.6 2.6 0 0 1-1.6-2v-17.2h2.7v15.5c0 .6 0 1 .3 1.4.3.3.7.5 1.2.6h.7v1.7a5.5 5.5 0 0 1-1.3.3Zm9.5.2c-1.3 0-2.4-.3-3.4-.9-1-.5-1.7-1.3-2.2-2.3-.6-1-.8-2.3-.8-3.7 0-1.4.2-2.6.7-3.7.5-1 1.2-1.9 2.1-2.5 1-.6 2.1-.9 3.4-.9a6 6 0 0 1 3.3.8c.9.6 1.6 1.4 2 2.4.5 1 .7 2.1.7 3.5v1h-9.4c0 .7 0 1.5.3 2.1.3.6.7 1.1 1.2 1.5.6.4 1.2.6 2 .6s1.5-.2 2.1-.6c.6-.4 1-.9 1.2-1.6h2.6c-.2.9-.6 1.7-1.2 2.3-.5.7-1.2 1.1-2 1.5-.9.3-1.7.5-2.6.5Zm-3.6-8.2h6.8c0-.7-.2-1.3-.4-1.9a3 3 0 0 0-1.1-1.4c-.5-.3-1.1-.5-1.9-.5a3.2 3.2 0 0 0-3 2c-.3.6-.4 1.2-.4 1.8ZM111 229l-5.4-18.8h2.8l4 14.3 4-14.3h2.1l4 14.3 4.1-14.3h2.8l-5.5 18.8h-2.5l-4-14-4 14h-2.3Zm25 .3c-1.2 0-2.3-.3-3.2-.8-1-.6-1.7-1.4-2.2-2.4-.5-1-.8-2.3-.8-3.8 0-1.4.3-2.6.8-3.7a5.6 5.6 0 0 1 5.5-3.3c1.3 0 2.4.3 3.3.8 1 .6 1.6 1.4 2.1 2.4.6 1 .8 2.4.8 3.8s-.2 2.6-.7 3.6a5.6 5.6 0 0 1-5.5 3.4Zm.1-2.2a3 3 0 0 0 2-.6c.4-.4.8-1 1-1.7.3-.7.5-1.6.5-2.5a8 8 0 0 0-.4-2.5c-.2-.7-.6-1.3-1-1.7a3 3 0 0 0-2.1-.7c-.8 0-1.4.2-2 .6-.5.4-.9 1-1.1 1.7-.3.7-.4 1.6-.4 2.6l.3 2.4c.3.7.6 1.3 1.2 1.8a3 3 0 0 0 2 .6Zm9.2 1.9v-13.4h2.7v2.7c.2-.6.6-1.2 1-1.6a4.2 4.2 0 0 1 3.6-1.3h.4v2.7h-.5l-.4-.1h-1.6c-.5.2-1 .3-1.3.6-.3.2-.6.5-.8 1-.2.3-.3.8-.3 1.3v8.1h-2.8Zm10.4 0v-19.3h2.7V222l6-6.4h3.1l-4.9 5.1 5.2 8.3h-2.9l-4-6.5-2.5 2.5v4h-2.7Zm19.9.3c-1.3 0-2.4-.3-3.4-.9-1-.5-1.7-1.3-2.2-2.3-.6-1-.8-2.3-.8-3.7 0-1.4.2-2.6.7-3.7.5-1 1.2-1.9 2.1-2.5 1-.6 2.1-.9 3.4-.9a6 6 0 0 1 3.3.8c.9.6 1.6 1.4 2 2.4.5 1 .7 2.1.7 3.5v1H172c0 .7.2 1.5.4 2.1.3.6.7 1.1 1.2 1.5.6.4 1.2.6 2 .6s1.5-.2 2.1-.6c.6-.4 1-.9 1.2-1.6h2.5c-.1.9-.5 1.7-1 2.3-.6.7-1.3 1.1-2.2 1.5-.8.3-1.6.5-2.5.5Zm-3.7-8.2h6.9c0-.7-.2-1.3-.4-1.9a3 3 0 0 0-1.1-1.4c-.5-.3-1.1-.5-1.9-.5a3.2 3.2 0 0 0-3 2c-.3.6-.5 1.2-.5 1.8Zm12.7 7.9v-13.4h2.6v2.7c.3-.6.6-1.2 1-1.6a4.2 4.2 0 0 1 3.6-1.3h.4v2.7h-.4l-.5-.1h-1.6c-.5.2-1 .3-1.3.6-.3.2-.6.5-.8 1-.2.3-.2.8-.2 1.3v8.1h-2.8ZM61.7 292.3c-1.6 0-3-.3-4-.9a5 5 0 0 1-2.3-2.4c-.5-1-.7-2.4-.7-3.9v-11.9h2.9v12.2c0 1.5.3 2.6 1 3.4.8.7 1.8 1 3.1 1a5 5 0 0 0 2.3-.4c.6-.3 1.1-.8 1.5-1.5.3-.6.5-1.5.5-2.5v-12.2h2.8v12.1c0 1.5-.2 2.7-.7 3.8a5 5 0 0 1-2.3 2.3c-1 .6-2.4.9-4 .9Zm11.4-.3v-18.8h7.4c1.4 0 2.6.2 3.5.7 1 .4 1.6 1 2 1.8.5.8.7 1.7.7 2.8 0 1-.1 1.8-.5 2.5-.3.7-.8 1.2-1.3 1.7a7 7 0 0 1-1.7 1l3.6 8.3H84l-3.3-7.9h-4.7v7.9H73Zm2.8-10.1h3.9c1.3 0 2.3-.3 3-.9a3 3 0 0 0 1.1-2.4c0-1-.3-1.8-1-2.4a4 4 0 0 0-2.6-.8h-4.4v6.5ZM90.8 292v-18.8h2.8v16.4h8.7v2.4H90.8Zm15 0v-18.8h6.5a9 9 0 0 1 3.6.7c1 .5 2 1.1 2.5 2 .6 1 1 2 1 3.3 0 1.3-.3 2.3-.9 3.2-.6.9-1.3 1.6-2.3 2-1 .5-2.2.7-3.5.7h-4v6.9h-2.9Zm2.8-9.2h4c1.2 0 2.2-.3 3-1 .7-.7 1-1.6 1-2.7 0-1.2-.3-2.1-1.1-2.7-.8-.6-1.8-1-3-1h-3.9v7.4Zm17 9.5c-1 0-1.7-.2-2.4-.5s-1.2-.8-1.6-1.4c-.3-.5-.5-1.3-.5-2 0-1.6.5-2.7 1.5-3.4 1-.8 2.8-1.2 5.1-1.2h2.2v-1c0-.8-.2-1.4-.7-1.9-.4-.4-1.1-.6-2.1-.6-.7 0-1.4.2-2 .5-.5.3-.9.9-1 1.6h-2.4c0-.9.3-1.6.7-2.2.5-.7 1.1-1.1 2-1.4a8 8 0 0 1 2.8-.5c1.3 0 2.3.2 3 .5.8.3 1.4.8 1.8 1.5.4.6.6 1.4.6 2.3v9.4h-2.4l-.2-2.5c-.5 1-1.1 1.8-1.9 2.2-.8.4-1.6.6-2.6.6Zm.8-2a3.8 3.8 0 0 0 2.4-.8l.8-1c.2-.2.3-.6.3-1v-2.2h-1.8c-1 0-1.7.2-2.4.4a3 3 0 0 0-1.5.8c-.3.4-.5.9-.5 1.5 0 .8.3 1.3.8 1.7a3 3 0 0 0 1.9.6Zm14.4 1.8c-1 0-1.8-.1-2.4-.4-.5-.3-.9-.7-1.1-1.2-.2-.5-.3-1.1-.3-1.8v-8.1h-2.2v-2h2.3l.6-4h2v4h3v2h-3v8l.2 1c.1.2.3.3.5.3l.9.1h1.6v1.8l-.8.2a9 9 0 0 1-1.3 0Zm9 0c-1 0-1.7-.1-2.2-.4-.6-.3-1-.7-1.2-1.2-.2-.5-.3-1.1-.3-1.8v-8.1h-2.2v-2h2.3l.7-4h2v4h3v2h-3v8l.1 1c.1.2.3.3.5.3l1 .1h1.5v1.8l-.8.2a9 9 0 0 1-1.3 0Zm10.7.2c-1.3 0-2.4-.3-3.4-.9-1-.5-1.7-1.3-2.3-2.3-.5-1-.8-2.3-.8-3.7 0-1.4.3-2.6.8-3.7.5-1 1.2-1.9 2.1-2.5 1-.6 2-.9 3.4-.9a6 6 0 0 1 3.3.8c.9.6 1.6 1.4 2 2.4.5 1 .7 2.1.7 3.5v1h-9.5c0 .7.2 1.5.4 2.1.3.6.7 1.1 1.2 1.5.6.4 1.2.6 2 .6s1.5-.2 2.1-.6c.6-.4 1-.9 1.2-1.6h2.5c-.1.9-.5 1.7-1 2.3-.6.7-1.3 1.1-2.2 1.5-.8.3-1.6.5-2.5.5Zm-3.7-8.2h6.8c0-.7 0-1.3-.3-1.9a3 3 0 0 0-1.1-1.4c-.5-.3-1.2-.5-2-.5a3.2 3.2 0 0 0-3 2c-.2.6-.4 1.2-.4 1.8Zm12.7 7.9v-13.4h2.6v2.7c.3-.6.6-1.2 1-1.6a4.2 4.2 0 0 1 3.6-1.3h.4v2.7h-.4l-.5-.1h-1.6c-.5.2-1 .3-1.3.6-.3.2-.6.5-.8 1-.2.3-.2.8-.2 1.3v8.1h-2.8Zm10.3 0v-13.4h2.7v1.9a4.3 4.3 0 0 1 2.2-1.8c.6-.2 1.2-.3 2-.3s1.5.2 2.2.5c.8.3 1.3.8 1.8 1.6.4.7.6 1.6.6 2.7v8.8h-2.8v-8.5c0-1-.2-1.7-.7-2.2-.6-.4-1.2-.7-2-.7-.6 0-1 .1-1.6.3-.5.2-.9.5-1.2.8a2 2 0 0 0-.4 1.4v8.9h-2.8ZM2 355l6.7-18.8h3.1l6.8 18.8h-2.8l-1.8-5H6.5l-1.7 5H1.9Zm5.2-7.4h6l-3-8.7-3 8.7Zm21.1 7.7c-.7 0-1.4-.1-2-.3a4.1 4.1 0 0 1-2-1.8l-.5-1-.3 2.8h-2v-19.3h2.7v7.9a4 4 0 0 1 1.5-1.5 5.1 5.1 0 0 1 2.9-.8c1.6 0 3 .6 4 1.8 1 1.1 1.4 2.9 1.4 5.1a10 10 0 0 1-.6 3.7c-.4 1-1 1.9-2 2.5-.8.6-1.8.9-3 .9Zm-.5-2.1a3 3 0 0 0 2.5-1.2c.6-.8 1-2.1 1-3.9 0-1.5-.4-2.7-1-3.5a3 3 0 0 0-2.6-1.2 3 3 0 0 0-3.1 2.1l-.4 2.6c0 1.8.3 3.1.9 3.9.5.8 1.4 1.2 2.7 1.2Zm14.7 2c-1.2 0-2.3-.2-3.2-.7-1-.6-1.7-1.4-2.2-2.4-.5-1-.8-2.3-.8-3.8 0-1.4.2-2.6.7-3.7a5.6 5.6 0 0 1 5.6-3.3c1.2 0 2.3.3 3.2.8 1 .6 1.7 1.4 2.2 2.4.5 1 .8 2.4.8 3.8s-.3 2.6-.7 3.6a5.6 5.6 0 0 1-5.6 3.4Zm0-2a3 3 0 0 0 2-.7c.5-.4.9-1 1.1-1.7.3-.7.4-1.6.4-2.5a8 8 0 0 0-.3-2.5c-.2-.7-.6-1.3-1.1-1.7a3 3 0 0 0-2-.7c-.8 0-1.5.2-2 .6-.5.4-.9 1-1.2 1.7-.2.7-.4 1.6-.4 2.6 0 .8.2 1.6.4 2.4.2.7.6 1.3 1.1 1.8a3 3 0 0 0 2 .6Zm9.3 1.8v-13.4h2.7v2.7c.2-.6.5-1.2 1-1.6a4.2 4.2 0 0 1 3.6-1.3h.3v2.7H59l-.5-.1H57c-.5.2-.9.3-1.2.6-.4.2-.6.5-.8 1-.2.3-.3.8-.3 1.3v8.1h-2.8Zm15.1 0c-1 0-1.7 0-2.3-.3-.5-.3-.9-.7-1.1-1.2-.2-.5-.3-1.1-.3-1.8v-8.1H61v-2h2.3l.6-4h2v4h3v2h-3v8l.2 1c.1.2.3.3.5.3l.9.1H69v1.8l-.7.2a9 9 0 0 1-1.4 0Zm12.8.3c-1.7 0-3.2-.4-4.4-1.2-1.2-.8-2.1-2-2.8-3.4a13 13 0 0 1-1-5.2c0-2 .4-3.7 1-5.2a7.2 7.2 0 0 1 7.2-4.4c1.4 0 2.6.3 3.6.9A6.9 6.9 0 0 1 87 342h-3c-.1-.7-.4-1.3-.8-2-.3-.5-.8-1-1.4-1.3-.6-.3-1.3-.5-2.2-.5-1 0-2 .3-2.7.8-.7.5-1.3 1.3-1.7 2.3-.4 1-.6 2.5-.6 4.1 0 2.6.5 4.4 1.3 5.6.9 1.2 2.1 1.8 3.7 1.8.9 0 1.6-.2 2.2-.6.6-.3 1-.8 1.4-1.4.4-.6.7-1.3.8-2h3c-.1.9-.4 1.6-.7 2.4-.3.8-.8 1.4-1.4 2-.5.6-1.3 1.1-2.1 1.5-.9.3-2 .5-3.1.5Zm16 0c-1.3 0-2.4-.3-3.3-.8-1-.6-1.7-1.4-2.2-2.4-.5-1-.8-2.3-.8-3.8 0-1.4.3-2.6.8-3.7a5.6 5.6 0 0 1 5.5-3.3c1.3 0 2.4.3 3.3.8 1 .6 1.6 1.4 2.1 2.4.6 1 .8 2.4.8 3.8s-.2 2.6-.7 3.6a5.6 5.6 0 0 1-5.5 3.4Zm0-2.2a3 3 0 0 0 2-.6c.4-.4.8-1 1-1.7.3-.7.5-1.6.5-2.5a8 8 0 0 0-.4-2.5c-.2-.7-.6-1.3-1-1.7a3 3 0 0 0-2.1-.7c-.8 0-1.4.2-2 .6-.5.4-.9 1-1.1 1.7-.3.7-.4 1.6-.4 2.6l.3 2.4c.3.7.6 1.3 1.2 1.8a3 3 0 0 0 2 .6Zm9.3 1.9v-13.4h2.7v1.9a4.3 4.3 0 0 1 2.2-1.8c.5-.2 1.2-.3 1.9-.3.8 0 1.6.2 2.3.5.7.3 1.3.8 1.7 1.6.5.7.7 1.6.7 2.7v8.8h-2.8v-8.5c0-1-.2-1.7-.8-2.2-.5-.4-1.1-.7-2-.7l-1.5.3c-.5.2-1 .5-1.2.8a2 2 0 0 0-.5 1.4v8.9H105Zm19.7 0c-1 0-1.8 0-2.4-.3-.5-.3-.9-.7-1.1-1.2-.2-.5-.3-1.1-.3-1.8v-8.1h-2.2v-2h2.3l.6-4h2v4h3v2h-3v8l.2 1c.1.2.3.3.5.3l.9.1h1.6v1.8l-.8.2a9 9 0 0 1-1.3 0Zm5.1 0v-13.4h2.7v2.7c.2-.6.5-1.2 1-1.6a4.2 4.2 0 0 1 3.6-1.3h.3v2.7h-.4l-.5-.1H135c-.5.2-.9.3-1.2.6-.4.2-.6.5-.8 1-.2.3-.3.8-.3 1.3v8.1h-2.8Zm15.7.3c-1.3 0-2.4-.3-3.3-.8-1-.6-1.7-1.4-2.2-2.4-.5-1-.8-2.3-.8-3.8 0-1.4.3-2.6.8-3.7a5.6 5.6 0 0 1 5.5-3.3c1.3 0 2.4.3 3.3.8 1 .6 1.6 1.4 2.1 2.4s.8 2.4.8 3.8-.2 2.6-.7 3.6a5.6 5.6 0 0 1-5.5 3.4Zm0-2.2a3 3 0 0 0 2-.6c.4-.4.8-1 1-1.7.3-.7.5-1.6.5-2.5a8 8 0 0 0-.4-2.5c-.2-.7-.6-1.3-1-1.7a3 3 0 0 0-2.1-.7c-.8 0-1.4.2-2 .6-.5.4-.9 1-1.1 1.7-.3.7-.4 1.6-.4 2.6l.3 2.4c.3.7.6 1.3 1.1 1.8a3 3 0 0 0 2 .6Zm12.9 2a5 5 0 0 1-2-.2 2.6 2.6 0 0 1-1.5-2l-.2-1.4v-15.8h2.8v15.5c0 .6.1 1 .3 1.4.3.3.7.5 1.2.6h.7v1.7a5.5 5.5 0 0 1-1.3.3Zm7.7 0a5 5 0 0 1-2-.2 2.6 2.6 0 0 1-1.6-2v-17.2h2.7v15.5c0 .6 0 1 .3 1.4.3.3.7.5 1.2.6h.7v1.7a5.5 5.5 0 0 1-1.3.3Zm9.5.2c-1.3 0-2.4-.3-3.4-.9-1-.5-1.7-1.3-2.2-2.3-.6-1-.8-2.3-.8-3.7 0-1.4.2-2.6.7-3.7.5-1 1.2-1.9 2.1-2.5 1-.6 2.1-.9 3.4-.9a6 6 0 0 1 3.3.8c.9.6 1.6 1.4 2 2.4.5 1 .7 2.1.7 3.5v1H172c0 .7.2 1.5.4 2.1.3.6.7 1.1 1.2 1.5.6.4 1.2.6 2 .6s1.5-.2 2.1-.6c.6-.4 1-.9 1.2-1.6h2.5c-.1.9-.5 1.7-1 2.3-.6.7-1.3 1.1-2.2 1.5-.8.3-1.6.5-2.5.5Zm-3.7-8.2h6.9c0-.7-.2-1.3-.4-1.9a3 3 0 0 0-1.1-1.4c-.5-.3-1.1-.5-1.9-.5a3.2 3.2 0 0 0-3 2c-.3.6-.5 1.2-.5 1.8Zm12.7 7.9v-13.4h2.6v2.7c.3-.6.6-1.2 1-1.6a4.2 4.2 0 0 1 3.6-1.3h.4v2.7h-.4l-.5-.1h-1.6c-.5.2-1 .3-1.3.6-.3.2-.6.5-.8 1-.2.3-.2.8-.2 1.3v8.1h-2.8ZM4 418v-18.8h7.4c1.4 0 2.6.2 3.5.7 1 .4 1.6 1 2 1.8.5.8.7 1.7.7 2.8 0 1-.2 1.8-.5 2.5s-.8 1.2-1.3 1.7a7 7 0 0 1-1.7 1l3.6 8.3h-3l-3.2-7.9H6.7v7.9H4Zm2.7-10.1h4c1.3 0 2.3-.3 3-.9a3 3 0 0 0 1-2.4c0-1-.2-1.8-.9-2.4a4 4 0 0 0-2.7-.8H6.7v6.5Zm19.9 10.4c-1.3 0-2.4-.3-3.4-.9-1-.5-1.7-1.3-2.3-2.3-.5-1-.8-2.3-.8-3.7 0-1.4.3-2.6.8-3.7.5-1 1.2-1.9 2.1-2.5 1-.6 2-.9 3.4-.9a6 6 0 0 1 3.3.8c.9.6 1.5 1.4 2 2.4s.7 2.1.7 3.5v1h-9.5c0 .7.1 1.5.4 2.1.3.6.7 1.1 1.2 1.5.6.4 1.2.6 2 .6s1.5-.2 2.1-.6c.6-.4 1-.9 1.2-1.6h2.5c-.1.9-.5 1.7-1 2.3-.7.7-1.4 1.1-2.2 1.5-.8.3-1.6.5-2.5.5Zm-3.7-8.2h6.8c0-.7 0-1.3-.3-1.9a3 3 0 0 0-1.1-1.4c-.5-.3-1.2-.5-2-.5a3.2 3.2 0 0 0-3 2c-.2.6-.4 1.2-.4 1.8Zm17.6 8.2c-1 0-1.8-.2-2.7-.5-.8-.3-1.5-.7-2-1.4-.6-.6-.9-1.4-1-2.4h2.5c0 .5.3 1 .6 1.3l1.1.7c.5.2 1 .2 1.5.2.8 0 1.5-.1 2-.4.6-.3.8-.8.8-1.4 0-.5-.1-.9-.4-1.1-.3-.3-.7-.5-1.3-.7l-2.7-.6c-1.1-.3-2-.7-2.7-1.2a3 3 0 0 1-1-2.4c0-.8.2-1.5.6-2.1a4 4 0 0 1 1.8-1.5 7 7 0 0 1 2.9-.5 6 6 0 0 1 3.6 1c1 .7 1.4 1.7 1.5 3h-2.4a2 2 0 0 0-.9-1.5 3 3 0 0 0-1.9-.5c-.7 0-1.4.1-2 .5-.4.3-.7.7-.7 1.4 0 .4.2.8.6 1 .4.3 1 .5 1.7.7l2.5.6c.7.2 1.2.4 1.6.7.5.3.8.6 1 1 .3.3.4.6.5 1l.2 1a3.7 3.7 0 0 1-2.5 3.6c-.8.3-1.7.5-2.8.5Zm8.3 3.9v-17.6h2.8v2.2l.6-.9a5 5 0 0 1 3.7-1.6c1 0 2 .2 2.8.7.8.5 1.5 1.3 2 2.3.4 1 .6 2.3.6 3.8 0 1.6-.2 2.9-.7 4-.4 1-1 1.8-2 2.4a5.4 5.4 0 0 1-4.4.5 4.4 4.4 0 0 1-2-1.4c-.3-.3-.5-.6-.6-1v6.6h-2.8Zm6.3-6c1 0 1.9-.5 2.6-1.3.6-.8 1-2 1-3.7 0-1.5-.4-2.6-1-3.5a3 3 0 0 0-2.6-1.3 3 3 0 0 0-2.6 1.4 6 6 0 0 0-1 3.4c0 .9.2 1.7.5 2.5.2.7.6 1.3 1.2 1.8a3 3 0 0 0 2 .6Zm14.8 2c-1.3 0-2.4-.2-3.3-.7-1-.6-1.7-1.4-2.2-2.4-.5-1-.8-2.3-.8-3.8 0-1.4.3-2.6.8-3.7a5.6 5.6 0 0 1 5.5-3.3c1.2 0 2.3.3 3.3.8.9.6 1.6 1.4 2.1 2.4s.8 2.4.8 3.8-.2 2.6-.7 3.6a5.6 5.6 0 0 1-5.5 3.4Zm0-2a3 3 0 0 0 1.9-.7c.5-.4.9-1 1.2-1.7.2-.7.3-1.6.3-2.5a8 8 0 0 0-.3-2.5c-.2-.7-.6-1.3-1.1-1.7a3 3 0 0 0-2-.7c-.8 0-1.4.2-2 .6-.5.4-.9 1-1.1 1.7-.3.7-.4 1.6-.4 2.6 0 .8 0 1.6.3 2.4.3.7.6 1.3 1.1 1.8a3 3 0 0 0 2 .6ZM79 418v-13.4h2.7v1.9a4.3 4.3 0 0 1 2.3-1.8c.5-.2 1.2-.3 1.9-.3.8 0 1.6.2 2.3.5.7.3 1.3.8 1.7 1.6.5.7.7 1.6.7 2.7v8.8h-2.8v-8.5c0-1-.3-1.7-.8-2.2-.5-.4-1.2-.7-2-.7l-1.5.3c-.5.2-1 .5-1.2.8a2 2 0 0 0-.5 1.4v8.9h-2.8Zm20 .3c-1 0-1.8-.2-2.6-.5s-1.5-.7-2-1.4c-.6-.6-1-1.4-1.1-2.4h2.5c0 .5.3 1 .6 1.3.3.3.7.5 1.2.7.4.2.9.2 1.4.2.9 0 1.5-.1 2-.4.6-.3.9-.8.9-1.4 0-.5-.2-.9-.5-1.1-.3-.3-.7-.5-1.3-.7l-2.7-.6c-1-.3-2-.7-2.6-1.2a3 3 0 0 1-1-2.4c0-.8.1-1.5.5-2.1a4 4 0 0 1 1.8-1.5 7 7 0 0 1 2.9-.5 6 6 0 0 1 3.7 1c.9.7 1.4 1.7 1.4 3h-2.4a2 2 0 0 0-.9-1.5 3 3 0 0 0-1.8-.5c-.8 0-1.5.1-2 .5-.5.3-.8.7-.8 1.4 0 .4.2.8.6 1 .4.3 1 .5 1.7.7l2.5.6 1.7.7 1 1 .5 1 .1 1a3.7 3.7 0 0 1-2.5 3.6c-.7.3-1.7.5-2.8.5Zm14.1 0c-1.2 0-2.4-.3-3.3-.9-1-.5-1.8-1.3-2.3-2.3-.5-1-.8-2.3-.8-3.7 0-1.4.2-2.6.7-3.7.5-1 1.2-1.9 2.2-2.5 1-.6 2-.9 3.4-.9a6 6 0 0 1 3.2.8c1 .6 1.6 1.4 2 2.4.5 1 .7 2.1.7 3.5v1h-9.4c0 .7.1 1.5.4 2.1.2.6.6 1.1 1.2 1.5.5.4 1.2.6 2 .6s1.5-.2 2-.6c.6-.4 1-.9 1.2-1.6h2.6c-.2.9-.5 1.7-1.1 2.3-.6.7-1.3 1.1-2.1 1.5-.8.3-1.7.5-2.6.5Zm-3.6-8.2h6.8c0-.7-.1-1.3-.4-1.9a3 3 0 0 0-1-1.4c-.6-.3-1.2-.5-2-.5a3.2 3.2 0 0 0-3 2c-.3.6-.4 1.2-.4 1.8Zm12.1 7.9v-3.4h3.2v3.4h-3.2Zm6 4.3c-.8 0-1.2 0-1.4-.2l-.3-.1V420h1.2c.6-.1 1-.3 1.2-.5.3-.3.4-.7.4-1.3v-13.7h2.8v13.8c0 1.3-.3 2.3-1 3-.5.6-1.5 1-3 1Zm1-20.3v-2.8h3v2.8h-3Zm11.7 16.3c-1 0-1.8-.2-2.6-.5-.9-.3-1.5-.7-2-1.4-.6-.6-1-1.4-1.1-2.4h2.5c0 .5.3 1 .6 1.3l1.1.7c.5.2 1 .2 1.5.2.8 0 1.5-.1 2-.4.6-.3.8-.8.8-1.4 0-.5-.1-.9-.4-1.1-.3-.3-.7-.5-1.3-.7l-2.7-.6c-1.1-.3-2-.7-2.7-1.2a3 3 0 0 1-1-2.4c0-.8.2-1.5.6-2.1a4 4 0 0 1 1.8-1.5 7 7 0 0 1 2.9-.5 6 6 0 0 1 3.6 1c1 .7 1.4 1.7 1.5 3H143a2 2 0 0 0-.9-1.5 3 3 0 0 0-1.8-.5c-.8 0-1.5.1-2 .5-.5.3-.8.7-.8 1.4 0 .4.2.8.6 1 .4.3 1 .5 1.7.7l2.5.6c.7.2 1.2.4 1.6.7.5.3.8.6 1 1 .3.3.5.6.5 1 .2.3.2.7.2 1a3.7 3.7 0 0 1-2.5 3.6c-.8.3-1.7.5-2.8.5Zm13.8 0c-1.2 0-2.3-.3-3.3-.8-1-.6-1.6-1.4-2.2-2.4-.5-1-.7-2.3-.7-3.8 0-1.4.2-2.6.7-3.7a5.6 5.6 0 0 1 5.5-3.3c1.3 0 2.4.3 3.3.8 1 .6 1.7 1.4 2.2 2.4.5 1 .7 2.4.7 3.8s-.2 2.6-.7 3.6a5.6 5.6 0 0 1-5.5 3.4Zm0-2.2a3 3 0 0 0 2-.6c.5-.4.8-1 1.1-1.7.3-.7.4-1.6.4-2.5a8 8 0 0 0-.4-2.5c-.2-.7-.5-1.3-1-1.7a3 3 0 0 0-2-.7c-.8 0-1.5.2-2 .6-.5.4-1 1-1.2 1.7-.3.7-.4 1.6-.4 2.6 0 .8.1 1.6.4 2.4.2.7.6 1.3 1 1.8a3 3 0 0 0 2.1.6Zm9.3 1.9v-13.4h2.7v1.9a4.3 4.3 0 0 1 2.2-1.8c.6-.2 1.2-.3 2-.3s1.5.2 2.2.5c.8.3 1.3.8 1.8 1.6.4.7.6 1.6.6 2.7v8.8h-2.8v-8.5c0-1-.2-1.7-.7-2.2-.6-.4-1.2-.7-2-.7-.6 0-1.1.1-1.6.3-.5.2-.9.5-1.2.8a2 2 0 0 0-.4 1.4v8.9h-2.8Zm18.5 3.4-1.9-3.6a20.4 20.4 0 0 1-1.7-7.9c0-2.1.4-4.2 1-6.1a23 23 0 0 1 2.7-5.4h2a28 28 0 0 0-2.2 5.5 22.3 22.3 0 0 0-.1 11.8c.5 1.8 1.2 3.7 2.1 5.7h-2Zm3.4 0c1-2 1.6-3.9 2.1-5.7a22 22 0 0 0 0-11.8c-.7-2-1.4-3.8-2.3-5.5h2c1 1.6 2 3.4 2.6 5.4a18.5 18.5 0 0 1-.6 14l-1.9 3.6h-1.9ZM19.8 481l-4.2-13.4H18l3 9.7h.1l3-9.7h2l3 9.7h.1l2.9-9.7h2.5L30.6 481H28l-2.9-9.4-2.8 9.4h-2.5Zm17.5 0v-13.4H40V481h-2.7Zm0-16v-2.8H40v2.8h-2.8Zm6.6 16v-13.4h2.8v1.9a4.3 4.3 0 0 1 2.2-1.8c.5-.2 1.2-.3 1.9-.3.8 0 1.6.2 2.3.5.7.3 1.3.8 1.7 1.6.5.7.7 1.6.7 2.7v8.8h-2.8v-8.5c0-1-.3-1.7-.8-2.2-.5-.4-1.2-.7-2-.7l-1.5.3c-.5.2-1 .5-1.2.8a2 2 0 0 0-.5 1.4v8.9H44Zm20.1.3c-1.8 0-3.2-.6-4.2-1.8a8 8 0 0 1-1.5-5.3c0-1.4.2-2.6.6-3.6.4-1 1-1.9 1.8-2.4a5 5 0 0 1 3-.9 5.5 5.5 0 0 1 3 .8 4.6 4.6 0 0 1 1.4 1.5v-8h2.8V481h-2.1l-.3-2.8-.5 1c-.2.4-.4.7-.8 1a4 4 0 0 1-1.3.8c-.5.2-1.1.3-1.9.3Zm.5-2.1c1.3 0 2.2-.4 2.7-1.2.6-.8.9-2 .9-3.9 0-1-.2-1.8-.4-2.6a3 3 0 0 0-1.1-1.5c-.5-.4-1.2-.6-2-.6-1 0-1.9.4-2.6 1.1-.6.8-1 2-1 3.6 0 1.7.4 2.9 1 3.8a3 3 0 0 0 2.5 1.3Zm15.6 2c-1.2 0-2.3-.2-3.2-.7-1-.6-1.7-1.4-2.2-2.4-.5-1-.8-2.3-.8-3.8 0-1.4.2-2.6.7-3.7a5.6 5.6 0 0 1 5.6-3.3c1.2 0 2.3.3 3.2.8 1 .6 1.7 1.4 2.2 2.4.5 1 .8 2.4.8 3.8s-.3 2.6-.7 3.6a5.6 5.6 0 0 1-5.6 3.4Zm0-2a3 3 0 0 0 2-.7c.5-.4.9-1 1.1-1.7.3-.7.4-1.6.4-2.5a8 8 0 0 0-.3-2.5c-.2-.7-.6-1.3-1.1-1.7a3 3 0 0 0-2-.7c-.8 0-1.5.2-2 .6-.5.4-.9 1-1.2 1.7-.2.7-.3 1.6-.3 2.6 0 .8 0 1.6.3 2.4.2.7.6 1.3 1.1 1.8a3 3 0 0 0 2 .6Zm12 1.8L88 467.6h2.5l3 9.7h.2l2.8-9.7h2l3 9.7h.2l2.9-9.7h2.5L103 481h-2.6l-2.9-9.4-2.8 9.4h-2.5Zm15.6 0v-3.4h3.2v3.4h-3.2Zm12.2.3c-1.2 0-2.3-.3-3.2-.8-1-.6-1.7-1.4-2.2-2.4-.6-1-.8-2.3-.8-3.8 0-1.4.2-2.6.7-3.6a5.8 5.8 0 0 1 5.5-3.4c1 0 2 .2 2.7.6a5.2 5.2 0 0 1 2.8 4H123a3 3 0 0 0-1.5-2c-.5-.3-1-.4-1.6-.4-1 0-2 .4-2.6 1.2-.7.8-1 2-1 3.6a6 6 0 0 0 1 3.6c.6.9 1.5 1.3 2.7 1.3a3 3 0 0 0 2.5-1.3c.3-.4.4-.8.5-1.2h2.4a5 5 0 0 1-2.8 4 6 6 0 0 1-2.7.6Zm12.2-.1a5 5 0 0 1-2-.3 2.6 2.6 0 0 1-1.6-2v-17.2h2.7v15.5c0 .6 0 1 .3 1.4.3.3.7.5 1.2.6h.7v1.7a5.5 5.5 0 0 1-1.3.3Zm9.2 0c-1.3 0-2.4-.2-3.3-.7-1-.6-1.7-1.4-2.2-2.4-.5-1-.8-2.3-.8-3.8 0-1.4.3-2.6.8-3.7a5.6 5.6 0 0 1 5.5-3.3c1.3 0 2.4.3 3.3.8 1 .6 1.6 1.4 2.1 2.4.6 1 .8 2.4.8 3.8s-.2 2.6-.7 3.6a5.6 5.6 0 0 1-5.5 3.4Zm0-2a3 3 0 0 0 2-.7c.4-.4.8-1 1-1.7.3-.7.5-1.6.5-2.5a8 8 0 0 0-.4-2.5c-.2-.7-.6-1.3-1-1.7a3 3 0 0 0-2.1-.7c-.8 0-1.4.2-2 .6-.5.4-.9 1-1.1 1.7-.3.7-.4 1.6-.4 2.6l.3 2.4c.3.7.6 1.3 1.2 1.8a3 3 0 0 0 2 .6Zm14.2 2c-1 0-1.8 0-2.7-.4-.8-.3-1.5-.7-2-1.4-.6-.6-.9-1.4-1-2.4h2.4c.2.5.4 1 .7 1.3l1.1.7c.5.2 1 .2 1.5.2.8 0 1.5-.1 2-.4.6-.3.8-.8.8-1.4 0-.5-.1-.9-.4-1.1-.3-.3-.7-.5-1.3-.7l-2.7-.6c-1.1-.3-2-.7-2.7-1.2a3 3 0 0 1-1-2.4c0-.8.2-1.5.6-2.1a4 4 0 0 1 1.8-1.5 7 7 0 0 1 2.9-.5 6 6 0 0 1 3.6 1c1 .7 1.4 1.7 1.5 3H158a2 2 0 0 0-.8-1.5 3 3 0 0 0-1.9-.5c-.8 0-1.4.1-2 .5-.4.3-.7.7-.7 1.4 0 .4.2.8.6 1 .4.3 1 .5 1.6.7l2.6.6c.7.2 1.2.4 1.6.7.4.3.8.6 1 1 .3.3.4.6.5 1l.2 1a3.7 3.7 0 0 1-2.5 3.6c-.8.3-1.7.5-2.8.5Zm14.1 0c-1.3 0-2.4-.2-3.4-.8-1-.5-1.7-1.3-2.2-2.3-.6-1-.8-2.3-.8-3.7 0-1.4.2-2.6.7-3.7.5-1 1.2-1.9 2.1-2.5 1-.6 2.1-.9 3.4-.9a6 6 0 0 1 3.3.8c.9.6 1.6 1.4 2 2.4.5 1 .7 2.1.7 3.5v1H166c0 .7 0 1.5.3 2.1.3.6.7 1.1 1.2 1.5.6.4 1.2.6 2 .6s1.5-.2 2.1-.6c.6-.4 1-.9 1.2-1.6h2.6c-.2.9-.6 1.7-1.2 2.3-.5.7-1.2 1.1-2 1.5-.9.3-1.7.5-2.6.5Zm-3.6-8h6.8c0-.8-.2-1.4-.4-2a3 3 0 0 0-1.1-1.4c-.5-.3-1.1-.5-1.9-.5a3.2 3.2 0 0 0-3 2c-.3.6-.4 1.2-.4 1.8Zm16 11.2-1.9-3.6a20.4 20.4 0 0 1-1.7-7.9c0-2.1.4-4.2 1-6.1a23 23 0 0 1 2.7-5.4h2a28 28 0 0 0-2.2 5.5 22.3 22.3 0 0 0-.1 11.8c.5 1.8 1.2 3.7 2.1 5.7h-2Zm3.4 0c1-2 1.6-3.9 2.1-5.7a22 22 0 0 0 0-11.8c-.7-2-1.4-3.8-2.3-5.5h2c1 1.6 2 3.4 2.6 5.4a18.5 18.5 0 0 1-.6 14l-1.9 3.6h-1.9ZM27 544l-4.2-13.4h2.6l3 9.7h.1l2.9-9.7h2l3 9.7h.2l2.8-9.7H42L37.8 544h-2.5l-3-9.4-2.7 9.4H27Zm17.5 0v-13.4h2.7V544h-2.7Zm0-16v-2.8h2.8v2.8h-2.8Zm6.7 16v-13.4h2.7v1.9a4.3 4.3 0 0 1 2.3-1.8c.5-.2 1.1-.3 1.8-.3.9 0 1.7.2 2.4.5s1.3.8 1.7 1.6c.4.7.6 1.6.6 2.7v8.8H60v-8.5c0-1-.3-1.7-.8-2.2-.5-.4-1.2-.7-2-.7-.6 0-1 .1-1.6.3-.5.2-.9.5-1.2.8a2 2 0 0 0-.4 1.4v8.9h-2.8Zm20 .3c-1.7 0-3-.6-4.1-1.8a8 8 0 0 1-1.5-5.3c0-1.4.2-2.6.6-3.6.4-1 1-1.9 1.8-2.4a5 5 0 0 1 3-.9 5.5 5.5 0 0 1 2.9.8 4.6 4.6 0 0 1 1.4 1.5v-8h2.8V544h-2l-.4-2.8c0 .3-.2.7-.4 1l-.8 1a4 4 0 0 1-1.3.8c-.5.2-1.2.3-2 .3Zm.6-2.1c1.2 0 2.1-.4 2.7-1.2.6-.8.8-2 .8-3.9 0-1-.1-1.8-.3-2.6a3 3 0 0 0-1.2-1.5c-.5-.4-1.1-.6-2-.6-1 0-1.8.4-2.5 1.1-.6.8-1 2-1 3.6 0 1.7.3 2.9 1 3.8a3 3 0 0 0 2.5 1.3Zm15.6 2c-1.2 0-2.3-.2-3.3-.7-1-.6-1.6-1.4-2.2-2.4-.5-1-.7-2.3-.7-3.8 0-1.4.2-2.6.7-3.7a5.6 5.6 0 0 1 5.5-3.3c1.3 0 2.4.3 3.3.8 1 .6 1.7 1.4 2.2 2.4.5 1 .7 2.4.7 3.8s-.2 2.6-.7 3.6a5.6 5.6 0 0 1-5.5 3.4Zm0-2a3 3 0 0 0 2-.7c.5-.4.8-1 1.1-1.7.3-.7.4-1.6.4-2.5a8 8 0 0 0-.4-2.5c-.2-.7-.6-1.3-1-1.7a3 3 0 0 0-2-.7c-.8 0-1.5.2-2 .6-.5.4-1 1-1.2 1.7-.3.7-.4 1.6-.4 2.6 0 .8.1 1.6.4 2.4.2.7.6 1.3 1 1.8a3 3 0 0 0 2.1.6Zm12 1.8-4.2-13.4h2.5l3 9.7h.1l2.9-9.7h2l3 9.7h.2l2.8-9.7h2.6l-4.2 13.4h-2.5l-3-9.4-2.7 9.4h-2.5Zm15.6 0v-3.4h3.2v3.4H115Zm10.5.3c-.9 0-1.6-.2-2.3-.5-.7-.3-1.2-.8-1.6-1.4-.4-.5-.6-1.3-.6-2 0-1.6.6-2.7 1.6-3.4 1-.8 2.8-1.2 5-1.2h2.3v-1c0-.8-.2-1.4-.7-1.9-.5-.4-1.2-.6-2.1-.6-.7 0-1.4.2-2 .5-.5.3-.9.9-1 1.6h-2.5c.1-.9.4-1.6.8-2.2.5-.7 1.1-1.1 2-1.4a8 8 0 0 1 2.8-.5c1.2 0 2.2.2 3 .5.8.3 1.4.8 1.8 1.5.4.6.6 1.4.6 2.3v9.4h-2.4l-.2-2.5c-.5 1-1.1 1.8-2 2.2-.7.4-1.6.6-2.5.6Zm.9-2a3.8 3.8 0 0 0 2.4-.8l.8-1c.2-.2.3-.6.3-1v-2.2H128c-1 0-1.7.2-2.4.4a3 3 0 0 0-1.5.8c-.3.4-.5.9-.5 1.5 0 .8.3 1.3.8 1.7a3 3 0 0 0 1.9.6Zm13.4 1.9a5 5 0 0 1-2-.3 2.6 2.6 0 0 1-1.6-2v-17.2h2.7v15.5c0 .6 0 1 .3 1.4.3.3.7.5 1.2.6h.7v1.7a5.5 5.5 0 0 1-1.3.3Zm9.5 0c-1.3 0-2.4-.2-3.3-.8-1-.5-1.8-1.3-2.3-2.3-.6-1-.8-2.3-.8-3.7 0-1.4.2-2.6.7-3.7.5-1 1.2-1.9 2.2-2.5.9-.6 2-.9 3.3-.9a6 6 0 0 1 3.3.8c1 .6 1.6 1.4 2 2.4.5 1 .7 2.1.7 3.5v1h-9.4c0 .7 0 1.5.4 2.1.2.6.6 1.1 1.2 1.5.5.4 1.2.6 2 .6s1.5-.2 2-.6c.6-.4 1-.9 1.2-1.6h2.6c-.2.9-.6 1.7-1.1 2.3-.6.7-1.3 1.2-2.1 1.5-.8.3-1.7.5-2.6.5Zm-3.6-8h6.8c0-.8-.1-1.4-.4-2a3 3 0 0 0-1.1-1.4c-.5-.3-1.1-.5-1.9-.5a3.2 3.2 0 0 0-3 2c-.3.6-.4 1.2-.4 1.8Zm12.6 7.8v-13.4h2.7v2.7c.2-.6.5-1.2.9-1.6a4.2 4.2 0 0 1 3.6-1.3h.4v2.7h-.4l-.5-.1h-1.6c-.5.2-.9.3-1.2.6-.4.2-.7.5-.8 1-.2.3-.3.8-.3 1.3v8.1h-2.8Zm15.1 0c-1 0-1.7 0-2.3-.3-.5-.3-1-.7-1.1-1.2-.2-.5-.3-1.1-.3-1.8v-8.1h-2.2v-2h2.2l.7-4h2v4h3v2h-3v8l.2 1c0 .2.2.3.5.3l.9.1h1.5v1.8l-.7.2a9 9 0 0 1-1.4 0Zm8.6 3.4-1.9-3.6a20.4 20.4 0 0 1-1.7-7.9c0-2.1.4-4.2 1-6.1a23 23 0 0 1 2.7-5.4h2a28 28 0 0 0-2.2 5.5 22.3 22.3 0 0 0-.1 11.8c.5 1.8 1.2 3.7 2.1 5.7h-2Zm3.4 0c1-2 1.6-3.9 2.1-5.7a22 22 0 0 0 0-11.8c-.7-2-1.4-3.8-2.3-5.5h2c1 1.6 2 3.4 2.6 5.4a18.5 18.5 0 0 1-.6 14l-1.9 3.6h-1.9ZM43 607.2a5 5 0 0 1-1.9-.3 2.6 2.6 0 0 1-1.6-2v-17.2h2.7v15.5c0 .6 0 1 .3 1.4.3.3.7.5 1.2.6h.7v1.7a5.5 5.5 0 0 1-1.3.3Zm9.3 0c-1.3 0-2.4-.2-3.3-.7-1-.6-1.7-1.4-2.2-2.4-.5-1-.8-2.3-.8-3.8 0-1.4.3-2.6.8-3.7a5.6 5.6 0 0 1 5.5-3.3c1.3 0 2.4.3 3.3.8 1 .6 1.6 1.4 2.2 2.4.5 1 .7 2.4.7 3.8s-.2 2.6-.7 3.6a5.6 5.6 0 0 1-5.5 3.4Zm0-2a3 3 0 0 0 2-.7c.4-.4.8-1 1-1.7.3-.7.5-1.6.5-2.5a8 8 0 0 0-.4-2.5c-.2-.7-.6-1.3-1-1.7a3 3 0 0 0-2-.7c-.9 0-1.5.2-2 .6-.6.4-1 1-1.2 1.7-.3.7-.4 1.6-.4 2.6l.3 2.4c.3.7.7 1.3 1.2 1.8a3 3 0 0 0 2 .6Zm14.8 2c-1.2 0-2.3-.2-3.3-.7-.9-.6-1.6-1.4-2.2-2.4-.5-1-.8-2.3-.8-3.8 0-1.4.3-2.6.8-3.6a5.8 5.8 0 0 1 5.5-3.4c1 0 1.9.2 2.7.6a5.2 5.2 0 0 1 2.8 4.1h-2.4a3 3 0 0 0-1.6-2.2c-.4-.2-.9-.3-1.5-.3-1 0-2 .4-2.6 1.2-.7.8-1 2-1 3.6a6 6 0 0 0 1 3.6c.5.9 1.5 1.3 2.6 1.3a3 3 0 0 0 2.5-1.3l.6-1.2h2.3a5 5 0 0 1-2.8 4 6 6 0 0 1-2.6.6Zm12.3 0c-.9 0-1.6-.1-2.3-.4-.7-.3-1.2-.8-1.6-1.4-.4-.5-.5-1.3-.5-2 0-1.6.5-2.7 1.5-3.4 1-.8 2.8-1.2 5-1.2h2.3v-1c0-.8-.2-1.4-.7-1.9-.4-.4-1.2-.6-2.1-.6-.7 0-1.4.2-2 .5-.5.3-.9.9-1 1.6h-2.4c0-.9.3-1.6.7-2.2.5-.7 1.1-1.1 2-1.4a8 8 0 0 1 2.8-.5c1.2 0 2.3.2 3 .5.8.3 1.4.8 1.8 1.5.4.6.6 1.4.6 2.3v9.4H84l-.2-2.5c-.5 1-1.1 1.8-1.9 2.2-.8.4-1.6.6-2.6.6Zm.9-1.9a3.8 3.8 0 0 0 2.4-.8l.8-1c.2-.2.3-.6.3-1v-2.2H82c-1 0-1.7.2-2.4.4a3 3 0 0 0-1.5.8c-.3.4-.5.9-.5 1.5 0 .8.3 1.3.8 1.7a3 3 0 0 0 1.9.6Zm13.4 1.9a5 5 0 0 1-2-.3 2.6 2.6 0 0 1-1.5-2l-.2-1.4v-15.8h2.8v15.5c0 .6.1 1 .4 1.4.2.3.6.5 1.1.6h.7v1.7a5.5 5.5 0 0 1-1.3.3Zm11.4 0c-.9 0-1.8 0-2.6-.3-.9-.2-1.6-.5-2.3-1a5.4 5.4 0 0 1-2.5-4h2.9c.1.7.4 1.2.8 1.7.5.5 1 .8 1.7 1a6.6 6.6 0 0 0 4.3 0c.6-.2 1.1-.5 1.5-1 .4-.4.6-1 .6-1.6 0-.7-.3-1.3-.8-1.7-.4-.4-1.2-.8-2.1-1l-3.8-1a9 9 0 0 1-2.4-.9c-.7-.4-1.2-1-1.6-1.6a5 5 0 0 1-.6-2.4c0-1.1.3-2 1-2.9.5-.8 1.3-1.4 2.4-1.9a9 9 0 0 1 3.5-.6c1.5 0 2.8.2 3.8.7 1 .5 1.8 1.2 2.3 2 .6.9.8 1.8.8 2.8h-2.8c0-.8-.3-1.5-.7-2-.4-.4-.9-.7-1.5-1a6 6 0 0 0-2-.3c-1.3 0-2.2.3-2.9.9-.6.6-1 1.2-1 2 0 .7.3 1.3.8 1.7a5 5 0 0 0 2 1l3.7.9c1.1.2 2 .6 2.7 1.1.7.5 1.2 1 1.5 1.8a5.3 5.3 0 0 1-.4 5 6 6 0 0 1-2.5 2c-1 .4-2.3.7-3.8.7Zm15.2-.1c-1 0-1.7-.1-2.3-.4-.5-.3-.9-.7-1.1-1.2-.2-.5-.3-1.1-.3-1.8v-8.1h-2.2v-2h2.3l.6-4h2v4h3v2h-3v8l.2 1c0 .2.3.3.5.3l.9.1h1.5v1.8l-.7.2a9 9 0 0 1-1.4 0Zm10.3.2c-1.2 0-2.3-.3-3.2-.8-1-.6-1.7-1.4-2.2-2.4-.5-1-.8-2.3-.8-3.8 0-1.4.2-2.6.7-3.7a5.6 5.6 0 0 1 5.6-3.3c1.2 0 2.3.3 3.3.8.9.6 1.6 1.4 2.1 2.4s.8 2.4.8 3.8-.3 2.6-.7 3.6a5.6 5.6 0 0 1-5.6 3.4Zm0-2.2a3 3 0 0 0 2-.6c.5-.4.9-1 1.1-1.7.3-.7.4-1.6.4-2.5a8 8 0 0 0-.3-2.5c-.2-.7-.6-1.3-1.1-1.7a3 3 0 0 0-2-.7c-.8 0-1.5.2-2 .6-.5.4-.9 1-1.2 1.7-.2.7-.3 1.6-.3 2.6 0 .8 0 1.6.3 2.4.2.7.6 1.3 1.1 1.8a3 3 0 0 0 2 .6Zm9.3 1.9v-13.4h2.7v2.7c.2-.6.5-1.2 1-1.6a4.2 4.2 0 0 1 3.6-1.3h.3v2.7h-.4l-.5-.1H145c-.4.2-.9.3-1.2.6-.4.2-.6.5-.8 1-.2.3-.3.8-.3 1.3v8.1h-2.8Zm13.7.3c-.8 0-1.6-.2-2.3-.5-.7-.3-1.2-.8-1.6-1.4-.3-.5-.5-1.3-.5-2 0-1.6.5-2.7 1.5-3.4 1.1-.8 2.8-1.2 5.1-1.2h2.2v-1c0-.8-.2-1.4-.7-1.9-.4-.4-1.1-.6-2.1-.6-.7 0-1.3.2-2 .5-.5.3-.8.9-1 1.6h-2.4c0-.9.3-1.6.7-2.2.5-.7 1.2-1.1 2-1.4a8 8 0 0 1 2.8-.5c1.3 0 2.3.2 3 .5.8.3 1.4.8 1.8 1.5.4.6.6 1.4.6 2.3v9.4h-2.4l-.2-2.5c-.5 1-1.1 1.8-1.9 2.2-.8.4-1.6.6-2.6.6Zm.9-2a3.8 3.8 0 0 0 2.4-.8l.8-1c.2-.2.3-.6.3-1v-2.2h-1.8c-1 0-1.7.2-2.4.4a3 3 0 0 0-1.4.8c-.4.4-.6.9-.6 1.5 0 .8.3 1.3.8 1.7a3 3 0 0 0 1.9.6Zm15.6 6.1c-2.2 0-3.9-.3-5-.9-1.3-.6-1.9-1.4-1.9-2.5 0-.5.2-.9.4-1.2.2-.4.5-.6.8-.9l.9-.5.5-.2-.6-.4-.6-.5c-.2-.3-.3-.6-.3-1s.2-.8.7-1.1a4 4 0 0 1 1.8-.8c-.8-.4-1.4-1-1.9-1.7a3.8 3.8 0 0 1 0-4.4c.6-.6 1.3-1.1 2.2-1.4a9 9 0 0 1 5.4-.3c.6.2 1.1.5 1.6.9a31.3 31.3 0 0 0 2.8-1.1l.8-.4v2.4l-2.4.5c.2.2.3.5.3.8l.1.9c0 .8-.2 1.5-.6 2.1-.4.7-1 1.2-2 1.6-.8.4-1.8.6-3 .6h-.6a4.1 4.1 0 0 0-2.1.2c-.3.2-.5.4-.5.6 0 .2.2.4.6.5a14.5 14.5 0 0 0 3.2.3h1.6c1.5.1 2.6.5 3.4 1.2.8.6 1.2 1.5 1.2 2.5 0 1.3-.6 2.3-1.7 3a8.9 8.9 0 0 1-5.1 1.2Zm.5-1.7c1.2 0 2-.1 2.7-.5.6-.3.9-.8.9-1.5 0-.5-.2-1-.6-1.2a3 3 0 0 0-1.8-.6l-3.5-.2c-.4 0-.8 0-1.1.2l-.9.7c-.2.3-.3.7-.3 1 0 .7.4 1.2 1.1 1.6.8.4 2 .5 3.5.5Zm-.5-9.5c.9 0 1.6-.2 2.2-.7.5-.4.8-1 .8-1.9 0-.8-.3-1.5-.8-2-.6-.4-1.3-.6-2.2-.6-1 0-1.7.2-2.2.7-.6.4-.9 1.1-.9 2 0 .7.3 1.4.8 1.8.6.5 1.3.7 2.3.7Zm15.8 7c-1.3 0-2.4-.2-3.4-.8-1-.5-1.7-1.3-2.2-2.3-.6-1-.8-2.3-.8-3.7 0-1.4.2-2.6.7-3.7.5-1 1.2-1.9 2.1-2.5 1-.6 2.1-.9 3.4-.9a6 6 0 0 1 3.3.8c.9.6 1.6 1.4 2 2.4.5 1 .7 2.1.7 3.5v1h-9.4c0 .7 0 1.5.3 2.1.3.6.7 1.1 1.2 1.5.6.4 1.2.6 2 .6s1.5-.2 2.1-.6c.6-.4 1-.9 1.2-1.6h2.6c-.2.9-.6 1.7-1.2 2.3-.5.7-1.2 1.2-2 1.5-.9.3-1.7.5-2.6.5Zm-3.6-8h6.8c0-.8-.2-1.4-.4-2a3 3 0 0 0-1.1-1.4c-.5-.3-1.1-.5-1.9-.5a3.2 3.2 0 0 0-3 2c-.3.6-.4 1.2-.4 1.8Z"/></g><defs><filter id="c" width="37" height="37" x="211" y="77" color-interpolation-filters="sRGB" filterUnits="userSpaceOnUse"><feFlood flood-opacity="0" result="BackgroundImageFix"/><feColorMatrix in="SourceAlpha" result="hardAlpha" values="0 0 0 0 0 0 0 0 0 0 0 0 0 0 0 0 0 0 127 0"/><feOffset dy="1"/><feGaussianBlur stdDeviation="2"/><feComposite in2="hardAlpha" operator="out"/><feColorMatrix values="0 0 0 0 0.334583 0 0 0 0 0.471459 0 0 0 0 0.608333 0 0 0 0.64 0"/><feBlend in2="BackgroundImageFix" result="effect1_dropShadow_2_434"/><feBlend in="SourceGraphic" in2="effect1_dropShadow_2_434" result="shape"/></filter><filter id="d" width="37" height="37" x="468" y="77" color-interpolation-filters="sRGB" filterUnits="userSpaceOnUse"><feFlood flood-opacity="0" result="BackgroundImageFix"/><feColorMatrix in="SourceAlpha" result="hardAlpha" values="0 0 0 0 0 0 0 0 0 0 0 0 0 0 0 0 0 0 127 0"/><feOffset dy="1"/><feGaussianBlur stdDeviation="2"/><feComposite in2="hardAlpha" operator="out"/><feColorMatrix values="0 0 0 0 0.334583 0 0 0 0 0.471459 0 0 0 0 0.608333 0 0 0 0.64 0"/><feBlend in2="BackgroundImageFix" result="effect1_dropShadow_2_434"/><feBlend in="SourceGraphic" in2="effect1_dropShadow_2_434" result="shape"/></filter><filter id="e" width="37" height="37" x="725" y="77" color-interpolation-filters="sRGB" filterUnits="userSpaceOnUse"><feFlood flood-opacity="0" result="BackgroundImageFix"/><feColorMatrix in="SourceAlpha" result="hardAlpha" values="0 0 0 0 0 0 0 0 0 0 0 0 0 0 0 0 0 0 127 0"/><feOffset dy="1"/><feGaussianBlur stdDeviation="2"/><feComposite in2="hardAlpha" operator="out"/><feColorMatrix values="0 0 0 0 0.334583 0 0 0 0 0.471459 0 0 0 0 0.608333 0 0 0 0.64 0"/><feBlend in2="BackgroundImageFix" result="effect1_dropShadow_2_434"/><feBlend in="SourceGraphic" in2="effect1_dropShadow_2_434" result="shape"/></filter><filter id="f" width="37" height="37" x="982" y="77" color-interpolation-filters="sRGB" filterUnits="userSpaceOnUse"><feFlood flood-opacity="0" result="BackgroundImageFix"/><feColorMatrix in="SourceAlpha" result="hardAlpha" values="0 0 0 0 0 0 0 0 0 0 0 0 0 0 0 0 0 0 127 0"/><feOffset dy="1"/><feGaussianBlur stdDeviation="2"/><feComposite in2="hardAlpha" operator="out"/><feColorMatrix values="0 0 0 0 0.334583 0 0 0 0 0.471459 0 0 0 0 0.608333 0 0 0 0.64 0"/><feBlend in2="BackgroundImageFix" result="effect1_dropShadow_2_434"/><feBlend in="SourceGraphic" in2="effect1_dropShadow_2_434" result="shape"/></filter><filter id="h" width="37" height="37" x="211" y="140" color-interpolation-filters="sRGB" filterUnits="userSpaceOnUse"><feFlood flood-opacity="0" result="BackgroundImageFix"/><feColorMatrix in="SourceAlpha" result="hardAlpha" values="0 0 0 0 0 0 0 0 0 0 0 0 0 0 0 0 0 0 127 0"/><feOffset dy="1"/><feGaussianBlur stdDeviation="2"/><feComposite in2="hardAlpha" operator="out"/><feColorMatrix values="0 0 0 0 0.334583 0 0 0 0 0.471459 0 0 0 0 0.608333 0 0 0 0.64 0"/><feBlend in2="BackgroundImageFix" result="effect1_dropShadow_2_434"/><feBlend in="SourceGraphic" in2="effect1_dropShadow_2_434" result="shape"/></filter><filter id="i" width="37" height="37" x="468" y="140" color-interpolation-filters="sRGB" filterUnits="userSpaceOnUse"><feFlood flood-opacity="0" result="BackgroundImageFix"/><feColorMatrix in="SourceAlpha" result="hardAlpha" values="0 0 0 0 0 0 0 0 0 0 0 0 0 0 0 0 0 0 127 0"/><feOffset dy="1"/><feGaussianBlur stdDeviation="2"/><feComposite in2="hardAlpha" operator="out"/><feColorMatrix values="0 0 0 0 0.334583 0 0 0 0 0.471459 0 0 0 0 0.608333 0 0 0 0.64 0"/><feBlend in2="BackgroundImageFix" result="effect1_dropShadow_2_434"/><feBlend in="SourceGraphic" in2="effect1_dropShadow_2_434" result="shape"/></filter><filter id="j" width="37" height="37" x="725" y="140" color-interpolation-filters="sRGB" filterUnits="userSpaceOnUse"><feFlood flood-opacity="0" result="BackgroundImageFix"/><feColorMatrix in="SourceAlpha" result="hardAlpha" values="0 0 0 0 0 0 0 0 0 0 0 0 0 0 0 0 0 0 127 0"/><feOffset dy="1"/><feGaussianBlur stdDeviation="2"/><feComposite in2="hardAlpha" operator="out"/><feColorMatrix values="0 0 0 0 0.334583 0 0 0 0 0.471459 0 0 0 0 0.608333 0 0 0 0.64 0"/><feBlend in2="BackgroundImageFix" result="effect1_dropShadow_2_434"/><feBlend in="SourceGraphic" in2="effect1_dropShadow_2_434" result="shape"/></filter><filter id="k" width="37" height="37" x="982" y="140" color-interpolation-filters="sRGB" filterUnits="userSpaceOnUse"><feFlood flood-opacity="0" result="BackgroundImageFix"/><feColorMatrix in="SourceAlpha" result="hardAlpha" values="0 0 0 0 0 0 0 0 0 0 0 0 0 0 0 0 0 0 127 0"/><feOffset dy="1"/><feGaussianBlur stdDeviation="2"/><feComposite in2="hardAlpha" operator="out"/><feColorMatrix values="0 0 0 0 0.334583 0 0 0 0 0.471459 0 0 0 0 0.608333 0 0 0 0.64 0"/><feBlend in2="BackgroundImageFix" result="effect1_dropShadow_2_434"/><feBlend in="SourceGraphic" in2="effect1_dropShadow_2_434" result="shape"/></filter><filter id="m" width="37" height="37" x="211" y="203" color-interpolation-filters="sRGB" filterUnits="userSpaceOnUse"><feFlood flood-opacity="0" result="BackgroundImageFix"/><feColorMatrix in="SourceAlpha" result="hardAlpha" values="0 0 0 0 0 0 0 0 0 0 0 0 0 0 0 0 0 0 127 0"/><feOffset dy="1"/><feGaussianBlur stdDeviation="2"/><feComposite in2="hardAlpha" operator="out"/><feColorMatrix values="0 0 0 0 0.334583 0 0 0 0 0.471459 0 0 0 0 0.608333 0 0 0 0.64 0"/><feBlend in2="BackgroundImageFix" result="effect1_dropShadow_2_434"/><feBlend in="SourceGraphic" in2="effect1_dropShadow_2_434" result="shape"/></filter><filter id="n" width="37" height="37" x="468" y="203" color-interpolation-filters="sRGB" filterUnits="userSpaceOnUse"><feFlood flood-opacity="0" result="BackgroundImageFix"/><feColorMatrix in="SourceAlpha" result="hardAlpha" values="0 0 0 0 0 0 0 0 0 0 0 0 0 0 0 0 0 0 127 0"/><feOffset dy="1"/><feGaussianBlur stdDeviation="2"/><feComposite in2="hardAlpha" operator="out"/><feColorMatrix values="0 0 0 0 0.334583 0 0 0 0 0.471459 0 0 0 0 0.608333 0 0 0 0.64 0"/><feBlend in2="BackgroundImageFix" result="effect1_dropShadow_2_434"/><feBlend in="SourceGraphic" in2="effect1_dropShadow_2_434" result="shape"/></filter><filter id="o" width="37" height="37" x="725" y="203" color-interpolation-filters="sRGB" filterUnits="userSpaceOnUse"><feFlood flood-opacity="0" result="BackgroundImageFix"/><feColorMatrix in="SourceAlpha" result="hardAlpha" values="0 0 0 0 0 0 0 0 0 0 0 0 0 0 0 0 0 0 127 0"/><feOffset dy="1"/><feGaussianBlur stdDeviation="2"/><feComposite in2="hardAlpha" operator="out"/><feColorMatrix values="0 0 0 0 0.334583 0 0 0 0 0.471459 0 0 0 0 0.608333 0 0 0 0.64 0"/><feBlend in2="BackgroundImageFix" result="effect1_dropShadow_2_434"/><feBlend in="SourceGraphic" in2="effect1_dropShadow_2_434" result="shape"/></filter><filter id="q" width="37" height="37" x="468" y="266" color-interpolation-filters="sRGB" filterUnits="userSpaceOnUse"><feFlood flood-opacity="0" result="BackgroundImageFix"/><feColorMatrix in="SourceAlpha" result="hardAlpha" values="0 0 0 0 0 0 0 0 0 0 0 0 0 0 0 0 0 0 127 0"/><feOffset dy="1"/><feGaussianBlur stdDeviation="2"/><feComposite in2="hardAlpha" operator="out"/><feColorMatrix values="0 0 0 0 0.334583 0 0 0 0 0.471459 0 0 0 0 0.608333 0 0 0 0.64 0"/><feBlend in2="BackgroundImageFix" result="effect1_dropShadow_2_434"/><feBlend in="SourceGraphic" in2="effect1_dropShadow_2_434" result="shape"/></filter><filter id="r" width="37" height="37" x="725" y="266" color-interpolation-filters="sRGB" filterUnits="userSpaceOnUse"><feFlood flood-opacity="0" result="BackgroundImageFix"/><feColorMatrix in="SourceAlpha" result="hardAlpha" values="0 0 0 0 0 0 0 0 0 0 0 0 0 0 0 0 0 0 127 0"/><feOffset dy="1"/><feGaussianBlur stdDeviation="2"/><feComposite in2="hardAlpha" operator="out"/><feColorMatrix values="0 0 0 0 0.334583 0 0 0 0 0.471459 0 0 0 0 0.608333 0 0 0 0.64 0"/><feBlend in2="BackgroundImageFix" result="effect1_dropShadow_2_434"/><feBlend in="SourceGraphic" in2="effect1_dropShadow_2_434" result="shape"/></filter><filter id="t" width="37" height="37" x="211" y="329" color-interpolation-filters="sRGB" filterUnits="userSpaceOnUse"><feFlood flood-opacity="0" result="BackgroundImageFix"/><feColorMatrix in="SourceAlpha" result="hardAlpha" values="0 0 0 0 0 0 0 0 0 0 0 0 0 0 0 0 0 0 127 0"/><feOffset dy="1"/><feGaussianBlur stdDeviation="2"/><feComposite in2="hardAlpha" operator="out"/><feColorMatrix values="0 0 0 0 0.334583 0 0 0 0 0.471459 0 0 0 0 0.608333 0 0 0 0.64 0"/><feBlend in2="BackgroundImageFix" result="effect1_dropShadow_2_434"/><feBlend in="SourceGraphic" in2="effect1_dropShadow_2_434" result="shape"/></filter><filter id="u" width="37" height="37" x="468" y="329" color-interpolation-filters="sRGB" filterUnits="userSpaceOnUse"><feFlood flood-opacity="0" result="BackgroundImageFix"/><feColorMatrix in="SourceAlpha" result="hardAlpha" values="0 0 0 0 0 0 0 0 0 0 0 0 0 0 0 0 0 0 127 0"/><feOffset dy="1"/><feGaussianBlur stdDeviation="2"/><feComposite in2="hardAlpha" operator="out"/><feColorMatrix values="0 0 0 0 0.334583 0 0 0 0 0.471459 0 0 0 0 0.608333 0 0 0 0.64 0"/><feBlend in2="BackgroundImageFix" result="effect1_dropShadow_2_434"/><feBlend in="SourceGraphic" in2="effect1_dropShadow_2_434" result="shape"/></filter><filter id="v" width="37" height="37" x="725" y="329" color-interpolation-filters="sRGB" filterUnits="userSpaceOnUse"><feFlood flood-opacity="0" result="BackgroundImageFix"/><feColorMatrix in="SourceAlpha" result="hardAlpha" values="0 0 0 0 0 0 0 0 0 0 0 0 0 0 0 0 0 0 127 0"/><feOffset dy="1"/><feGaussianBlur stdDeviation="2"/><feComposite in2="hardAlpha" operator="out"/><feColorMatrix values="0 0 0 0 0.334583 0 0 0 0 0.471459 0 0 0 0 0.608333 0 0 0 0.64 0"/><feBlend in2="BackgroundImageFix" result="effect1_dropShadow_2_434"/><feBlend in="SourceGraphic" in2="effect1_dropShadow_2_434" result="shape"/></filter><filter id="w" width="37" height="37" x="982" y="329" color-interpolation-filters="sRGB" filterUnits="userSpaceOnUse"><feFlood flood-opacity="0" result="BackgroundImageFix"/><feColorMatrix in="SourceAlpha" result="hardAlpha" values="0 0 0 0 0 0 0 0 0 0 0 0 0 0 0 0 0 0 127 0"/><feOffset dy="1"/><feGaussianBlur stdDeviation="2"/><feComposite in2="hardAlpha" operator="out"/><feColorMatrix values="0 0 0 0 0.334583 0 0 0 0 0.471459 0 0 0 0 0.608333 0 0 0 0.64 0"/><feBlend in2="BackgroundImageFix" result="effect1_dropShadow_2_434"/><feBlend in="SourceGraphic" in2="effect1_dropShadow_2_434" result="shape"/></filter><filter id="y" width="37" height="37" x="211" y="392" color-interpolation-filters="sRGB" filterUnits="userSpaceOnUse"><feFlood flood-opacity="0" result="BackgroundImageFix"/><feColorMatrix in="SourceAlpha" result="hardAlpha" values="0 0 0 0 0 0 0 0 0 0 0 0 0 0 0 0 0 0 127 0"/><feOffset dy="1"/><feGaussianBlur stdDeviation="2"/><feComposite in2="hardAlpha" operator="out"/><feColorMatrix values="0 0 0 0 0.334583 0 0 0 0 0.471459 0 0 0 0 0.608333 0 0 0 0.64 0"/><feBlend in2="BackgroundImageFix" result="effect1_dropShadow_2_434"/><feBlend in="SourceGraphic" in2="effect1_dropShadow_2_434" result="shape"/></filter><filter id="z" width="37" height="37" x="468" y="392" color-interpolation-filters="sRGB" filterUnits="userSpaceOnUse"><feFlood flood-opacity="0" result="BackgroundImageFix"/><feColorMatrix in="SourceAlpha" result="hardAlpha" values="0 0 0 0 0 0 0 0 0 0 0 0 0 0 0 0 0 0 127 0"/><feOffset dy="1"/><feGaussianBlur stdDeviation="2"/><feComposite in2="hardAlpha" operator="out"/><feColorMatrix values="0 0 0 0 0.334583 0 0 0 0 0.471459 0 0 0 0 0.608333 0 0 0 0.64 0"/><feBlend in2="BackgroundImageFix" result="effect1_dropShadow_2_434"/><feBlend in="SourceGraphic" in2="effect1_dropShadow_2_434" result="shape"/></filter><filter id="A" width="37" height="37" x="725" y="392" color-interpolation-filters="sRGB" filterUnits="userSpaceOnUse"><feFlood flood-opacity="0" result="BackgroundImageFix"/><feColorMatrix in="SourceAlpha" result="hardAlpha" values="0 0 0 0 0 0 0 0 0 0 0 0 0 0 0 0 0 0 127 0"/><feOffset dy="1"/><feGaussianBlur stdDeviation="2"/><feComposite in2="hardAlpha" operator="out"/><feColorMatrix values="0 0 0 0 0.334583 0 0 0 0 0.471459 0 0 0 0 0.608333 0 0 0 0.64 0"/><feBlend in2="BackgroundImageFix" result="effect1_dropShadow_2_434"/><feBlend in="SourceGraphic" in2="effect1_dropShadow_2_434" result="shape"/></filter><filter id="C" width="37" height="37" x="211" y="455" color-interpolation-filters="sRGB" filterUnits="userSpaceOnUse"><feFlood flood-opacity="0" result="BackgroundImageFix"/><feColorMatrix in="SourceAlpha" result="hardAlpha" values="0 0 0 0 0 0 0 0 0 0 0 0 0 0 0 0 0 0 127 0"/><feOffset dy="1"/><feGaussianBlur stdDeviation="2"/><feComposite in2="hardAlpha" operator="out"/><feColorMatrix values="0 0 0 0 0.334583 0 0 0 0 0.471459 0 0 0 0 0.608333 0 0 0 0.64 0"/><feBlend in2="BackgroundImageFix" result="effect1_dropShadow_2_434"/><feBlend in="SourceGraphic" in2="effect1_dropShadow_2_434" result="shape"/></filter><filter id="D" width="37" height="37" x="468" y="455" color-interpolation-filters="sRGB" filterUnits="userSpaceOnUse"><feFlood flood-opacity="0" result="BackgroundImageFix"/><feColorMatrix in="SourceAlpha" result="hardAlpha" values="0 0 0 0 0 0 0 0 0 0 0 0 0 0 0 0 0 0 127 0"/><feOffset dy="1"/><feGaussianBlur stdDeviation="2"/><feComposite in2="hardAlpha" operator="out"/><feColorMatrix values="0 0 0 0 0.334583 0 0 0 0 0.471459 0 0 0 0 0.608333 0 0 0 0.64 0"/><feBlend in2="BackgroundImageFix" result="effect1_dropShadow_2_434"/><feBlend in="SourceGraphic" in2="effect1_dropShadow_2_434" result="shape"/></filter><filter id="E" width="37" height="37" x="725" y="455" color-interpolation-filters="sRGB" filterUnits="userSpaceOnUse"><feFlood flood-opacity="0" result="BackgroundImageFix"/><feColorMatrix in="SourceAlpha" result="hardAlpha" values="0 0 0 0 0 0 0 0 0 0 0 0 0 0 0 0 0 0 127 0"/><feOffset dy="1"/><feGaussianBlur stdDeviation="2"/><feComposite in2="hardAlpha" operator="out"/><feColorMatrix values="0 0 0 0 0.334583 0 0 0 0 0.471459 0 0 0 0 0.608333 0 0 0 0.64 0"/><feBlend in2="BackgroundImageFix" result="effect1_dropShadow_2_434"/><feBlend in="SourceGraphic" in2="effect1_dropShadow_2_434" result="shape"/></filter><filter id="G" width="37" height="37" x="211" y="518" color-interpolation-filters="sRGB" filterUnits="userSpaceOnUse"><feFlood flood-opacity="0" result="BackgroundImageFix"/><feColorMatrix in="SourceAlpha" result="hardAlpha" values="0 0 0 0 0 0 0 0 0 0 0 0 0 0 0 0 0 0 127 0"/><feOffset dy="1"/><feGaussianBlur stdDeviation="2"/><feComposite in2="hardAlpha" operator="out"/><feColorMatrix values="0 0 0 0 0.334583 0 0 0 0 0.471459 0 0 0 0 0.608333 0 0 0 0.64 0"/><feBlend in2="BackgroundImageFix" result="effect1_dropShadow_2_434"/><feBlend in="SourceGraphic" in2="effect1_dropShadow_2_434" result="shape"/></filter><filter id="H" width="37" height="37" x="468" y="518" color-interpolation-filters="sRGB" filterUnits="userSpaceOnUse"><feFlood flood-opacity="0" result="BackgroundImageFix"/><feColorMatrix in="SourceAlpha" result="hardAlpha" values="0 0 0 0 0 0 0 0 0 0 0 0 0 0 0 0 0 0 127 0"/><feOffset dy="1"/><feGaussianBlur stdDeviation="2"/><feComposite in2="hardAlpha" operator="out"/><feColorMatrix values="0 0 0 0 0.334583 0 0 0 0 0.471459 0 0 0 0 0.608333 0 0 0 0.64 0"/><feBlend in2="BackgroundImageFix" result="effect1_dropShadow_2_434"/><feBlend in="SourceGraphic" in2="effect1_dropShadow_2_434" result="shape"/></filter><filter id="I" width="37" height="37" x="725" y="518" color-interpolation-filters="sRGB" filterUnits="userSpaceOnUse"><feFlood flood-opacity="0" result="BackgroundImageFix"/><feColorMatrix in="SourceAlpha" result="hardAlpha" values="0 0 0 0 0 0 0 0 0 0 0 0 0 0 0 0 0 0 127 0"/><feOffset dy="1"/><feGaussianBlur stdDeviation="2"/><feComposite in2="hardAlpha" operator="out"/><feColorMatrix values="0 0 0 0 0.334583 0 0 0 0 0.471459 0 0 0 0 0.608333 0 0 0 0.64 0"/><feBlend in2="BackgroundImageFix" result="effect1_dropShadow_2_434"/><feBlend in="SourceGraphic" in2="effect1_dropShadow_2_434" result="shape"/></filter><filter id="K" width="37" height="37" x="211" y="581" color-interpolation-filters="sRGB" filterUnits="userSpaceOnUse"><feFlood flood-opacity="0" result="BackgroundImageFix"/><feColorMatrix in="SourceAlpha" result="hardAlpha" values="0 0 0 0 0 0 0 0 0 0 0 0 0 0 0 0 0 0 127 0"/><feOffset dy="1"/><feGaussianBlur stdDeviation="2"/><feComposite in2="hardAlpha" operator="out"/><feColorMatrix values="0 0 0 0 0.334583 0 0 0 0 0.471459 0 0 0 0 0.608333 0 0 0 0.64 0"/><feBlend in2="BackgroundImageFix" result="effect1_dropShadow_2_434"/><feBlend in="SourceGraphic" in2="effect1_dropShadow_2_434" result="shape"/></filter><filter id="L" width="37" height="37" x="468" y="581" color-interpolation-filters="sRGB" filterUnits="userSpaceOnUse"><feFlood flood-opacity="0" result="BackgroundImageFix"/><feColorMatrix in="SourceAlpha" result="hardAlpha" values="0 0 0 0 0 0 0 0 0 0 0 0 0 0 0 0 0 0 127 0"/><feOffset dy="1"/><feGaussianBlur stdDeviation="2"/><feComposite in2="hardAlpha" operator="out"/><feColorMatrix values="0 0 0 0 0.334583 0 0 0 0 0.471459 0 0 0 0 0.608333 0 0 0 0.64 0"/><feBlend in2="BackgroundImageFix" result="effect1_dropShadow_2_434"/><feBlend in="SourceGraphic" in2="effect1_dropShadow_2_434" result="shape"/></filter><filter id="M" width="37" height="37" x="725" y="581" color-interpolation-filters="sRGB" filterUnits="userSpaceOnUse"><feFlood flood-opacity="0" result="BackgroundImageFix"/><feColorMatrix in="SourceAlpha" result="hardAlpha" values="0 0 0 0 0 0 0 0 0 0 0 0 0 0 0 0 0 0 127 0"/><feOffset dy="1"/><feGaussianBlur stdDeviation="2"/><feComposite in2="hardAlpha" operator="out"/><feColorMatrix values="0 0 0 0 0.334583 0 0 0 0 0.471459 0 0 0 0 0.608333 0 0 0 0.64 0"/><feBlend in2="BackgroundImageFix" result="effect1_dropShadow_2_434"/><feBlend in="SourceGraphic" in2="effect1_dropShadow_2_434" result="shape"/></filter><linearGradient id="b" x1="1009" x2="227" y1="95" y2="95" gradientUnits="userSpaceOnUse"><stop stop-color="#0C37B8"/><stop offset="1" stop-color="#3CACFF"/></linearGradient><linearGradient id="g" x1="1009" x2="227" y1="158" y2="158" gradientUnits="userSpaceOnUse"><stop stop-color="#0C37B8"/><stop offset="1" stop-color="#3CACFF"/></linearGradient><linearGradient id="l" x1="1009" x2="227" y1="221" y2="221" gradientUnits="userSpaceOnUse"><stop stop-color="#0C37B8"/><stop offset="1" stop-color="#3CACFF"/></linearGradient><linearGradient id="p" x1="1009" x2="227" y1="284" y2="284" gradientUnits="userSpaceOnUse"><stop stop-color="#0C37B8"/><stop offset="1" stop-color="#3CACFF"/></linearGradient><linearGradient id="s" x1="1009" x2="227" y1="347" y2="347" gradientUnits="userSpaceOnUse"><stop stop-color="#0C37B8"/><stop offset="1" stop-color="#3CACFF"/></linearGradient><linearGradient id="x" x1="1009" x2="227" y1="410" y2="410" gradientUnits="userSpaceOnUse"><stop stop-color="#0C37B8"/><stop offset="1" stop-color="#3CACFF"/></linearGradient><linearGradient id="B" x1="1009" x2="227" y1="473" y2="473" gradientUnits="userSpaceOnUse"><stop stop-color="#0C37B8"/><stop offset="1" stop-color="#3CACFF"/></linearGradient><linearGradient id="F" x1="1009" x2="227" y1="536" y2="536" gradientUnits="userSpaceOnUse"><stop stop-color="#0C37B8"/><stop offset="1" stop-color="#3CACFF"/></linearGradient><linearGradient id="J" x1="1009" x2="227" y1="599" y2="599" gradientUnits="userSpaceOnUse"><stop stop-color="#0C37B8"/><stop offset="1" stop-color="#3CACFF"/></linearGradient><clipPath id="a"><path fill="#fff" d="M0 0h1048v617H0z"/></clipPath></defs></svg>