<?xml version="1.0" encoding="UTF-8" standalone="no"?>
<svg
   width="512"
   height="512"
   viewBox="0 0 5120 5120"
   version="1.1"
   id="svg803"
   sodipodi:docname="deno_logo.svg"
   xml:space="preserve"
   xmlns:inkscape="http://www.inkscape.org/namespaces/inkscape"
   xmlns:sodipodi="http://sodipodi.sourceforge.net/DTD/sodipodi-0.dtd"
   xmlns="http://www.w3.org/2000/svg"
   xmlns:svg="http://www.w3.org/2000/svg"><defs
     id="defs807" /><sodipodi:namedview
     id="namedview805"
     pagecolor="#ffffff"
     bordercolor="#666666"
     borderopacity="1.0"
     inkscape:showpageshadow="2"
     inkscape:pageopacity="0.0"
     inkscape:pagecheckerboard="0"
     inkscape:deskcolor="#d1d1d1"
     showgrid="false" /><title
     id="title793">Deno logo</title><path
     d="m 2560,0 a 2560,2560 0 1 1 0,5120 2560,2560 0 0 1 0,-5120 z"
     id="path795"
     style="display:inline"
     sodipodi:insensitive="true" /><path
     fill="#ffffff"
     d="m 2460,1449 c -744,0 -1324,469 -1324,1052 0,550 533,901 1359,884 l 25,-1 91,-3 -23,60 3,6 a 668,668 0 0 1 18,47 l 2,6 3,10 4,14 3,9 4,10 3,11 4,16 5,17 3,11 5,18 5,19 4,19 5,20 4,14 5,22 5,22 7,30 3,16 5,24 5,25 6,26 7,37 6,30 8,42 4,21 7,33 6,34 8,46 9,48 8,50 9,51 9,52 9,54 9,56 7,43 11,73 5,30 12,77 9,63 8,48 9,66 5,33 c 549,-73 1037,-339 1393,-728 l 11,-12 -51,-190 -135,-505 -84,-314 -74,-276 -46,-168 -29,-106 -17,-64 -16,-56 -6,-24 -4,-13 -2,-7 -2,-6 c -78,-251 -229,-473 -435,-634 -242,-189 -549,-288 -907,-288 z m -654,2669 c -65,-18 -133,20 -152,85 l -1,3 -112,416 a 2287,2287 0 0 0 215,93 l 17,7 121,-451 1,-3 c 16,-66 -23,-133 -89,-150 z m 697,-305 c -66,-18 -134,20 -153,85 l -1,3 -170,630 v 3 a 125,125 0 0 0 241,65 l 1,-3 170,-630 v -3 l 3,-14 1,-5 -4,-21 -6,-29 -4,-18 a 125,125 0 0 0 -78,-63 z m -1185,-649 -8,19 -1,4 -170,630 -1,3 a 125,125 0 0 0 241,66 l 1,-3 154,-572 c -80,-42 -153,-92 -216,-147 z M 913,2439 c -66,-17 -134,21 -153,85 l -1,3 -170,630 v 3 a 125,125 0 0 0 241,66 l 1,-3 170,-630 v -3 c 16,-66 -23,-133 -88,-151 z m 3811,-143 c -65,-17 -133,21 -152,85 l -1,3 -170,630 -1,3 a 125.4193,125.4193 0 0 0 242,66 v -3 l 171,-630 v -4 c 16,-65 -23,-132 -89,-150 z M 542,1455 a 2284,2284 0 0 0 -267,838 124,124 0 0 0 62,38 c 65,17 133,-21 152,-85 l 1,-3 170,-630 1,-3 c 16,-66 -23,-133 -89,-151 a 127,127 0 0 0 -30,-4 z m 3752,4 c -66,-17 -133,21 -153,85 v 3 l -170,630 -1,3 a 125,125 0 0 0 241,66 l 1,-3 170,-630 1,-3 c 16,-66 -24,-133 -89,-151 z"
     id="path797"
     style="display:inline"
     sodipodi:insensitive="true" /><path
     d="m 2620,1870 a 160,160 0 1 1 0,320 160,160 0 0 1 0,-320 z"
     id="path799"
     style="display:inline"
     inkscape:label="path799"
     sodipodi:insensitive="true" /><g
     inkscape:groupmode="layer"
     id="layer1"
     inkscape:label="Layer 1"><ellipse
       style="fill:#ee1401;fill-opacity:1;stroke-width:70.5754;stroke-linecap:round;stroke-linejoin:bevel;paint-order:stroke markers fill"
       id="path1670"
       ry="266.83337"
       rx="1445.3785"
       cy="1562.8553"
       cx="2490.5815"
       transform="matrix(0.99986775,0.01626289,-0.04184348,0.99912418,0,0)" /><path
       style="fill:#ee1401;fill-opacity:1;stroke-width:70.5654;stroke-linecap:round;stroke-linejoin:bevel;paint-order:stroke markers fill"
       id="path7904"
       sodipodi:type="arc"
       sodipodi:cx="-2611.4646"
       sodipodi:cy="-1302.8348"
       sodipodi:rx="983.49646"
       sodipodi:ry="774.27112"
       sodipodi:start="6.2563712"
       sodipodi:end="3.1249862"
       sodipodi:arc-type="slice"
       d="m -1628.3217,-1323.5937 a 983.49646,774.27112 0 0 1 -471.5909,682.05095 983.49646,774.27112 0 0 1 -986.1606,16.85783 983.49646,774.27112 0 0 1 -508.7523,-665.29258 l 983.3609,-12.8573 z"
       transform="matrix(-0.99803516,-0.06265643,0.05288298,-0.99860072,0,0)" /></g><path
     style="fill:#ee1401;fill-opacity:1;stroke:#000000;stroke-width:10px;stroke-linecap:butt;stroke-linejoin:miter;stroke-opacity:0"
     d="m 3109.4438,1507.8843 c 0,0 130.2768,234.1434 178.4836,358.6855 38.8583,100.3901 26.4936,195.5183 88.2839,310.6431 109.7164,204.4187 338.1909,429.9179 380.5818,591.2886 87.871,334.5016 229.3956,730.4423 -29.8319,1012.4676 0,0 535.9008,-14.5336 596.3926,-96.7411 80.9554,-110.0174 104.6212,-345.8757 104.6212,-345.8757 0,0 -93.6577,-775.3049 -235.5146,-1099.8986 -110.0071,-251.7158 -336.8328,-657.3694 -336.8328,-657.3694 z"
     id="path8043"
     sodipodi:nodetypes="casscscscc" /><ellipse
     style="fill:#000000;fill-opacity:1;stroke:#000000;stroke-width:70.5845;stroke-linecap:round;stroke-linejoin:bevel;stroke-opacity:0;paint-order:stroke markers fill"
     id="path9267"
     cx="2538.072"
     cy="1255.1367"
     rx="1234.8401"
     ry="118.30727"
     transform="matrix(0.99921068,0.03972415,-0.07390129,0.99726556,0,0)" /></svg>
