<svg xmlns="http://www.w3.org/2000/svg" width="813" height="813" viewBox="0 0 8131 8131"><path fill="#222" d="M4066 0a4065 4065 0 100 8132 4069 4069 0 004067-4066 4063 4063 0 00-43-590 4068 4066 0 000-1c-28-192-71-381-125-565a4068 4066 0 00-2-5c-55-185-123-366-204-541a4068 4066 0 00-2-5 4065 4065 0 00-280-506 4068 4066 0 00-3-4 4063 4063 0 00-349-461 4068 4066 0 00-3-4 4066 4066 0 00-413-407 4068 4066 0 00-3-2 4063 4063 0 00-468-345 4068 4068 0 00-564-297 4068 4066 0 00-20-9c-160-68-324-125-491-172a4068 4066 0 00-33-9c-166-45-335-80-507-104a4068 4066 0 00-29-3c-174-23-350-36-528-36zm-457 530c357 103 807 178 1596 158 85 28 169 60 251 94-1122 52-1643-71-2078-215 76-15 153-27 231-37zm-674 153l151 432c825 233 1656 401 2540 283l255-402 89 56-268 422c269 745 704 1454 1337 2123l554-64 13 104-548 63c-516 750-719 1564-840 2400l428 427c-19 20-38 41-58 60l-15 15-430-429c-45 2-90 8-134 13l-9-104 46-6-50-50-13-161 144 143c119-789 319-1568 795-2292l-804 92a2864 2864 0 00-343 564c-13-50-28-98-43-144 68-135 149-270 247-404l-395 45a2573 2573 0 00-52-99l431-50c-363-333-647-775-838-1339l-362 571-58-33h-1l-44-22 16-4 369-581c-566 74-1095-11-1603-181l190 541h-3l-107 4-167-477c-98 235-232 421-387 577a3235 3235 0 00-241 79c245-197 451-445 575-807l-270-770c-439 730-1001 1307-1700 1710l692 242a2290 2290 0 00-98 77l-650-228c75 283 137 562 185 838a1117 1117 0 00-36 116c-13 51-21 102-27 152-54-376-136-758-241-1147l-456-160a3535 3535 0 0137-99l463 163c743-408 1333-1011 1787-1790l-152-435 99-34zm-591 258A8212 8212 0 01934 2354a3558 3558 0 01158-261c351-294 679-625 987-991a3562 3562 0 01265-161zm784 294l271 772c546 193 1110 288 1718 191l436-686c-847 96-1644-60-2425-277zm3268 132c66 57 130 115 192 177l49 52c228 412 480 820 769 1221a3564 3564 0 0199 305c-438-574-798-1161-1109-1755zm-764 217l-435 685c198 624 504 1094 903 1436l811-94a6179 6179 0 01-1279-2027zM3629 2923a1995 1995 0 01756 129 1936 1936 0 01120 50l83 39 41 22c40 22 76 44 110 69 50 37 102 83 175 153l29 29c55 54 104 106 149 159l2 2a2003 2003 0 01222 325 2531 2531 0 0154 104 2523 2523 0 0163 139v2c58 139 102 284 140 467 15 69 28 147 41 230 14 87 27 184 40 289l4 35c14 109 27 228 41 363l5 57 15 163v1a31152 31152 0 0131 370l8 105c20 262 36 514 42 659v16l6 106 9 167a3567 3567 0 01-1943 453c1-69 6-195 12-302 6-118 10-243 13-369l3-115v-1l1-207c1-255-3-502-15-710l-1-29-3-55a4965 4965 0 00-53-472c-18-117-36-216-49-248-4-11 21-23 79-44l3-2c13-4 17-7 35-12l76-30a2088 2088 0 00100-41l8-4c27-12 52-24 74-36l28-15c15-9 30-17 41-25l3-2c15-11 27-21 32-28 5-10 8-19 10-29 4-20 1-41-7-61a152 152 0 00-135-90c-17 0-68 18-115 39l-7 2a3595 3595 0 01-376 131 4591 4591 0 01-141 39 4193 4193 0 01-213 48l-14 2c-66 13-128 23-181 29h-1c-40 4-86 6-134 7l-64 1-78-1a3028 3028 0 01-93-4l-45-3-110-10c-44-5-87-10-125-17l-33-9a853 853 0 01-33-8 2445 2445 0 01-235-85l-10-4c-47-20-94-42-139-65a959 959 0 01-65-37l-40-27-18-13a689 689 0 01-51-42 476 476 0 01-151-248c-18-80-13-240 10-330 12-50 36-111 64-170a1172 1172 0 0146-85c16-27 33-51 49-72l2-3a1295 1295 0 0158-71l12-13c18-20 37-40 58-60l7-8c23-22 46-44 71-65v-1a2031 2031 0 0183-69 2186 2186 0 0185-63l7-5 3-2a2783 2783 0 01451-254l4-1a2961 2961 0 01110-46l27-11a2970 2970 0 01126-45 2937 2937 0 0185-27l40-12 86-23 37-9c41-10 82-19 122-26h2v-1a1523 1523 0 01125-17l61-5c47-3 95-6 143-7zm27 50c92 372 251 540 494 625 236 83 563 83 968 88-67-89-144-174-239-265a1112 1112 0 00-314-236 1899 1899 0 00-909-212zM565 3377c140 702 185 1380 203 2050a3565 3565 0 01-114-321c-20-464-58-933-137-1412 12-107 28-213 48-317zm1701 31c-18 0-37 4-56 12-104 45-112 186-14 236 71 36 143 19 180-43 59-96-13-205-110-205zm695 89a131 131 0 00-73 19c-96 59-96 201 0 260 95 57 218-18 218-132 0-82-71-145-145-147zm-1132 354c-49 79-98 183-116 255-20 78-24 242-10 307 29 130 127 244 299 333h1c153 79 342 149 435 166 79 15 174 24 270 30 19-341-34-552-168-708-136-158-368-267-711-383zm5802 135l2 80c0 56-1 112-4 169-273 599-465 1217-621 1846a3563 3563 0 01-160 216c183-787 416-1564 783-2311zm-6187 589c27 71 67 136 116 195 13 240 13 477-6 709l564-352a1792 1792 0 00127 45l-650 406c718 297 1427 650 2057 1278-3 157-8 311-15 455-6 100-10 211-12 293l-47-6 68-600c-653-678-1396-1040-2160-1352l-459 286a3562 3562 0 01-54-90l471-294c31-316 28-641 0-973zm2737 372c0-1-11-2-17 0h17zm-1605 287c98 10 199 14 297 14 266 128 520 301 756 532l10 158a2727 2727 0 00-1063-704zM1277 6289c757 380 1502 770 2069 1269-75-15-151-34-225-55-473-377-1058-696-1663-1005a3566 3566 0 01-181-209zm5113 481c-56 48-114 95-173 139l-161 38-4-72v-1l-2-34c113-25 226-49 340-70z"/></svg>